<svg width="150" height="150" viewBox="0 0 150 150" fill="none" xmlns="http://www.w3.org/2000/svg">
<path fill-rule="evenodd" clip-rule="evenodd" d="M28.3655 109.556C37.3592 119.346 72.1381 113.722 95.0383 113.722C104.918 113.722 138.071 118.674 124.381 84.6688C79.4917 -26.827 -0.130898 78.5365 28.3655 109.556Z" fill="url(#paint0_linear_2018_1137)"/>
<path fill-rule="evenodd" clip-rule="evenodd" d="M68.1586 110.343C68.2024 110.31 68.2482 110.273 68.2672 110.222C68.3283 110.056 68.0888 109.946 67.9122 109.95C67.6558 109.955 67.3271 110.128 67.4055 110.372C67.4509 110.513 67.6249 110.579 67.771 110.553C67.9171 110.527 68.041 110.434 68.1586 110.343ZM68.9208 107.436C69.1144 107.497 69.3055 107.572 69.4741 107.685C69.7906 107.897 70.006 108.226 70.2127 108.546C70.3609 108.775 70.5111 109.009 70.5851 109.272C70.6651 109.557 70.6509 109.861 70.5972 110.152C70.4301 111.058 69.8709 111.885 69.0921 112.377C68.3133 112.87 67.3265 113.02 66.4362 112.783C66.2629 112.736 66.0884 112.673 65.9551 112.553C65.8431 112.453 65.7676 112.318 65.6985 112.184C65.3359 111.481 65.0914 110.7 65.1194 109.91C65.1473 109.119 65.4723 108.319 66.0879 107.822C66.8604 107.198 67.9735 107.139 68.9208 107.436" fill="white"/>
<path fill-rule="evenodd" clip-rule="evenodd" d="M109.805 64.4268C109.381 64.4215 108.983 64.7774 108.941 65.1998C108.923 65.3724 108.997 65.587 109.168 65.6108C109.297 65.6286 109.41 65.5291 109.497 65.4322C109.68 65.227 109.837 64.9987 109.964 64.7546C110.006 64.6727 110.044 64.5676 109.988 64.4941C109.947 64.4405 109.872 64.4276 109.805 64.4268ZM109.621 62.5327C110.224 62.743 110.77 63.1129 111.19 63.5944C111.55 64.0083 111.824 64.5456 111.748 65.0891C111.721 65.2886 111.647 65.4788 111.563 65.6619C111.245 66.3554 110.698 67.0199 109.947 67.1542C109.553 67.2247 109.147 67.1403 108.768 67.0114C108.33 66.8623 107.913 66.6532 107.531 66.3918C107.328 66.2531 107.127 66.0886 107.038 65.8597C106.977 65.7019 106.975 65.5282 106.977 65.359C106.983 64.9406 107.011 64.5151 107.156 64.1229C107.341 63.6266 107.702 63.217 108.085 62.8514C108.239 62.7044 108.403 62.5595 108.6 62.4807C108.924 62.3518 109.293 62.4179 109.621 62.5327Z" fill="white"/>
<path fill-rule="evenodd" clip-rule="evenodd" d="M109.807 32.3439C112.301 34.916 114.27 37.9915 115.558 41.3293C115.647 41.5585 115.732 41.8132 115.648 42.0439C114.998 43.8207 113.743 45.302 112.513 46.7423C111.727 47.6627 110.941 48.583 110.155 49.5034C109.405 50.382 108.654 51.2608 107.878 52.1173C103.929 56.4783 99.2615 60.2916 93.8562 62.638C93.6522 62.7265 93.4334 62.8148 93.2137 62.7794C92.9941 62.744 92.7882 62.5316 92.8457 62.3174C93.514 59.8288 94.1865 57.2269 93.6503 54.7068C93.521 54.0989 93.3767 53.3335 93.881 52.9678C97.9633 50.0063 100.902 45.7732 103.719 41.5977C104.428 40.5478 105.134 39.495 105.761 38.3948C106.874 36.4415 107.731 34.3438 108.303 32.1715C108.382 31.8734 108.76 31.7392 109.059 31.8173C109.358 31.8954 109.592 32.1222 109.807 32.3439" fill="white"/>
<path fill-rule="evenodd" clip-rule="evenodd" d="M32.0267 42.3361C32.4322 46.0018 33.5608 49.5861 35.3286 52.8229C36.4232 54.827 37.7546 56.6903 39.0824 58.5481C40.0064 59.8409 40.9945 61.1881 42.4362 61.8562C42.8195 62.0338 42.766 62.5865 42.6631 62.9963C42.2184 64.7675 42.0109 66.5982 42.0479 68.424C42.0514 68.5965 42.056 68.7753 41.9882 68.934C41.7581 69.4726 40.9698 69.3828 40.4272 69.1625C37.0694 67.7995 34.4915 65.0583 32.0834 62.3504C28.9567 58.8345 25.8766 55.1642 24.0296 50.8369C23.904 50.5427 23.7821 50.2331 23.8032 49.9139C23.8246 49.5887 23.9916 49.2931 24.1611 49.0147C25.8355 46.2646 28.1649 43.9162 30.9014 42.2196C31.0942 42.1001 31.3 41.9803 31.5266 41.9725C31.7533 41.9646 32.0018 42.1106 32.0267 42.3361Z" fill="white"/>
<path fill-rule="evenodd" clip-rule="evenodd" d="M109.317 106.643C109.606 106.152 109.965 105.612 110.527 105.519C110.748 105.483 110.865 105.242 110.94 105.031C111.869 102.426 111.958 99.5301 111.192 96.8734C110.974 96.115 111.243 95.3111 111.509 94.5682C112.196 92.6509 112.884 90.7337 113.571 88.8164C113.177 88.1353 112.139 88.1555 111.607 87.5758C110.922 86.8298 111.439 85.6437 111.975 84.785C115.108 79.7681 118.24 74.7512 121.373 69.7344C121.757 69.1197 122.599 68.927 123.305 69.0908C124.011 69.2546 124.614 69.6989 125.194 70.1325C127.479 71.839 129.764 73.5455 132.048 75.252C133.275 76.1679 134.628 77.3378 134.558 78.8667C134.519 79.7127 134.034 80.4648 133.566 81.1704C131.755 83.8989 129.945 86.6274 128.134 89.3559C127.114 90.893 127.396 92.9118 127.087 94.7307C126.6 97.6047 124.629 99.9649 122.805 102.238C120.98 104.511 119.154 107.049 119.051 109.962C118.929 113.434 117.279 116.825 114.623 119.065C115.394 117.196 110.527 117.941 104.959 115.726C105.875 112.485 107.605 109.543 109.317 106.643Z" fill="white"/>
<path fill-rule="evenodd" clip-rule="evenodd" d="M48.1819 114.771C47.8347 114.487 47.724 114.008 47.6627 113.562C46.9537 108.407 49.9987 103.318 49.4563 98.1428C49.1768 95.4756 47.9513 92.9868 46.4091 90.798C45.3441 89.2865 45.2844 87.2616 45.6817 85.453C46.079 83.6445 46.8805 81.9534 47.4211 80.1828C49.8252 72.3089 46.8999 63.8972 44.0078 56.1909C49.7708 53.404 56.4958 53.9438 62.8802 54.3213C69.2646 54.6989 76.1309 54.7257 81.452 51.1602C82.1814 58.8734 80.5732 66.5951 78.9741 74.1746C87.0879 73.3841 95.2017 72.5937 103.316 71.8032C103.548 71.7805 103.803 71.763 103.996 71.8952C104.254 72.0714 104.294 72.4309 104.308 72.744C104.688 80.7655 104.918 88.7941 104.998 96.8242C105 97.0256 104.993 97.2502 104.852 97.393C104.731 97.5153 104.546 97.5409 104.376 97.5599C93.008 98.8267 81.6403 100.094 70.2726 101.36C69.2896 101.47 67.8892 101.214 67.9468 100.222C68.2035 95.7969 68.0537 91.3486 67.4998 86.9516C64.4788 86.8372 61.4372 87.2979 58.5838 88.302C57.9365 88.5298 57.1581 89.1422 57.5073 89.7356C59.817 93.6607 56.9502 99.5608 60.0873 102.856C61.1659 103.989 61.0914 105.771 60.8776 107.324C60.4194 110.653 59.6409 113.938 58.5566 117.117C59.0808 113.458 48.5022 116.734 48.1819 114.771Z" fill="white"/>
<path fill-rule="evenodd" clip-rule="evenodd" d="M15.6677 31.6957C15.6775 31.7739 15.6352 31.8559 15.5659 31.8934C15.5107 31.8382 15.4556 31.783 15.4004 31.7278C15.4831 31.6916 15.5769 31.6813 15.6655 31.6986L15.6677 31.6957Z" fill="#00160A"/>
<path fill-rule="evenodd" clip-rule="evenodd" d="M68.7215 107.436C68.9151 107.497 69.1062 107.572 69.2749 107.685C69.5914 107.897 69.8068 108.226 70.0135 108.546C70.1617 108.775 70.3119 109.009 70.3858 109.272C70.4659 109.557 70.4516 109.861 70.398 110.152C70.2309 111.058 69.6717 111.885 68.8929 112.377C68.1141 112.87 67.1273 113.02 66.237 112.783C66.0637 112.736 65.8892 112.673 65.7559 112.553C65.6439 112.453 65.5684 112.318 65.4993 112.184C65.1367 111.481 64.8922 110.7 64.9201 109.91C64.9481 109.119 65.2731 108.319 65.8886 107.822C66.6611 107.198 67.7743 107.139 68.7215 107.436M67.6359 112.143C68.1202 112.07 68.5464 111.753 68.8247 111.35C69.103 110.947 69.2458 110.464 69.3144 109.979C69.3535 109.702 69.3571 109.385 69.1616 109.185C69.0445 109.065 68.8774 109.011 68.717 108.963C68.115 108.783 67.4277 108.63 66.8884 108.953C66.4957 109.188 66.2768 109.623 66.0783 110.036C65.8459 110.519 65.9033 111.128 66.2218 111.559C66.5403 111.99 67.1061 112.224 67.6359 112.143V112.143Z" fill="#00160A"/>
<path fill-rule="evenodd" clip-rule="evenodd" d="M90.8422 85.6858C90.8506 85.5831 90.8629 85.4729 90.9309 85.3954C90.9974 85.3196 91.102 85.2924 91.2002 85.2696C93.73 84.6805 96.343 84.4501 98.9369 84.5873C99.2672 84.6047 99.6921 84.7166 99.7139 85.0466C99.8392 86.9391 99.9645 88.8315 100.09 90.724C100.096 90.8198 100.099 90.9259 100.038 90.9998C99.9882 91.06 99.9076 91.0833 99.8319 91.1031C97.134 91.8064 94.2903 91.945 91.5369 91.5075C91.466 91.4962 91.3914 91.4829 91.3363 91.4368C91.2698 91.3811 91.2465 91.2904 91.2275 91.2057C90.8215 89.3993 90.6911 87.5312 90.8422 85.6858ZM91.4387 88.8252C91.4884 89.5398 91.6383 90.2474 91.8826 90.9208C92.1263 90.956 92.3675 91.0066 92.6103 91.0477C94.7028 91.4019 96.8429 91.0455 98.9351 90.6895C99.0835 90.6642 99.2463 90.6307 99.338 90.5112C99.4316 90.3891 99.4191 90.2191 99.4022 90.0662C99.3301 89.4141 99.2581 88.762 99.186 88.1099C99.1802 88.0573 99.1727 88.0009 99.1372 87.9618C99.094 87.9143 99.0233 87.9066 98.9593 87.9024C97.4725 87.8045 95.9808 87.9154 94.4949 88.0263C93.6737 88.0876 92.8524 88.1489 92.0311 88.2102C91.838 88.2246 91.6188 88.2532 91.5078 88.4118C91.426 88.5286 91.4288 88.6829 91.4387 88.8252ZM91.4618 86.0977C91.3319 86.5145 91.3085 86.964 91.3946 87.3921C91.4101 87.469 91.4319 87.5501 91.4903 87.6025C91.5768 87.6801 91.7088 87.6673 91.8238 87.6505C93.223 87.4455 94.6374 87.3437 96.0516 87.3461C96.2511 87.3464 96.3123 87.0778 96.3101 86.8784C96.3069 86.5861 96.3037 86.2938 96.3005 86.0015C96.2986 85.8323 96.2902 85.646 96.1744 85.5227C96.0353 85.3746 95.8027 85.3792 95.6001 85.3947C95.1316 85.4304 94.6631 85.4662 94.1946 85.502C93.9704 85.5191 93.376 85.6714 93.1028 85.6894C92.6272 85.7652 92.1515 85.8411 91.6759 85.917C91.6252 85.9251 91.5717 85.9345 91.5326 85.9678C91.4946 86.0003 91.4767 86.05 91.4618 86.0977ZM97.735 87.3692C98.1068 87.374 98.4791 87.3368 98.8426 87.2586C98.9292 87.2399 99.0201 87.2163 99.0819 87.1528C99.1725 87.0597 99.1717 86.9136 99.165 86.7838C99.1458 86.4069 99.1266 86.0301 99.1073 85.6532C99.1005 85.5188 99.0854 85.3674 98.9803 85.2832C98.8878 85.2093 98.7574 85.2137 98.6393 85.2217C98.2258 85.2498 97.8124 85.278 97.3989 85.3061C97.3335 85.3106 97.2647 85.3161 97.21 85.3523C97.1098 85.4185 97.0948 85.557 97.0921 85.677C97.0828 86.0765 97.0991 86.4765 97.1409 86.8739C97.153 86.989 97.1697 87.1101 97.2409 87.2013C97.3517 87.3433 97.5548 87.3669 97.735 87.3692Z" fill="#AE93CD"/>
<path fill-rule="evenodd" clip-rule="evenodd" d="M97.3156 77.4157C97.8683 77.1766 98.5464 77.2567 99.0281 77.6181C99.5098 77.9794 99.7764 78.6081 99.7014 79.2055C100.04 79.0225 100.469 78.8422 100.786 79.062C101.142 79.3103 101.061 79.8449 101.007 80.2763C100.914 81.0299 101.035 81.8091 101.354 82.4986C101.485 82.7833 101.598 83.2154 101.306 83.3303C101.257 83.3497 101.203 83.3541 101.151 83.3584C97.7276 83.6342 94.3046 83.9101 90.8816 84.186C90.7877 84.1935 90.6826 84.1976 90.6116 84.1358C90.5391 84.0726 90.53 83.9653 90.5261 83.8692C90.4933 83.0641 90.4605 82.259 90.4277 81.4538C90.4189 81.2379 90.4147 81.005 90.5366 80.8265C90.7385 80.5312 91.1614 80.5321 91.5146 80.4755C91.8678 80.419 92.2788 80.1209 92.1428 79.79C91.9912 79.4212 92.5078 79.1516 92.9021 79.0916C93.2963 79.0316 93.8193 78.7966 93.6999 78.4161C93.5694 78.0005 94.1414 77.7425 94.5732 77.6851C94.8779 77.6447 95.1966 77.6056 95.4856 77.7101C95.7747 77.8147 96.019 78.1122 95.9539 78.4126C95.8793 78.7566 96.2983 79.077 96.6286 78.9555C96.9588 78.834 97.0926 78.3827 96.9255 78.073C96.7889 77.82 97.0518 77.5299 97.3156 77.4157ZM99.0832 82.7215C98.9552 82.4841 98.9543 82.2015 98.9531 81.9318C98.9477 80.6655 98.8699 79.3994 98.7202 78.1419C98.7126 78.0785 98.7007 78.0076 98.6487 77.9704C98.6039 77.9383 98.5437 77.9421 98.4888 77.9472C98.2214 77.9722 97.9045 78.0313 97.7988 78.2782C97.7538 78.3835 97.7591 78.5026 97.7652 78.617C97.833 79.8862 97.9008 81.1554 97.9686 82.4246C97.9749 82.5429 97.9906 82.6786 98.0889 82.7446C98.1424 82.7806 98.2099 82.7873 98.2743 82.7908C98.5454 82.8056 98.8186 82.7822 99.0832 82.7215ZM94.4793 80.77C94.4461 80.9814 94.3995 81.1914 94.3871 81.405C94.3663 81.7621 94.4415 82.1171 94.5163 82.4669C94.5643 82.6911 94.8542 82.8015 95.0666 82.7151C95.279 82.6286 95.4074 82.402 95.4427 82.1753C95.478 81.9487 95.4366 81.7181 95.4005 81.4916C95.2586 80.6018 95.1972 79.6992 95.2172 78.7984C95.2223 78.5705 95 78.3646 94.7731 78.3871C94.5462 78.4096 94.3686 78.6551 94.4184 78.8777C94.5569 79.4972 94.5776 80.1428 94.4793 80.77ZM96.7305 79.5545C96.5971 79.3797 96.2912 79.4728 96.187 79.6665C96.0829 79.8602 96.1147 80.0951 96.1406 80.3135C96.208 80.8839 96.2144 81.4614 96.1597 82.0331C96.1436 82.2016 96.1257 82.3857 96.2187 82.5271C96.3619 82.7447 96.6759 82.7427 96.935 82.7164C97.0163 82.7081 97.1097 82.6924 97.1505 82.6217C97.179 82.5725 97.1722 82.5114 97.1647 82.4551C97.0452 81.5681 96.9257 80.6811 96.8062 79.794C96.7949 79.7101 96.7819 79.6219 96.7305 79.5545ZM99.6955 79.9357C99.5949 80.0728 99.5737 80.2513 99.565 80.4211C99.5351 81.0033 99.6122 81.5851 99.6892 82.163C99.7195 82.3907 99.8236 82.6833 100.053 82.6678C100.285 82.6521 100.346 82.3414 100.34 82.1087C100.326 81.4923 100.312 80.8759 100.297 80.2595C100.294 80.0974 100.277 79.9096 100.142 79.8192C100.001 79.7243 99.7961 79.7986 99.6955 79.9357ZM92.6792 79.79C92.6792 79.79 92.7812 80.5945 92.8168 81.0044C92.8615 81.5189 92.9184 82.0324 92.9875 82.5443C92.9975 82.6186 93.0109 82.6991 93.0657 82.7503C93.1608 82.839 93.5275 82.7801 93.5951 82.669C93.6627 82.5579 93.6589 82.4192 93.653 82.2893C93.6344 81.8784 93.6158 81.4675 93.5972 81.0567C93.5772 80.6163 93.4725 79.6665 93.4725 79.6665M91.3489 82.7029C91.3782 82.795 91.4128 82.8915 91.4873 82.9531C91.6327 83.0734 91.8685 82.999 91.9831 82.8491C92.0978 82.6991 92.1236 82.5016 92.1455 82.3142C92.1724 82.0842 92.1984 81.8451 92.1239 81.6259C92.0494 81.4066 91.8433 81.2137 91.6126 81.234C91.4004 81.2528 91.2361 81.4466 91.1866 81.6538C91.1371 81.8609 91.1788 82.0782 91.2303 82.2849C91.2654 82.4254 91.3049 82.5648 91.3489 82.7029Z" fill="#E7EAEE"/>
<path fill-rule="evenodd" clip-rule="evenodd" d="M105.225 49.7619C104.949 50.1767 104.649 50.597 104.222 50.8531C103.794 51.1092 103.204 51.1591 102.819 50.8416C102.396 50.4913 102.369 49.8597 102.403 49.3108C102.416 49.0995 102.433 48.8864 102.493 48.6835C102.598 48.3317 102.828 48.0314 103.067 47.7529C103.358 47.4151 103.679 47.0893 104.082 46.8992C104.485 46.7091 104.986 46.6757 105.363 46.9122C105.815 47.1953 105.982 47.7976 105.897 48.3239C105.811 48.8502 105.521 49.3181 105.225 49.7619ZM104.348 50.2008C104.696 49.8296 104.995 49.4119 105.234 48.9623C105.391 48.6664 105.525 48.3448 105.519 48.0098C105.512 47.6748 105.336 47.3247 105.024 47.2004C104.619 47.0385 104.174 47.2975 103.836 47.5727C103.595 47.7686 103.361 47.9835 103.207 48.2529C103.109 48.4233 103.045 48.6107 102.982 48.7968C102.863 49.1489 102.742 49.5157 102.788 49.8845C102.833 50.2534 103.097 50.6237 103.467 50.6619C103.809 50.6973 104.112 50.4516 104.348 50.2008Z" fill="#AE93CD"/>
<path fill-rule="evenodd" clip-rule="evenodd" d="M34.0353 54.4504C34.4682 54.8889 34.8256 55.4019 35.087 55.9599C35.3498 56.5208 35.0849 57.2415 34.5693 57.5846C34.0536 57.9277 33.3565 57.9232 32.7911 57.6704C32.2258 57.4175 31.7815 56.9456 31.4543 56.4198C31.2076 56.0234 31.0163 55.5791 30.9958 55.1126C30.9753 54.6461 31.147 54.1552 31.516 53.8691C31.8893 53.5798 32.4141 53.5385 32.8655 53.6773C33.3168 53.8162 33.7035 54.1143 34.0353 54.4504M32.3461 54.1837C31.9715 54.1452 31.6387 54.489 31.5744 54.86C31.5102 55.2311 31.6516 55.6076 31.8347 55.9367C32.2316 56.6504 32.9397 57.2843 33.7554 57.2448C34.1747 57.2245 34.6343 56.9341 34.6268 56.5144C34.6236 56.3329 34.5341 56.1654 34.4446 56.0074C34.2071 55.5878 33.9505 55.1724 33.6078 54.8331C33.2651 54.4938 32.8258 54.2331 32.3461 54.1837Z" fill="#AE93CD"/>
<path fill-rule="evenodd" clip-rule="evenodd" d="M66.769 109.658C67.0697 109.429 67.4437 109.282 67.8206 109.306C68.1975 109.33 68.5706 109.546 68.7282 109.89C68.8974 110.258 68.792 110.716 68.528 111.023C68.264 111.331 67.8662 111.501 67.4648 111.557C67.1908 111.595 66.8642 111.561 66.7142 111.328C66.6418 111.216 66.6254 111.078 66.6108 110.945C66.5847 110.707 66.5586 110.469 66.5325 110.231C66.5214 110.13 66.5107 110.025 66.5432 109.929C66.5813 109.816 66.6739 109.73 66.769 109.658M67.9587 110.343C68.0024 110.309 68.0482 110.273 68.0672 110.221C68.1283 110.056 67.8888 109.945 67.7122 109.949C67.4558 109.955 67.1271 110.128 67.2056 110.372C67.251 110.513 67.4249 110.579 67.571 110.553C67.7171 110.527 67.841 110.433 67.9587 110.343H67.9587Z" fill="#00160A"/>
<path d="M121.828 70.5723C122.199 69.9791 123.012 69.7932 123.693 69.9512C124.375 70.1093 124.957 70.5384 125.518 70.957C127.724 72.6047 129.93 74.2527 132.136 75.9004C133.32 76.7847 134.627 77.9145 134.559 79.3906C134.521 80.2072 134.054 80.9331 133.602 81.6143C131.853 84.2486 130.105 86.8832 128.356 89.5176C127.372 91.0017 127.643 92.9509 127.346 94.707C126.875 97.4819 124.973 99.7614 123.211 101.956C121.449 104.151 119.686 106.601 119.587 109.413C119.469 112.765 117.876 116.04 115.312 118.202C116.055 116.398 116.799 114.593 117.543 112.789C118.074 111.502 118.565 109.9 117.677 108.827C117.275 108.342 116.668 108.085 116.085 107.846C114.93 107.372 113.774 106.898 112.619 106.424C112.38 106.326 112.133 106.226 111.875 106.225C111.07 106.22 110.591 107.093 110.265 107.829C109.135 110.375 107.693 112.782 105.98 114.979C106.865 111.849 108.535 109.009 110.188 106.209C110.467 105.736 110.813 105.214 111.355 105.124C111.569 105.089 111.682 104.856 111.755 104.652C112.651 102.138 112.738 99.3415 111.998 96.7764C111.787 96.0443 112.048 95.268 112.305 94.5508C112.968 92.6997 113.631 90.8481 114.295 88.9971C113.915 88.3395 112.913 88.3585 112.399 87.7988C111.739 87.0786 112.236 85.9336 112.754 85.1045C115.779 80.2606 118.803 75.4162 121.828 70.5723ZM80.8574 51.5996C81.577 59.1718 79.9907 66.7525 78.4131 74.1934C86.4182 73.4173 94.4236 72.6413 102.429 71.8652C102.658 71.843 102.909 71.8265 103.1 71.9561C103.354 72.1291 103.394 72.4817 103.408 72.7891C103.782 80.664 104.009 88.5463 104.089 96.4297C104.091 96.6272 104.083 96.8471 103.944 96.9873C103.825 97.1073 103.643 97.1327 103.475 97.1514C92.2591 98.395 81.0436 99.6392 69.8281 100.883C68.8583 100.99 67.4765 100.739 67.5332 99.7646C67.7865 95.421 67.6382 91.0539 67.0918 86.7373C64.1112 86.6251 61.11 87.0768 58.2949 88.0625C57.6563 88.2862 56.889 88.8883 57.2334 89.4707C59.5118 93.3241 56.6836 99.116 59.7783 102.351C60.8425 103.463 60.7695 105.212 60.5586 106.737C60.1065 110.006 59.3383 113.23 58.2686 116.352C58.7857 112.759 59.3032 109.166 59.8203 105.573C59.9203 104.879 60.008 104.121 59.6465 103.52C59.3124 102.964 58.6726 102.679 58.0615 102.463C56.13 101.779 54.0749 101.446 52.0264 101.485C51.401 101.497 50.7321 101.561 50.2451 101.953C49.6344 102.445 49.487 103.301 49.3818 104.078C48.9321 107.401 48.4819 110.725 48.0322 114.048C47.69 113.769 47.581 113.299 47.5205 112.861C46.821 107.8 49.8252 102.805 49.29 97.7236C49.0142 95.1053 47.8047 92.6624 46.2832 90.5137C45.2325 89.0298 45.1734 87.0411 45.5654 85.2656C45.9575 83.4902 46.7489 81.83 47.2822 80.0918C49.6539 72.3619 46.7674 64.1035 43.9141 56.5381C49.5999 53.8022 56.2352 54.3325 62.5342 54.7031C68.8331 55.0738 75.6075 55.0999 80.8574 51.5996ZM122.677 85.3311C122.208 85.9318 122.009 86.6941 121.821 87.4326C121.45 88.894 121.078 90.356 120.707 91.8174C120.204 93.7991 119.56 95.9774 117.814 97.042C117.675 97.1268 117.514 97.2055 117.355 97.168C117.159 97.121 117.047 96.9182 116.965 96.7334C115.851 94.2237 115.712 91.2955 116.583 88.6914C116.636 88.5334 116.475 88.3686 116.309 88.3555C116.143 88.3425 115.988 88.4324 115.852 88.5283C114.422 89.537 113.874 91.3644 113.419 93.0537C113.217 93.8024 113.016 94.5511 112.814 95.2998C112.726 95.6279 112.638 95.9595 112.619 96.2988C112.585 96.9338 112.797 97.5519 112.951 98.1689C113.533 100.503 113.269 103.037 112.222 105.202C112.067 105.521 112.475 105.811 112.808 105.935C114.33 106.498 115.853 107.063 117.376 107.627C117.97 107.847 118.807 107.98 119.089 107.412C120.452 104.665 121.852 101.865 124.021 99.6973C125.272 98.4479 126.038 96.7808 126.472 95.0674C126.905 93.3539 127.028 91.5788 127.149 89.8154C126.623 90.0072 126.578 90.7172 126.58 91.2773C126.585 92.5123 126.369 93.7481 125.945 94.9082C125.857 95.151 125.737 95.4132 125.5 95.5156C125.263 95.618 124.914 95.4128 124.993 95.167C125.605 93.2798 125.833 91.2684 125.659 89.292C125.605 88.6793 125.491 88.024 125.056 87.5898C125.103 88.5573 125.151 89.5295 125.053 90.4932C124.883 92.1603 124.285 93.7498 123.692 95.3174C123.615 95.5209 123.522 95.7432 123.327 95.8389C123.132 95.9345 122.828 95.7828 122.879 95.5713C123.175 94.3486 123.471 93.126 123.767 91.9033C124.254 89.8864 124.734 87.7169 123.979 85.7842C123.599 85.7591 123.509 86.302 123.543 86.6816C123.776 89.2826 123.057 91.8646 122.345 94.377C122.262 94.6703 121.967 95.0377 121.738 94.8359C121.64 94.749 121.636 94.5989 121.644 94.4678C121.702 93.4995 122.032 92.5714 122.277 91.6328C122.812 89.5839 122.949 87.4311 122.677 85.3311ZM48.6689 79.0498C48.062 79.7912 47.7905 80.7438 47.5342 81.667C47.1284 83.1288 46.7222 84.5909 46.3164 86.0527C46.1786 86.5491 46.04 87.0555 46.0566 87.5703C46.0816 88.3411 46.4503 89.0534 46.8105 89.7354C47.6241 91.2753 48.4375 92.8155 49.251 94.3555C50.1375 96.0337 50.0698 98.0286 50.1523 99.9248C50.1617 100.14 50.1762 100.364 50.2842 100.551C50.3924 100.737 50.6253 100.871 50.8271 100.795C51.8713 100.403 53.0326 100.587 54.1318 100.776C55.2383 100.967 56.3447 101.159 57.4512 101.35C57.737 101.399 57.988 101.109 58.0195 100.82C58.0509 100.532 57.9331 100.25 57.8398 99.9756C57.0172 97.5518 58.0098 94.8653 57.5645 92.3447C57.1424 89.9559 55.4932 87.996 53.9053 86.1621C53.4632 85.6514 53.6007 84.8827 53.7021 84.2148C53.8638 83.1501 53.8643 82.0601 53.7041 80.9951C53.6434 80.5917 53.5397 80.1575 53.2207 79.9033C52.8036 79.5711 52.1541 79.6922 51.7559 80.0469C51.3577 80.4018 51.1608 80.9287 51.0244 81.4443C50.5267 83.3264 50.6383 85.3452 49.998 87.1836C49.9097 87.4372 49.7827 87.7117 49.5322 87.8086C49.2816 87.9053 48.9301 87.6558 49.0449 87.4131C50.2892 84.7889 50.1437 81.5517 48.6689 79.0498ZM102.795 72.4229C99.0562 73.1445 95.251 73.5243 91.4434 73.5557C90.558 73.563 89.6768 73.6685 88.7979 73.7744C85.4649 74.1758 82.1318 74.5771 78.7988 74.9785C78.6647 74.9947 78.5221 75.0146 78.417 75.0996C78.3096 75.1866 78.2617 75.3258 78.2246 75.459C78.025 76.1764 78.0062 76.9437 78.1709 77.6699C81.7205 76.5731 85.9305 78.318 87.6631 81.6045C89.2785 84.6691 89.1242 88.6279 87.1543 91.4775C85.1842 94.3272 81.4393 95.8747 78.0605 95.1094C74.6821 94.3439 71.9338 91.237 71.7236 87.7793C71.7016 87.4168 71.2644 87.2576 70.9082 87.1865C70.0349 87.0124 69.1613 86.8382 68.2881 86.6641C68.1829 86.6431 68.0664 86.6239 67.9736 86.6777C67.8339 86.759 67.8238 86.9537 67.8311 87.1152C68.0181 91.2858 68.2055 95.4564 68.3926 99.627C68.3972 99.7298 68.4034 99.8382 68.459 99.9248C68.5514 100.068 68.7431 100.104 68.9131 100.12C69.8516 100.21 70.798 100.138 71.7373 100.058C82.2243 99.1585 92.6069 97.0508 103.128 96.7441C103.499 96.7333 103.613 96.2402 103.614 95.8691C103.649 88.047 103.376 80.2235 102.795 72.4229ZM117.217 90.2188C117.117 90.1462 116.968 90.1895 116.885 90.2803C116.801 90.3712 116.767 90.4958 116.735 90.6152C116.658 90.9091 116.58 91.2061 116.568 91.5098C116.557 91.8134 116.612 92.1152 116.667 92.4141C116.848 93.3978 117.029 94.3815 117.21 95.3652C117.233 95.4888 117.259 95.6208 117.347 95.7109C117.434 95.8011 117.606 95.8207 117.677 95.7168C118.48 94.5414 119.295 93.3428 119.716 91.9824C119.768 91.8134 119.783 91.5762 119.618 91.5137C118.765 91.1925 117.954 90.7556 117.217 90.2188ZM72.8076 87.8027C72.7465 87.8029 72.6821 87.8036 72.6279 87.832C72.5051 87.8966 72.4904 88.0646 72.499 88.2031C72.5683 89.3173 73.137 90.3305 73.6924 91.2988C73.7801 91.4517 73.8747 91.6115 74.0264 91.7012C74.1783 91.7908 74.4066 91.7791 74.499 91.6289C74.8727 91.0213 75.3163 90.456 75.8184 89.9492C76.0253 89.7397 75.9649 89.3874 75.8408 89.1201C75.7167 88.8529 75.5398 88.5892 75.5537 88.2949C75.5618 88.1258 75.612 87.9089 75.4648 87.8252C75.4134 87.796 75.3512 87.7947 75.292 87.7949C74.464 87.7974 73.6356 87.8002 72.8076 87.8027ZM84.4355 83.4883C83.2955 81.7902 80.9681 80.999 79.0293 81.6504C78.7898 81.7309 78.5307 81.8575 78.4521 82.0977C78.4076 82.2343 78.4311 82.383 78.457 82.5244C78.743 84.0846 79.2597 85.6022 79.9854 87.0127C79.1901 87.102 78.3949 87.1919 77.5996 87.2812C77.2691 87.3184 76.9258 87.3589 76.6426 87.5332C76.3594 87.7076 76.1542 88.0564 76.2529 88.374C76.7365 89.9296 78.1477 91.2585 79.7764 91.292C80.5313 91.3075 81.2683 91.0568 81.9502 90.7324C82.7499 90.352 83.5095 89.8573 84.0889 89.1875C85.4267 87.6405 85.5755 85.1864 84.4355 83.4883ZM123.44 70.7256C123.307 70.7607 123.214 70.8761 123.13 70.9854C119.564 75.64 116.363 80.5752 113.567 85.7295C113.178 86.4485 113.699 87.3053 114.198 87.9531C114.448 88.2768 114.93 88.6193 115.202 88.3145C115.545 87.9301 116.107 87.7102 116.593 87.8818C117.078 88.0535 117.38 88.6847 117.116 89.127C116.925 89.4467 117.299 89.8024 117.626 89.9814C118.279 90.3391 118.949 90.6662 119.633 90.9609C119.728 91.0019 119.838 91.0414 119.931 90.9951C120.019 90.9509 120.055 90.8465 120.082 90.752C120.334 89.8834 120.587 89.015 120.84 88.1465C120.964 87.7179 121.047 87.1613 120.68 86.9082C120.331 86.6683 119.983 86.4284 119.635 86.1885C119.396 86.0243 119.141 85.8365 119.067 85.5566C118.955 85.1276 119.363 84.6965 119.803 84.6387C120.243 84.5809 120.673 84.7939 121.038 85.0469C121.552 85.403 122.202 84.8591 122.587 84.3662C122.068 84.0558 121.573 83.574 121.553 82.9697C121.533 82.3656 122.267 81.79 122.756 82.1455C123.23 82.4902 123.952 82.5014 124.263 82.998C124.475 83.3368 124.4 83.7946 124.184 84.1309C123.968 84.4671 123.635 84.7082 123.311 84.9414C123.776 84.9876 124.23 85.1543 124.615 85.4199C124.755 85.0119 124.896 84.6034 125.036 84.1953C125.069 84.1005 125.104 84.0015 125.179 83.9346C125.323 83.8055 125.546 83.8449 125.73 83.9033C126.214 84.0568 126.689 84.297 127.008 84.6914C127.327 85.0859 127.46 85.6584 127.237 86.1143C127.014 86.5701 126.385 86.8138 125.958 86.5391C125.633 86.3295 125.302 85.8609 124.986 86.085C125.687 86.6308 126.169 87.451 126.304 88.3291C128.51 84.9677 130.694 81.5904 132.854 78.1982C133.06 77.8744 133.225 77.3639 132.89 77.1777C129.646 75.3782 127.254 72.1978 123.822 70.79C123.701 70.7402 123.567 70.6921 123.44 70.7256ZM133.183 78.8838C133.082 78.8493 132.99 78.9498 132.931 79.0381C131.041 81.8675 129.15 84.697 127.26 87.5264C127.107 87.7547 126.952 87.9927 126.907 88.2637C126.863 88.5346 126.962 88.8491 127.209 88.9697C127.617 89.1693 128.045 88.7503 128.307 88.3789C130.063 85.8899 131.819 83.4001 133.575 80.9111C133.966 80.3568 133.634 79.5988 133.3 79.0088C133.271 78.958 133.238 78.9029 133.183 78.8838ZM80.1582 52.7559C76.8818 55.1187 72.6075 55.5016 68.5684 55.5576C61.2801 55.6587 53.9413 54.9671 46.7295 56.0244C45.9733 56.1353 44.9879 56.6084 45.2158 57.3379C46.8151 62.4538 48.4246 67.6185 48.8926 72.958C49.1375 75.7527 49.0953 78.6868 50.3857 81.1777C50.3496 79.7613 52.1191 78.6545 53.377 79.3066C53.1622 77.6399 52.9472 75.9724 52.7324 74.3057C52.651 73.6744 52.3985 72.8764 51.7627 72.8535C52.1581 72.2844 52.9714 72.0504 53.6084 72.3232C53.7149 72.3689 53.8233 72.4339 53.8721 72.5391C53.953 72.7139 53.8417 72.912 53.751 73.082C53.2773 73.9699 53.3224 75.112 53.8643 75.96C54.7626 75.2861 55.6888 74.5977 56.7715 74.2998C57.8543 74.0019 59.1445 74.1805 59.8799 75.0293C60.2517 75.4584 61.0086 75.2631 61.3477 74.8076C61.6866 74.3522 61.7358 73.7522 61.8105 73.1895C61.8853 72.6266 62.0264 72.018 62.4727 71.667C62.9948 71.2564 63.7933 71.3571 64.3223 71.7588C64.8511 72.1605 65.1519 72.7959 65.334 73.4346C65.4814 73.9517 65.6271 74.5658 66.123 74.7734C66.5046 74.9329 66.9423 74.7736 67.3057 74.5762C68.1925 74.0942 68.9349 73.3888 69.7656 72.8154C70.5964 72.242 71.5863 71.7893 72.5869 71.9229C73.5876 72.0566 74.528 72.9674 74.3848 73.9668C74.1578 75.5498 74.1855 77.169 74.4668 78.7432C67.8128 79.4347 61.1338 79.8858 54.4473 80.0947C54.3242 80.0986 54.2924 80.2656 54.2979 80.3887C54.3492 81.5312 54.3999 82.6739 54.4512 83.8164C54.4879 84.6336 54.5277 85.465 54.8027 86.2354C55.0779 87.0058 55.6293 87.7207 56.4023 87.9883C56.5625 88.0437 56.7445 88.0778 56.8975 88.0049C60.7145 86.1838 65.0803 85.5316 69.2627 86.1592C70.5559 86.3532 71.8304 86.6663 73.1289 86.8213C74.8556 87.0274 76.6161 86.9508 78.3184 86.5957C78.5507 86.5471 78.8475 86.3808 78.7607 86.1602C76.691 80.9182 77.427 75.0222 78.5088 69.4912C79.5906 63.9601 80.9943 58.3294 80.1582 52.7559ZM120.187 85.082C119.996 85.0255 119.76 84.9865 119.626 85.1328C119.514 85.255 119.537 85.4571 119.634 85.5918C119.73 85.7263 119.882 85.8092 120.027 85.8877C120.28 86.024 120.534 86.1606 120.787 86.2969C120.931 86.3746 121.115 86.4513 121.249 86.3564C121.36 86.2775 121.375 86.116 121.344 85.9834C121.227 85.4838 120.678 85.2284 120.187 85.082ZM125.612 84.5156C125.596 84.5255 125.584 84.5404 125.572 84.5557C125.411 84.771 125.427 85.0845 125.562 85.3174C125.696 85.5501 125.929 85.7112 126.174 85.8213C126.258 85.859 126.35 85.893 126.44 85.875C126.518 85.8595 126.584 85.8065 126.632 85.7432C126.807 85.5087 126.722 85.1554 126.521 84.9424C126.32 84.7295 126.034 84.6233 125.759 84.5234C125.711 84.5062 125.656 84.4896 125.612 84.5156ZM84.4082 78.9121C82.9359 78.0169 81.1295 77.6864 79.4355 78.002C79.0637 78.0712 78.6756 78.1833 78.4209 78.4629C77.8398 79.1013 78.2759 80.099 78.3271 80.9609C79.9887 80.6789 81.764 80.8571 83.2344 81.6807C84.7048 82.5043 85.8234 84.0227 85.9521 85.7031C86.6101 85.7159 87.2673 85.7716 87.918 85.8701C87.8781 84.8713 87.7945 83.865 87.5049 82.9082C87.0056 81.259 85.8805 79.8074 84.4082 78.9121ZM116.44 82.7979C116.687 82.6562 117.015 82.6171 117.25 82.7773C117.635 83.0396 118.26 82.98 118.46 83.4004C118.611 83.7181 118.394 84.0806 118.188 84.3652C118.064 84.5356 117.94 84.7066 117.816 84.877C117.743 84.9778 117.659 85.0862 117.537 85.1133C117.415 85.1404 117.292 85.0775 117.183 85.0166C116.701 84.7482 116.22 84.4793 115.738 84.2109C115.6 84.1341 115.555 83.9483 115.593 83.7949C115.631 83.6415 115.732 83.5129 115.831 83.3896C116.009 83.1675 116.194 82.9397 116.44 82.7979ZM116.986 83.4209C116.66 83.3886 116.301 83.4912 116.111 83.7588C116.439 83.9257 116.768 84.0928 117.096 84.2598C117.165 84.2952 117.243 84.3315 117.318 84.3115C117.375 84.2966 117.418 84.253 117.459 84.2109C117.61 84.0544 117.76 83.8977 117.911 83.7412C117.616 83.5984 117.313 83.4533 116.986 83.4209ZM126.19 81.0879C126.471 80.8764 126.867 81.0529 127.169 81.2324C127.489 81.4228 127.809 81.6134 128.129 81.8037C128.282 81.8946 128.438 81.9889 128.548 82.1289C128.658 82.2691 128.711 82.4683 128.635 82.6289C128.541 82.8237 128.297 82.8996 128.173 83.0762C128.01 83.3068 128.078 83.6692 127.86 83.8486C127.639 84.0306 127.311 83.8846 127.066 83.7354C126.616 83.4599 126.165 83.1837 125.714 82.9082C125.578 82.8249 125.433 82.7339 125.366 82.5889C125.299 82.4437 125.354 82.2313 125.51 82.1943C125.948 82.0897 125.831 81.3597 126.19 81.0879ZM122.482 82.4727C122.142 82.4379 121.944 82.9174 122.1 83.2227C122.255 83.5278 122.599 83.6792 122.917 83.8066C123.142 83.8966 123.415 83.981 123.61 83.8389C123.891 83.6346 123.74 83.1752 123.488 82.9355C123.216 82.6764 122.856 82.5109 122.482 82.4727ZM126.787 81.8584C126.701 81.8097 126.58 81.7657 126.513 81.8389C126.297 82.0743 126.266 82.4584 126.44 82.7256C126.615 82.9929 126.98 83.1186 127.282 83.0156C127.476 82.9495 127.632 82.8058 127.781 82.666C127.89 82.5647 127.744 82.3979 127.615 82.3252C127.339 82.1697 127.063 82.0139 126.787 81.8584ZM118.228 79.9932C118.246 79.7429 118.572 79.6186 118.811 79.6963C119.049 79.774 119.222 79.976 119.402 80.1504C119.583 80.3247 119.814 80.4882 120.062 80.4541C120.378 80.4106 120.642 80.7499 120.637 81.0684C120.631 81.3869 120.441 81.67 120.243 81.9199C120.046 82.1699 119.828 82.4207 119.75 82.7295C119.72 82.848 119.587 82.9175 119.465 82.915C119.342 82.9125 119.228 82.8547 119.121 82.7959C118.523 82.4687 117.969 82.0615 117.479 81.5879C117.371 81.4828 117.266 81.297 117.382 81.2002C117.77 80.8769 118.189 80.4972 118.228 79.9932ZM123.657 79.0098C123.834 79.007 123.994 79.11 124.141 79.209C124.595 79.5149 125.049 79.821 125.503 80.127C125.58 80.1791 125.659 80.2333 125.713 80.3096C125.867 80.5298 125.756 80.8308 125.642 81.0742C125.517 81.3393 125.392 81.605 125.268 81.8701C125.218 81.9745 125.163 82.0856 125.062 82.1406C124.889 82.2343 124.68 82.1235 124.516 82.0156C123.821 81.5599 123.126 81.1042 122.432 80.6484C122.232 80.5172 122.352 80.2058 122.498 80.0166C122.69 79.768 122.9 79.5318 123.123 79.3105C123.272 79.163 123.448 79.0132 123.657 79.0098ZM119.092 80.6133C118.871 80.5341 118.601 80.5467 118.428 80.7051C118.254 80.8636 118.239 81.1857 118.434 81.3174C118.689 81.4898 118.943 81.6625 119.198 81.835C119.245 81.8667 119.298 81.8998 119.354 81.8926C119.407 81.8857 119.449 81.8451 119.485 81.8066C119.593 81.6942 119.703 81.5773 119.757 81.4316C119.811 81.2858 119.794 81.1019 119.676 81.001C119.497 80.8485 119.313 80.6926 119.092 80.6133ZM123.794 79.9395C123.626 79.8689 123.423 79.847 123.267 79.9414C123.11 80.0361 123.04 80.275 123.163 80.4102C123.533 80.8164 124.015 81.1198 124.541 81.2783C124.627 81.3042 124.718 81.3267 124.806 81.3066C125.066 81.2468 125.1 80.8576 124.936 80.6475C124.77 80.4374 124.5 80.3471 124.268 80.2148C124.109 80.1244 123.962 80.0102 123.794 79.9395ZM123.097 72.2734C123.321 72.2915 123.517 72.4271 123.701 72.5576C126.075 74.2429 128.45 75.928 130.824 77.6133C130.963 77.7116 131.111 77.8258 131.146 77.9922C131.173 78.1282 131.117 78.2662 131.06 78.3926C130.752 79.0701 130.399 79.7267 130.003 80.3564C129.913 80.4991 129.81 80.6501 129.652 80.709C129.504 80.7642 129.338 80.7262 129.187 80.6787C128.022 80.3126 127.106 79.432 126.177 78.6396C124.82 77.4826 123.348 76.4614 121.789 75.5957C121.631 75.5076 121.464 75.4149 121.367 75.2617C121.27 75.1086 121.273 74.8758 121.423 74.7734C122.122 74.2962 122.575 73.4765 122.608 72.6309C122.617 72.4057 122.872 72.2554 123.097 72.2734ZM120.024 77.0098C120.164 76.9796 120.305 77.0393 120.434 77.1016C121.133 77.4414 121.774 77.9023 122.319 78.457C122.45 78.5905 122.467 78.8056 122.409 78.9834C122.351 79.1613 122.23 79.3117 122.112 79.457C121.923 79.6906 121.72 79.9331 121.44 80.0439C121.139 80.1635 120.788 80.1059 120.502 79.9521C120.216 79.7982 119.986 79.5568 119.784 79.3027C119.52 78.9713 119.284 78.574 119.325 78.1523C119.352 77.8762 119.495 77.6265 119.635 77.3867C119.729 77.2258 119.842 77.0493 120.024 77.0098ZM122.527 74.7109C122.444 74.8586 122.371 75.0717 122.507 75.1738C124.444 76.6325 126.381 78.0921 128.318 79.5508C128.637 79.7904 129.131 80.0144 129.382 79.7051C129.67 79.3495 129.938 78.978 130.187 78.5938C130.254 78.4887 130.324 78.3688 130.3 78.2461C130.277 78.1341 130.183 78.0524 130.095 77.9805C127.962 76.251 125.703 74.6762 123.343 73.2725C123.071 73.7519 122.799 74.2315 122.527 74.7109ZM120.372 77.9932C120.19 77.9946 120.005 78.1824 120.079 78.3486C120.068 78.4292 120.418 79.071 120.858 79.2422C121.299 79.4133 121.58 79.2779 121.592 78.9893C121.599 78.8072 121.44 78.6668 121.296 78.5557C121.15 78.4436 121.004 78.3318 120.858 78.2197C120.714 78.1086 120.554 77.992 120.372 77.9932ZM63.6768 72.4668C63.5135 72.4174 63.3473 72.5341 63.2324 72.6602C62.7263 73.2153 62.6191 74.0122 62.4023 74.7314C62.1856 75.4506 61.7206 76.2182 60.9746 76.3047C59.9243 76.4262 59.2186 75.1565 58.1836 74.9404C57.4977 74.7973 56.8144 75.144 56.1992 75.4795C55.6081 75.8018 55.0058 76.1322 54.5449 76.623C54.084 77.114 53.7799 77.8018 53.9131 78.4619C53.9725 78.7563 54.137 79.0508 54.4131 79.1689C54.5592 79.2314 54.722 79.2395 54.8809 79.2451C57.3963 79.3336 59.9123 79.1405 62.4219 78.9473C66.0054 78.6714 69.5893 78.395 73.1729 78.1191C73.6095 77.0989 73.7242 75.9437 73.4971 74.8574C73.3486 74.1478 73.061 73.3987 73.3301 72.7256C71.7206 72.77 70.1324 73.385 68.9131 74.4365C68.3029 74.9628 67.713 75.6279 66.9121 75.7158C66.1687 75.7973 65.4578 75.3314 65.001 74.7393C64.5442 74.1472 64.2796 73.4336 63.9473 72.7637C63.886 72.6401 63.8086 72.5069 63.6768 72.4668ZM31.1309 41.1777C31.3573 41.1701 31.6058 41.3159 31.6309 41.541C32.0364 45.2067 33.1648 48.7915 34.9326 52.0283C36.0271 54.0323 37.3588 55.8953 38.6865 57.7529C39.6105 59.0457 40.5983 60.3934 42.04 61.0615C42.4232 61.2392 42.3694 61.7915 42.2666 62.2012C41.8219 63.9723 41.6144 65.8032 41.6514 67.6289C41.6549 67.8014 41.6596 67.981 41.5918 68.1396C41.3615 68.6776 40.5738 68.5883 40.0312 68.3682C36.6736 67.0051 34.0956 64.2636 31.6875 61.5557C28.5609 58.0398 25.4808 54.3693 23.6338 50.042C23.5082 49.7478 23.3862 49.4383 23.4072 49.1191C23.4286 48.7939 23.5952 48.4981 23.7646 48.2197C25.439 45.4697 27.7685 43.1214 30.5049 41.4248C30.6976 41.3053 30.9042 41.1856 31.1309 41.1777ZM72.6309 59.9551C72.835 59.7707 73.1282 59.6198 73.377 59.7373C73.6231 59.8537 73.6928 60.1652 73.7324 60.4346C73.9922 62.2018 74.252 63.9691 74.5117 65.7363C74.5215 65.8032 74.53 65.8766 74.4951 65.9346C74.4489 66.0111 74.3477 66.0296 74.2588 66.04C72.4192 66.2567 70.5688 66.3818 68.7168 66.4141C67.6504 66.4326 66.5825 66.4202 65.5166 66.457C60.7692 66.6213 56.1122 67.7518 51.3936 68.2988C51.0529 68.3383 50.6506 68.3518 50.4316 68.0879C50.0998 67.6878 50.4924 67.1083 50.8652 66.7461C51.7895 65.8485 52.7135 64.9503 53.6377 64.0527C54.0677 63.6352 54.5902 63.1854 55.1836 63.2695C55.673 63.3391 56.0281 63.7501 56.4111 64.0625C56.7943 64.3749 57.3789 64.5966 57.7588 64.2803C59.2378 63.0487 60.7869 61.9005 62.3955 60.8438C62.9512 60.4787 63.6292 60.1112 64.2471 60.3564C65.7782 60.965 67.316 61.558 68.8594 62.1348C69.3367 62.3132 69.848 62.4932 70.3457 62.3838C71.456 62.1396 71.7872 60.7172 72.6309 59.9551ZM40.5605 66.4023C40.4758 66.333 40.353 66.3448 40.2451 66.3633C39.896 66.423 39.5521 66.5152 39.2197 66.6377C39.168 66.6568 39.1127 66.6803 39.0859 66.7285C39.0322 66.8258 39.1287 66.9359 39.2168 67.0039C39.6817 67.3626 40.174 67.686 40.6875 67.9707C40.6787 67.5534 40.6699 67.1361 40.6611 66.7188C40.6587 66.6044 40.6491 66.4748 40.5605 66.4023ZM64.1172 61.1123C63.7049 60.9521 63.2566 61.2013 62.8877 61.4453C61.0907 62.6339 59.3547 63.9158 57.6904 65.2842C57.3514 65.563 56.8325 65.3662 56.4971 65.083C56.1617 64.7999 55.8651 64.426 55.4375 64.3271C54.8377 64.1886 54.2788 64.6458 53.832 65.0693C53.0185 65.8406 52.1993 66.6184 51.5527 67.5342C53.0656 67.5291 54.5575 67.2107 56.0449 66.9346C61.5609 65.9107 67.1809 65.4483 72.79 65.5566C73.1329 65.5633 73.4213 65.2651 73.5195 64.9365C73.6176 64.608 73.5695 64.2554 73.5205 63.916C73.4142 63.179 73.3075 62.4411 73.2012 61.7041C73.176 61.5296 73.1448 61.3427 73.0225 61.2158C72.9 61.0891 72.6535 61.0714 72.5684 61.2256C72.1313 62.0204 71.6121 62.8841 70.7441 63.1475C69.9975 63.374 69.2019 63.0883 68.4746 62.8057C67.0221 62.2412 65.5697 61.6767 64.1172 61.1123ZM108.602 62.4805C108.925 62.3516 109.294 62.4185 109.623 62.5332C110.226 62.7435 110.771 63.1133 111.19 63.5947C111.551 64.0085 111.826 64.5456 111.75 65.0889C111.722 65.2883 111.648 65.479 111.564 65.6621C111.247 66.3556 110.699 67.02 109.948 67.1543C109.554 67.2246 109.148 67.1406 108.77 67.0117C108.331 66.8627 107.914 66.653 107.532 66.3916C107.33 66.2529 107.128 66.0883 107.039 65.8594C106.978 65.7018 106.976 65.5283 106.979 65.3594C106.984 64.941 107.011 64.5152 107.157 64.123C107.342 63.6269 107.703 63.2171 108.086 62.8516C108.24 62.7045 108.404 62.5593 108.602 62.4805ZM109.802 63.127C109.562 63.0406 109.296 63.0171 109.051 63.085C108.918 63.1216 108.795 63.1841 108.679 63.2578C108.183 63.5734 107.834 64.1115 107.749 64.6934C107.665 65.2751 107.846 65.8903 108.231 66.334C108.479 66.618 108.881 66.7396 109.255 66.6924C109.628 66.6452 109.972 66.4445 110.239 66.1797C110.675 65.7488 110.928 65.1242 110.859 64.5156C110.79 63.9068 110.378 63.3349 109.802 63.127ZM28.5527 44.0488C28.4554 44.0627 28.3693 44.1174 28.2881 44.1729C27.447 44.7467 26.7354 45.51 26.2227 46.3896C26.1032 46.5946 25.9917 46.8402 26.0771 47.0615C26.4629 48.0576 26.4493 49.1576 26.4297 50.2256C26.4146 51.0472 26.3259 52.0059 25.6328 52.4473C27.0015 54.2059 28.3705 55.965 29.7393 57.7236C32.066 60.7132 34.4344 63.7434 37.4902 65.9824C37.656 66.1039 37.8551 66.2297 38.0537 66.1768C38.8975 65.9517 39.7412 65.726 40.585 65.501C40.6733 65.4774 40.7659 65.4518 40.834 65.3906C40.9253 65.3083 40.9546 65.179 40.9795 65.0586C41.1015 64.4692 41.1854 63.7557 40.7334 63.3584C39.7294 62.4756 40.2298 60.6896 39.373 59.6631C36.256 55.9282 33.5984 51.7303 32.1826 47.0762C32.0688 46.702 31.852 46.2424 31.4619 46.2695C30.437 46.3413 29.6892 45.3552 29.1455 44.4834C29.0079 44.2627 28.8102 44.0124 28.5527 44.0488ZM109.668 63.9512C109.978 63.9556 110.329 64.02 110.499 64.2793C110.651 64.5116 110.604 64.8223 110.503 65.0811C110.37 65.4221 110.144 65.7384 109.826 65.9199C109.508 66.1013 109.09 66.1284 108.78 65.9336C108.47 65.7385 108.314 65.304 108.48 64.9775C108.556 64.8301 108.684 64.7155 108.762 64.5693C108.823 64.4542 108.851 64.3213 108.926 64.2148C109.084 63.9915 109.395 63.9473 109.668 63.9512ZM109.807 64.4268C109.382 64.4214 108.983 64.7778 108.941 65.2002C108.924 65.3728 108.998 65.5875 109.17 65.6113C109.299 65.629 109.412 65.5296 109.498 65.4326C109.681 65.2274 109.838 64.999 109.965 64.7549C110.007 64.673 110.045 64.5676 109.989 64.4941C109.949 64.4408 109.874 64.4276 109.807 64.4268ZM40.9814 61.4209C40.9001 61.2953 40.7078 61.1862 40.6191 61.3066C40.5855 61.3523 40.5851 61.4142 40.5898 61.4707C40.6213 61.8484 40.807 62.2114 41.0947 62.458C41.2208 62.1203 41.1774 61.7235 40.9814 61.4209ZM107.955 33.3418C108.029 33.0609 108.384 32.9342 108.665 33.0078C108.946 33.0815 109.165 33.2959 109.367 33.5049C111.71 35.9305 113.56 38.8309 114.771 41.9785C114.854 42.1947 114.935 42.4348 114.855 42.6523C114.245 44.3279 113.066 45.7248 111.91 47.083C111.172 47.951 110.433 48.8196 109.694 49.6875C108.989 50.516 108.284 51.3447 107.556 52.1523C103.845 56.265 99.4599 59.8606 94.3818 62.0732C94.1902 62.1567 93.9847 62.2404 93.7783 62.207C93.5721 62.1735 93.3787 61.9733 93.4326 61.7715C94.0605 59.4246 94.6923 56.9704 94.1885 54.5938C94.067 54.0206 93.9317 53.299 94.4053 52.9541C98.2405 50.1613 101.002 46.1692 103.648 42.2314C104.314 41.2414 104.978 40.2484 105.566 39.2109C106.612 37.3689 107.417 35.3903 107.955 33.3418ZM96.6543 59.1348C96.224 58.8082 95.6227 58.722 95.1182 58.915C95.0251 58.9507 94.9324 58.9971 94.8682 59.0732C94.7929 59.1627 94.7653 59.2821 94.7412 59.3965C94.6193 59.9744 94.5231 60.5581 94.4531 61.1445C94.6738 61.2599 94.9413 61.1494 95.1621 61.0342C95.7424 60.7312 96.3019 60.3872 96.834 60.0059C96.9743 59.905 97.0165 59.7037 96.9668 59.5381C96.9171 59.3725 96.7921 59.2393 96.6543 59.1348ZM59.6445 59.6592C59.8053 59.641 59.9765 59.6249 60.1211 59.6973C60.2658 59.7697 60.3592 59.9682 60.2646 60.0996C60.1949 60.1963 60.0611 60.216 59.9424 60.2275C56.9095 60.5218 53.8766 60.816 50.8438 61.1104C50.6546 61.1287 50.3857 61.0741 50.4023 60.8848C50.4154 60.737 50.6006 60.6837 50.748 60.667C53.7134 60.3312 56.6792 59.995 59.6445 59.6592ZM54.5381 58.5898C54.8257 58.5814 55.2101 58.6564 55.2305 58.9434C53.7104 59.1598 52.19 59.3763 50.6699 59.5928C50.4242 59.6278 50.1489 59.6558 49.9512 59.5059C49.7535 59.3558 49.7732 58.9587 50.0195 58.9287C51.5195 58.7473 53.0278 58.6342 54.5381 58.5898ZM111.18 36.4873C110.095 36.9579 108.82 36.9684 107.728 36.5166C107.49 36.4185 107.27 36.6849 107.148 36.9121C104.59 41.7072 102.062 46.6467 98.1631 50.4326C97.8136 50.7719 97.423 51.1822 97.4873 51.665C97.6938 53.213 96.867 54.8481 95.498 55.5996C94.8768 55.9409 94.8846 56.8214 94.9756 57.5244C95.0121 57.8057 95.118 58.1585 95.4004 58.1826C96.23 58.2525 97.0266 58.6609 97.5674 59.2939C97.738 59.4931 98.061 59.3682 98.2832 59.2285C103.88 55.7102 108.18 50.5133 112.379 45.4072C112.524 45.2311 112.678 45.0091 112.603 44.7939C111.967 42.9841 112.069 40.9267 112.88 39.1885C112.401 38.2364 111.831 37.3305 111.18 36.4873ZM119.36 51.2471C119.553 51.2518 119.751 51.2611 119.926 51.3408C120.412 51.5629 120.516 52.1988 120.532 52.7334C120.547 53.22 120.544 53.7133 120.426 54.1855C120.307 54.6577 120.063 55.1126 119.672 55.4023C119.496 55.5326 119.292 55.6279 119.076 55.6641C118.743 55.7198 118.402 55.6335 118.085 55.5156C117.663 55.3585 117.262 55.1432 116.898 54.877C116.721 54.7468 116.537 54.5756 116.531 54.3555C116.518 53.8481 116.575 53.3387 116.7 52.8467C116.78 52.5323 116.89 52.2179 117.092 51.9639C117.604 51.3192 118.537 51.227 119.36 51.2471ZM119.464 51.7266C119.072 51.6202 118.655 51.606 118.257 51.6855C118.059 51.7251 117.856 51.7929 117.717 51.9395C117.641 52.0193 117.589 52.1186 117.537 52.2158C117.409 52.4582 117.281 52.701 117.152 52.9434C117.085 53.0712 117.016 53.2007 116.977 53.3398C116.858 53.756 117.015 54.2182 117.306 54.5391C117.596 54.86 118.004 55.0553 118.42 55.1748C119.077 55.3633 119.776 54.8554 120.025 54.2188C120.274 53.5819 120.182 52.8662 120.045 52.1963C119.992 51.9391 119.717 51.7953 119.464 51.7266ZM117.962 53.0195C118.343 52.7026 118.808 52.3646 119.288 52.4883C119.666 52.5858 119.925 52.9679 119.958 53.3564C119.991 53.745 119.83 54.1295 119.598 54.4424C119.511 54.5588 119.41 54.6702 119.282 54.7383C119.031 54.8717 118.711 54.8119 118.472 54.6582C118.232 54.5044 118.057 54.2706 117.893 54.0381C117.749 53.835 117.604 53.5876 117.685 53.3525C117.732 53.2141 117.849 53.1132 117.962 53.0195ZM96.5303 52.1357C96.4464 52.1263 96.3657 52.1708 96.2969 52.2197C96.0365 52.4049 95.8467 52.6708 95.6621 52.9316C95.4945 53.1684 95.3268 53.4058 95.1592 53.6426C95.0501 53.7967 94.9356 53.9678 94.9482 54.1562C94.9653 54.4098 95.2284 54.5998 95.4824 54.5928C95.7364 54.5856 95.9649 54.421 96.1133 54.2148C96.2617 54.0086 96.3436 53.7629 96.4229 53.5215C96.5102 53.2557 96.5973 52.9894 96.6846 52.7236C96.7574 52.5015 96.7622 52.1622 96.5303 52.1357ZM119.493 53.2168C119.319 53.0252 119.036 52.9392 118.784 53.001C118.532 53.0628 118.322 53.2697 118.256 53.5205C118.193 53.7587 118.264 54.0303 118.443 54.1992C118.563 54.3118 118.732 54.3769 118.895 54.3525C119.123 54.318 119.296 54.1166 119.376 53.8994C119.456 53.6822 119.464 53.4465 119.493 53.2168ZM25.5283 47.6465C25.4625 47.5835 25.3538 47.627 25.2793 47.6797C24.7281 48.0707 24.5017 48.8011 24.543 49.4756C24.5844 50.1502 24.8512 50.7885 25.1143 51.4111C25.1442 51.4819 25.1952 51.5657 25.2715 51.5566C25.6364 51.234 25.6736 50.6872 25.6846 50.2002C25.6902 49.9488 25.6955 49.6968 25.7012 49.4453C25.714 48.8751 25.7258 48.2955 25.5762 47.7451C25.5665 47.7096 25.5548 47.672 25.5283 47.6465ZM30.9023 42.2471C30.7931 42.1511 30.6228 42.2016 30.4912 42.2637C30.1321 42.4331 29.7979 42.6551 29.502 42.9199C29.3821 43.0272 29.2615 43.1553 29.2461 43.3154C29.2319 43.4627 29.31 43.6016 29.3906 43.7256C29.7636 44.2988 30.248 44.7997 30.8086 45.1914C30.9365 45.2808 31.0794 45.3677 31.2354 45.3633C31.3914 45.3587 31.5521 45.2204 31.5215 45.0674C31.3489 44.2044 31.1755 43.3415 31.0029 42.4785C30.9861 42.3946 30.9666 42.3036 30.9023 42.2471ZM113.184 39.7686C112.776 40.5787 112.841 41.5357 112.915 42.4395C112.95 42.8716 112.986 43.3042 113.021 43.7363C113.033 43.8789 113.111 44.0707 113.248 44.0312C113.408 43.5838 113.839 43.2832 114.036 42.8506C114.347 42.1669 114.002 41.3786 113.662 40.709C113.503 40.3954 113.343 40.0821 113.184 39.7686ZM108.493 33.4912C108.077 33.8582 108.226 34.5471 107.982 35.0459C107.889 35.2377 107.735 35.4059 107.698 35.6162C107.662 35.8266 107.84 36.0901 108.042 36.0205C108.293 35.9344 108.562 36.0649 108.826 36.082C109.359 36.1164 109.802 35.6984 110.17 35.3115C109.79 34.568 109.203 33.9312 108.493 33.4912Z" fill="#00160A"/>
<defs>
<linearGradient id="paint0_linear_2018_1137" x1="22.3535" y1="34.6709" x2="127.031" y2="117.442" gradientUnits="userSpaceOnUse">
<stop offset="0.149038" stop-color="#320863"/>
<stop offset="0.774038" stop-color="#D8C1F3"/>
</linearGradient>
</defs>
</svg>
