<svg width="150" height="151" viewBox="0 0 150 151" fill="none" xmlns="http://www.w3.org/2000/svg">
<path fill-rule="evenodd" clip-rule="evenodd" d="M92.8824 31.4159C93.1173 22.6928 82.0771 7.8013 63.9908 10.3959C44.1889 13.2365 29.8207 35.9896 32.683 61.4202L32.792 62.397C34.5492 78.2807 35.1363 90.793 32.1002 108.412C29.8303 121.584 45.972 150.748 81.6779 146.135C117.384 141.521 136.996 98.706 120.147 78.504C97.6412 51.5204 92.3682 50.5078 92.8824 31.4159Z" fill="url(#paint0_linear_2018_1378)"/>
<path fill-rule="evenodd" clip-rule="evenodd" d="M71.6766 56.8483C71.064 55.2718 69.9036 53.9843 68.8991 52.6237C66.2133 48.9856 64.5478 44.6026 64.1398 40.0989C63.922 37.6947 64.749 25.9602 69.1224 23.2074C66.9633 22.5426 64.749 21.8494 62.978 20.4468C61.207 19.0442 59.9537 16.751 60.4303 14.5427C61.1516 11.2003 65.4926 9.76534 68.7307 10.8639C71.9687 11.9625 74.298 14.7418 76.4532 17.3964C78.514 17.2228 79.0255 14.1863 80.9077 13.3295C82.1773 12.7515 83.6533 13.3441 84.8841 14.0006C88.466 15.9113 91.8208 18.5314 93.7147 22.1221C95.6086 25.7128 95.7726 30.3999 93.3594 33.6644C94.2385 32.658 96.0601 33.9096 95.956 35.2418C95.8519 36.5739 94.6751 37.5406 93.5516 38.264C92.4282 38.9873 91.1728 39.7373 90.7289 40.9976C89.6114 44.1701 87.836 47.1093 85.5479 49.5748C84.15 51.0811 82.5451 52.4365 81.5083 54.2108C80.4714 55.9851 80.125 58.3697 81.3344 60.0312C82.9426 58.3195 85.7145 57.8382 87.8055 58.9076C89.8966 59.9769 91.1291 62.5059 90.6828 64.8117C93.5965 65.0617 96.2143 67.37 96.8269 70.2295C102.735 76.1847 107.56 83.2104 110.998 90.862C113.18 95.7189 114.801 100.805 116.417 105.879C117.049 107.864 117.689 109.944 117.336 111.997C116.621 116.167 112.098 118.624 107.896 119.117C102.664 119.732 97.213 118.206 93.0609 114.965C90.843 121.862 88.6291 129.395 91.1504 136.188C91.6903 137.642 90.6105 139.294 89.2 139.94C87.7895 140.587 86.166 140.492 84.6182 140.385C75.9429 139.784 67.2675 139.182 58.5922 138.581C56.7742 138.455 54.2886 137.385 54.9321 135.681C56.3691 131.873 56.7797 127.684 56.1094 123.67C55.5979 126.373 54.711 129.005 53.482 131.467C53.482 131.467 49.1517 140.385 44.8331 135.808C42.3718 130.835 42.2657 125.011 42.9922 119.51C43.7187 114.009 45.2207 108.625 45.8076 103.107C46.3793 97.7317 46.0755 92.2923 46.6346 86.9154C47.1937 81.5384 48.739 76.0321 52.4091 72.0629C55.3128 68.9224 58.2166 65.7819 61.1203 62.6415C61.9021 61.7959 62.7262 60.9215 63.8073 60.5248C64.8884 60.1281 66.3017 60.3804 66.8577 61.3889C67.5431 60.5362 68.3451 59.6171 69.4331 59.503C70.5211 59.389 71.6567 60.7219 70.9581 61.5639C72.21 60.4267 72.2892 58.4247 71.6766 56.8483Z" fill="white"/>
<path fill-rule="evenodd" clip-rule="evenodd" d="M94.8271 70.2295C100.735 76.1847 105.56 83.2104 108.998 90.862C111.181 95.7189 112.801 100.805 114.417 105.879C115.049 107.864 115.689 109.944 115.337 111.997C114.622 116.167 110.098 118.624 105.896 119.117C100.665 119.732 95.5488 117.887 91.3967 114.646C89.1788 121.543 86.6293 129.395 89.1506 136.187C89.3791 136.803 89.975 137.499 89.7211 138.094C89.3749 138.906 88.0139 139.568 87.2002 139.94C86.9859 140.039 87.5579 138.009 87.533 135.031C87.4905 129.963 85.3657 112.356 90.3675 113.519C102.584 116.36 111.794 115.919 111.988 112.889C112.968 97.5028 94.2145 67.37 94.8271 70.2295Z" fill="#E7EAEE"/>
<path d="M59.0303 14.543C59.7516 11.2007 64.0921 9.76494 67.3301 10.8633C70.5681 11.9619 72.8975 14.7419 75.0527 17.3965C76.1877 17.3009 76.8532 16.3367 77.5361 15.3467C78.0931 14.5392 78.6623 13.714 79.5078 13.3291C80.7771 12.7515 82.2528 13.3436 83.4834 14C87.0652 15.9107 90.4205 18.5314 92.3145 22.1221C94.2083 25.7127 94.3721 30.3997 91.959 33.6641C92.8379 32.6578 94.6594 33.9092 94.5557 35.2412C94.4516 36.5733 93.2748 37.5403 92.1514 38.2637L91.9707 38.3799C90.8964 39.0686 89.7484 39.8041 89.3281 40.9971C88.2106 44.1696 86.4355 47.1088 84.1475 49.5742C83.7754 49.9751 83.3887 50.3656 83.002 50.7559C81.9355 51.8319 80.8693 52.9089 80.1084 54.2109C79.0716 55.9853 78.7252 58.3698 79.9346 60.0312C81.5428 58.3197 84.3142 57.8379 86.4053 58.9072C88.4963 59.9765 89.7285 62.5057 89.2822 64.8115C92.1959 65.0615 94.8141 67.37 95.4268 70.2295C101.334 76.1845 106.16 83.2099 109.598 90.8613C111.78 95.7182 113.401 100.805 115.017 105.879C115.649 107.864 116.289 109.944 115.937 111.997C115.222 116.167 110.698 118.623 106.496 119.117C101.265 119.732 95.8123 118.205 91.6602 114.964C89.4423 121.861 87.2287 129.395 89.75 136.188C89.9731 136.789 89.92 137.424 89.6807 138.008L89.7207 138.094C89.6883 138.109 89.6555 138.124 89.623 138.139C89.2645 138.912 88.5832 139.581 87.7998 139.94C86.3893 140.587 84.7656 140.492 83.2178 140.385L57.1914 138.581C55.3735 138.455 52.8891 137.385 53.5322 135.681C54.9692 131.873 55.3793 127.684 54.709 123.67C54.1975 126.373 53.3109 129.005 52.082 131.467C52.5861 127.356 53.9637 123.355 56.0977 119.806C57.6163 117.28 56.742 114.065 55.9619 111.223C52.2683 97.7649 51.6947 83.4609 54.3008 69.751C48.7389 73.8168 46.4166 81.0318 45.7568 87.8896C45.481 90.7568 45.4362 93.6441 45.3906 96.5293C45.3272 100.545 45.2631 104.557 44.5791 108.508C44.2666 110.312 43.8263 112.096 43.3857 113.878C42.6897 116.694 41.9944 119.507 41.8076 122.395C41.5159 126.904 42.4769 131.391 43.4326 135.808C40.9715 130.834 40.8653 125.011 41.5918 119.51C41.9252 116.985 42.4223 114.485 42.9189 111.985C43.5045 109.039 44.0897 106.093 44.4072 103.107C44.6952 100.4 44.7613 97.6757 44.8271 94.9521C44.8921 92.2681 44.9569 89.5838 45.2344 86.915C45.7935 81.5382 47.3388 76.0317 51.0088 72.0625L59.7197 62.6416C60.5015 61.7961 61.3261 60.9211 62.4072 60.5244C63.4883 60.1279 64.901 60.3804 65.457 61.3887C66.1424 60.536 66.9452 59.617 68.0332 59.5029C69.1211 59.3893 70.2561 60.7217 69.5576 61.5635C70.8095 60.4263 70.8889 58.4241 70.2764 56.8477C69.7961 55.6119 68.9786 54.5541 68.1641 53.499C67.9396 53.2083 67.716 52.917 67.499 52.623C64.8133 48.985 63.1472 44.6022 62.7393 40.0986C62.5215 37.6942 63.3486 25.9601 67.7217 23.207C65.5627 22.5423 63.349 21.8488 61.5781 20.4463C59.8072 19.0437 58.5539 16.7512 59.0303 14.543ZM55.6543 68.3975C53.0601 77.5359 52.8144 87.2227 53.9072 96.6592C55.0001 106.096 57.401 115.331 60.0312 124.459C58.9247 122.566 58.1165 120.499 57.6455 118.357C56.3591 120.199 55.0092 122.297 55.376 124.513C55.9924 128.234 55.5996 132.119 54.25 135.642C53.9422 136.445 54.4953 137.372 55.2529 137.779C56.0105 138.187 56.9094 138.207 57.7695 138.218L69.2227 138.359C68.9071 137.958 69.0209 137.293 69.4521 137.021C69.3367 138.265 70.9332 138.851 72.1719 139.02C78.0238 139.816 84.2447 140.562 89.623 138.139C89.6431 138.095 89.6627 138.052 89.6807 138.008C88.0387 134.44 87.7376 130.367 88.1768 126.463C88.6195 122.527 89.7768 118.711 90.9287 114.922C91.1197 114.293 90.1215 114.127 89.4707 114.038C88.3154 113.88 87.4765 112.895 86.7539 111.979L83.8164 108.258C81.92 105.856 79.733 103.277 76.708 102.812C76.0789 102.715 75.4443 102.717 74.8076 102.744L74.1699 102.776H74.168C73.6509 102.805 73.1333 102.833 72.6172 102.822C70.6097 102.779 68.6189 102.118 66.9844 100.952C66.5926 100.673 66.1947 100.322 66.1143 99.8477C66.0359 99.3841 66.4547 98.8413 66.8994 98.959C65.4833 98.5317 64.1348 97.8806 62.9189 97.0381C62.6949 96.8828 62.4661 96.7108 62.3506 96.4639C62.1011 95.9303 62.5143 95.276 63.0586 95.0508C63.6028 94.8257 64.2192 94.9083 64.8018 94.9941C64.1067 94.8529 63.3901 94.7026 62.8076 94.2979C62.2251 93.893 61.8079 93.1616 61.9883 92.4756C62.1689 91.79 63.1135 91.3656 63.6465 91.833C63.4144 91.1405 63.9187 90.3737 64.5781 90.0596C65.2377 89.7453 66.0019 89.7693 66.7314 89.8096C69.7924 89.9784 72.8447 90.3055 75.8721 90.7881L75.4287 84.5605C75.4106 84.3066 75.3887 84.0404 75.251 83.8262C75.0746 83.5519 74.7482 83.4209 74.4424 83.3076C68.2803 81.0248 61.9405 79.2207 55.5 77.916L56.9434 104.946C56.9876 105.775 57.2183 106.826 58.0371 106.961C63.1254 107.798 68.1167 109.224 72.8799 111.2C73.5489 111.478 74.038 110.541 74.1611 109.827L75.3818 102.753C75.5515 105.743 75.1236 108.767 74.1309 111.593C74.8899 111.771 75.3296 110.768 75.4512 109.998L76.5537 103.007C76.7414 105.485 76.5239 107.993 75.9141 110.402C75.774 110.956 75.5613 111.568 75.0439 111.809C74.6062 112.012 74.0934 111.88 73.6299 111.745L57.5127 107.045C57.2593 106.971 56.9945 106.89 56.8066 106.705C56.5271 106.429 56.4894 105.998 56.4678 105.605L55.126 81.2334C55.039 79.6535 55.1256 78.0692 55.2119 76.4893L55.6543 68.3975ZM65.8877 135.521C68.3637 135.554 70.8337 136.006 73.1602 136.854C73.3087 136.909 73.4711 136.978 73.5352 137.123C73.5989 137.268 73.4659 137.482 73.3193 137.424C70.8858 136.448 68.2572 135.962 65.6357 136.001C65.3887 136.005 65.1168 136.005 64.9277 135.846C65.1221 135.551 65.5348 135.517 65.8877 135.521ZM95.4473 71.2588C95.2011 71.1197 94.8921 70.9968 94.6475 71.1387C94.4665 71.2436 94.3861 71.4587 94.3203 71.6572C92.1957 78.0677 90.9957 84.7416 89.8018 91.3887C89.6893 92.0145 90.1345 92.5485 90.5586 93.0566C90.6439 93.1588 90.7288 93.2597 90.8076 93.3604C91.2785 93.9617 91.4646 95.0478 90.7529 95.3252C89.8058 95.6946 89.7897 97.0111 89.9404 98.0166L90.3066 100.456C90.3698 100.877 90.6598 101.436 91.0479 101.261C93.0891 100.34 95.1481 99.4137 97.334 98.9277C99.5198 98.4417 101.87 98.4224 103.936 99.2861C106.001 100.15 107.728 101.999 108.062 104.213C107.676 103.806 107.362 103.339 107.049 102.872C106.794 102.492 106.538 102.111 106.243 101.763C104.514 99.7209 101.596 99.0153 98.9365 99.3076C96.2773 99.6 93.7968 100.744 91.3711 101.872C94.1904 105.145 94.0224 110.577 91.0059 113.669C94.9358 117.087 100.246 118.869 105.442 118.512C107.91 118.342 110.411 117.675 112.365 116.158C114.319 114.641 115.636 112.172 115.342 109.716C115.223 108.727 114.859 107.788 114.498 106.857C114.46 106.759 114.422 106.661 114.384 106.562C113.451 104.137 112.686 101.626 111.92 99.1182C110.242 93.6208 108.566 88.1351 105.152 83.5742C104.598 82.8342 104.002 82.1252 103.407 81.417C102.606 80.4634 101.805 79.5101 101.105 78.4805C100.652 77.813 100.233 77.1051 99.8145 76.3975C98.6276 74.3925 97.4375 72.3835 95.4473 71.2588ZM89.8115 101.59C89.5556 101.564 89.2115 101.824 89.3965 102.002C91.004 103.539 92.0809 105.739 91.8818 107.954C91.6827 110.169 90.0117 112.283 87.8135 112.62C88.4638 113.392 89.7047 113.452 90.5859 112.96C91.4668 112.468 92.0333 111.551 92.3906 110.607C93.366 108.031 92.9736 104.979 91.3779 102.733C90.9916 102.19 90.4753 101.656 89.8115 101.59ZM60.1904 63.6914C57.924 64.5284 56.631 66.9783 56.2324 69.3613C55.9976 70.7658 56.0002 72.1912 56.0029 73.6182C56.0048 74.6121 56.0061 75.6069 55.9277 76.5957C62.7612 77.9335 69.4974 79.7718 76.0635 82.0898C76.4652 82.2317 76.8871 82.3896 77.1553 82.7207C77.4437 83.0771 77.4976 83.563 77.54 84.0195C77.7544 86.3284 77.9569 88.7328 77.1309 90.8994L77.1377 84.1475C77.1381 83.7737 77.0745 83.306 76.7188 83.1914C76.1652 83.0132 75.9055 83.8588 75.9512 84.4385L76.3467 89.458C76.4008 90.1449 76.501 90.9187 77.0537 91.3301L67.1191 90.332C66.0871 90.2284 64.8497 90.2112 64.2461 91.0547C64.3454 91.8617 65.3105 92.2003 66.1064 92.3662L72.4307 93.6846C70.4517 94.0937 68.3713 93.7272 66.499 92.9668C66.3572 92.9092 66.2157 92.8491 66.0742 92.7891L66.0732 92.7881C65.4806 92.5368 64.8854 92.2851 64.25 92.2012C63.4623 92.0972 62.5717 92.3113 62.1143 92.9609C64.9437 94.832 68.2323 96.0041 71.6074 96.3438C71.5868 96.7097 71.0992 96.8195 70.7334 96.793C69.7815 96.7236 68.8656 96.4445 67.9492 96.165L67.9482 96.1641H67.9463C67.5219 96.0346 67.0974 95.9045 66.6689 95.7959C65.3142 95.4524 63.7954 95.3396 62.5928 96.0518C65.2994 98.2591 68.8682 99.0261 72.29 99.7256L66.624 99.6045C67.6261 101.388 69.8744 102.045 71.917 102.153C72.5209 102.185 73.1311 102.184 73.7402 102.184C75.1913 102.182 76.6412 102.18 78.0127 102.621C80.5021 103.422 82.3053 105.534 83.9707 107.551L87.1826 111.439C87.6205 111.969 88.4545 112.028 89.0732 111.729C89.692 111.429 90.1295 110.851 90.4717 110.255C91.1517 109.07 91.5554 107.678 91.3359 106.329C91.1163 104.981 90.1859 103.707 88.875 103.322C86.623 102.662 85.0241 100.66 83.9189 98.5898C83.7293 98.2345 83.5492 97.8735 83.374 97.5098L82.8584 96.4131C82.2067 95.0111 81.5552 93.6107 80.6367 92.373C80.3614 92.0021 80.0615 91.6437 79.7617 91.2861C79.0205 90.4022 78.2798 89.5191 77.9131 88.4375C79.7998 90.2631 81.4007 92.3832 82.6406 94.6973C82.775 94.9481 82.9239 95.2184 83.1836 95.335C83.3498 95.4096 83.5385 95.41 83.7207 95.4082L88.5918 95.3613C89.0788 95.3567 89.5892 95.3466 90.0156 95.1113C90.442 94.876 90.743 94.3369 90.5459 93.8916C90.3586 93.4688 89.8189 93.316 89.3604 93.376C89.0947 93.4107 88.8402 93.498 88.5859 93.585C88.4015 93.648 88.2168 93.7106 88.0273 93.7539C87.0832 93.9699 86.1195 93.6854 85.1611 93.4023C84.1237 93.0959 83.0924 92.7917 82.0986 93.126C82.7414 92.0618 82.6995 90.7455 82.6592 89.4951L82.6523 89.2998C82.4482 82.6594 83.9219 75.9736 86.8984 70.0342C85.7997 70.8201 85.0107 72.0285 84.7334 73.3506C84.7005 73.5076 84.6747 73.6669 84.6484 73.8262C84.581 74.2354 84.5136 74.6451 84.333 75.0156C83.6008 76.5173 81.5331 76.6286 79.8691 76.4785C78.5055 76.3555 77.0765 76.1757 75.9658 75.375C75.4089 74.9734 74.9606 74.4345 74.5146 73.8984C73.9208 73.1846 73.3306 72.4762 72.4951 72.1045C71.1096 71.4882 69.629 72.0017 68.1309 72.5215C66.7773 72.9911 65.4088 73.4655 64.084 73.1162C63.3379 72.9199 62.8217 73.8357 62.5977 74.5742L61.6211 77.793C61.1659 76.0336 61.7221 74.0487 63.0254 72.7822C62.4677 72.4161 62.6178 71.6648 62.7666 70.9209C62.9173 70.1671 63.0667 69.42 62.4766 69.0898C60.6953 68.0933 60.3425 65.7269 60.1904 63.6914ZM88.5391 96.0146C87.1597 95.898 85.7705 95.8945 84.3906 96.0059L84.666 97.209C84.7084 97.3939 84.7468 97.6032 84.6426 97.7617C84.5381 97.92 84.2304 97.9173 84.2041 97.7295L84.0029 96.291C83.9927 96.218 83.9803 96.141 83.9336 96.084C83.8139 95.9391 83.5528 96.0429 83.4893 96.2197C83.4258 96.3966 83.4927 96.5912 83.5625 96.7656C84.715 99.6445 86.8728 102.295 89.832 103.222C89.7388 102.989 89.5595 102.81 89.3799 102.63L89.2344 102.481C89.1869 102.431 89.1411 102.379 89.0986 102.325C88.8585 102.02 88.7638 101.506 89.0869 101.291C89.187 101.225 89.3155 101.195 89.4404 101.167C89.6322 101.124 89.817 101.082 89.8818 100.909C89.464 99.5023 89.1867 98.0535 89.0547 96.5918C89.0386 96.4139 89.012 96.2135 88.8691 96.1064C88.7764 96.0371 88.6545 96.0244 88.5391 96.0146ZM90.0537 65.7158C89.4343 65.7798 88.9244 66.6024 89.3643 67.043C89.7165 67.3956 89.8208 67.9727 89.6133 68.4258C89.4057 68.8789 88.9004 69.177 88.4033 69.1406C88.0825 69.1173 87.8634 69.449 87.7207 69.7373C84.3831 76.4819 82.8378 84.1033 83.2852 91.6152C83.2983 91.8354 83.3226 92.0774 83.4814 92.2305C83.5925 92.3374 83.7491 92.3797 83.8984 92.418L86.1006 92.9814C86.7164 93.139 87.356 93.2979 87.9814 93.1846C88.6067 93.0712 89.216 92.6057 89.2812 91.9736C90.0842 84.1727 91.8809 76.4744 94.6143 69.124C94.7411 68.7829 94.4152 68.4541 94.125 68.2344L91.7324 66.4229C91.236 66.047 90.6731 65.6519 90.0537 65.7158ZM88.4619 91.4902C88.5912 91.4865 88.7211 91.5329 88.8184 91.6182C89.0578 91.8282 89.0266 92.2675 88.7598 92.4414C88.4928 92.6153 88.0777 92.4661 87.9824 92.1621C87.8876 91.8582 88.1437 91.4998 88.4619 91.4902ZM84.0244 90.5449C84.3066 90.4535 84.6468 90.6487 84.71 90.9385C84.7729 91.2284 84.5447 91.5479 84.25 91.582C84.116 91.5974 83.976 91.5596 83.8682 91.4785C83.7952 91.4237 83.7368 91.3492 83.7002 91.2656C83.5814 90.9938 83.7422 90.6363 84.0244 90.5449ZM56.873 77.2168C56.4023 77.1431 55.8406 77.1129 55.5352 77.4785C60.3187 78.1427 64.9271 79.6346 69.5312 81.126C70.9504 81.5857 72.3694 82.0453 73.793 82.4805C74.5981 82.7266 75.4164 82.9674 76.2578 82.998C74.4839 81.976 72.4944 81.3993 70.5273 80.832L64.0635 78.9688C61.6916 78.2848 59.3119 77.5989 56.873 77.2168ZM83.7822 62.5928C82.0801 62.7399 80.5271 63.4984 78.9727 64.2578C77.4734 64.9903 75.9724 65.7233 74.335 65.9092C75.3188 66.5768 75.7827 67.8566 75.6494 69.0381C75.516 70.2197 74.8542 71.296 73.9941 72.1172C74.7304 73.5274 75.9468 74.6813 77.3936 75.3428C77.9035 75.5759 78.4885 75.7501 79.0195 75.5703C79.1351 75.5312 79.2584 75.4789 79.3838 75.4258C79.8423 75.2314 80.3285 75.0252 80.5586 75.4072C80.9902 76.1236 82.0921 75.9591 82.8066 75.5244C83.2947 75.2275 83.7492 74.8257 83.9502 74.291C84.1512 73.7562 84.0314 73.0732 83.5615 72.748C83.1714 72.478 83.0405 71.8945 83.2773 71.4834C83.5142 71.0722 84.0843 70.8937 84.5137 71.0957C84.8886 71.2722 85.24 70.8321 85.4639 70.4834C85.9909 69.6626 86.7671 69.0038 87.6631 68.6182C87.3046 68.0908 87.355 67.3218 87.7793 66.8457C86.6829 66.0442 85.8029 64.9486 85.2568 63.7051C85.167 64.4459 84.1495 64.8791 83.5537 64.4297C82.9581 63.9802 83.0947 62.8826 83.7822 62.5928ZM74.8838 71.6514C75.0995 71.0732 75.9279 70.8381 76.415 71.2168C76.9022 71.5957 76.8784 72.4572 76.3711 72.8086C75.8638 73.1596 75.0497 72.8791 74.8662 72.29C74.8017 72.083 74.808 71.8546 74.8838 71.6514ZM64.3311 61.6436C63.95 60.9002 62.933 60.5647 62.1846 60.9355C61.1218 61.4624 60.9736 62.891 60.9678 64.0771C60.9664 64.3567 61.0451 64.7283 61.3242 64.7441C62.0375 64.7847 62.375 65.8916 61.8057 66.3232C61.2478 66.7459 61.6463 67.6622 62.2012 68.0889C62.3222 68.1819 62.4518 68.2717 62.582 68.3613C63.0486 68.6824 63.5239 69.0096 63.6455 69.543C63.7359 69.9399 63.6014 70.3605 63.4707 70.7715C63.3072 71.2856 63.1484 71.7852 63.4395 72.2031C63.7958 72.7147 64.5561 72.6647 65.1689 72.5498C67.0863 72.1904 68.9875 71.7404 70.8623 71.2012C69.7301 70.2755 69.1829 68.6885 69.5039 67.2617C69.5855 66.8991 69.2079 66.6182 68.9033 66.4053C68.5988 66.1923 68.2972 65.777 68.5322 65.4893C68.6589 65.3342 68.4864 65.1168 68.3281 64.9941L65.2842 62.6348C64.919 62.3516 64.5419 62.0548 64.3311 61.6436ZM72.1299 65.5059C71.6906 65.4431 71.1953 65.4878 70.8809 65.8008C70.1896 66.4889 69.9159 67.5383 70.0781 68.5C70.2403 69.4617 70.8054 70.3299 71.5498 70.96C72.1062 71.4309 72.8912 71.7868 73.5518 71.4785C73.7482 71.3867 73.9159 71.2429 74.0654 71.0859C74.9015 70.2078 75.1953 68.8506 74.7979 67.7051C74.4003 66.5599 73.3299 65.6776 72.1299 65.5059ZM64.21 69.7373C64.2873 69.1609 64.9613 68.7481 65.5098 68.9414C65.9807 69.1077 66.2677 69.6744 66.123 70.1523C66.0089 70.5296 65.648 70.8189 65.2549 70.8477C64.6747 70.89 64.1327 70.3139 64.21 69.7373ZM79.2734 67.1055C79.6366 66.7554 80.2771 66.7503 80.6455 67.0947C81.039 67.4628 81.0442 68.1661 80.6562 68.54C80.2683 68.9138 79.5662 68.8823 79.2129 68.4756C78.8823 68.0948 78.9105 67.4555 79.2734 67.1055ZM78.6514 55.1621C77.7367 55.8751 76.8094 56.5952 75.7471 57.0605C74.6845 57.5259 73.4538 57.7166 72.3584 57.335C71.9873 57.2058 71.3924 57.1494 71.3779 57.542C71.3054 59.5076 70.5692 61.4427 69.3174 62.96C68.9896 62.7102 68.9458 62.2344 68.9951 61.8252C69.0057 61.7375 69.0187 61.649 69.0322 61.5605C69.0819 61.2366 69.1321 60.9099 69.04 60.5996C68.9226 60.2044 68.4415 59.8818 68.0957 60.1064L65.6084 61.7227C66.7967 63.1655 68.3447 64.3106 70.0723 65.0244C70.3234 65.1281 70.6309 65.2161 70.8486 65.0537C71.4358 64.6159 72.1605 64.8588 72.9033 65.1074C73.5558 65.3258 74.223 65.549 74.8242 65.3203C76.78 64.5766 78.6999 63.7386 80.5752 62.8105C81.6454 62.2809 82.8325 61.7062 83.9834 62.0244C85.0381 62.3162 85.7465 63.2762 86.3711 64.1748L87.6826 66.0615C87.9632 66.4652 88.6661 66.2439 88.8662 65.7949C89.0661 65.3458 88.9298 64.8261 88.791 64.3545L88.1504 62.1787C87.9436 61.4761 87.7282 60.7542 87.2764 60.1777C86.3597 59.0083 84.6474 58.7143 83.209 59.0869C81.7706 59.4595 80.542 60.3742 79.3682 61.2852L79.2617 61.3672C78.1223 62.2521 76.9583 63.1561 75.5879 63.6006C75.4242 63.529 75.5573 63.2833 75.7002 63.1758L79.3174 60.46C78.6167 58.7995 78.3836 56.9444 78.6514 55.1621ZM68.5742 23.7393C68.4108 23.6896 68.2337 23.6405 68.0723 23.6963C67.9133 23.7514 67.8053 23.8962 67.709 24.0342C64.9067 28.0493 63.4096 32.9436 63.3877 37.8398C63.3659 42.736 64.8057 47.6167 67.3994 51.7695C68.318 53.2403 69.3924 54.637 70.75 55.7158C71.402 56.2339 72.1382 56.6836 72.958 56.8301C74.5229 57.1096 76.0539 56.2513 77.3418 55.3193C83.6855 50.729 87.8703 43.7086 90.8008 36.4473L89.2148 38.0244C88.8889 38.3486 88.5282 38.6907 88.0723 38.75C87.6164 38.8092 87.087 38.4121 87.2051 37.9678C87.7192 36.0335 87.8104 33.9879 87.4697 32.0156C87.3043 31.058 86.9249 29.986 86.0146 29.6455C80.265 27.4946 74.4477 25.5246 68.5742 23.7393ZM80.6953 39.915C81.3674 39.1905 82.6837 38.8446 83.2744 39.6367C83.4228 39.8357 83.5007 40.0798 83.5439 40.3242C83.6852 41.1239 83.4806 41.9457 83.1904 42.7041C81.9405 45.9705 78.9885 48.5311 75.5781 49.3066C74.2058 49.6187 72.692 49.6368 71.4707 48.9375C70.2495 48.2381 69.4638 46.6648 69.999 45.3633C70.6276 43.8356 72.574 43.4068 74.2256 43.3721C74.3703 43.369 74.5169 43.3664 74.6641 43.3643C76.1967 43.3415 77.8332 43.3174 78.9424 42.2969C79.3369 41.9338 79.622 41.4772 79.9072 41.0195C80.1477 40.6337 80.3879 40.2465 80.6953 39.915ZM82.2725 39.8574C82.0249 39.8208 81.7779 39.9316 81.5723 40.0742C81.0608 40.4291 80.7329 40.9635 80.4033 41.501C80.1417 41.9276 79.879 42.3563 79.5225 42.6982C78.5914 43.5911 77.1983 43.7491 75.9131 43.8604L73.4424 44.0742C72.8124 44.1288 72.1596 44.1899 71.6113 44.5049C70.5814 45.0967 70.2244 46.6097 70.8809 47.5996C71.5908 48.6701 73.071 48.9029 74.3496 48.7793C78.2908 48.3981 81.8398 45.3736 82.8418 41.543C83.012 40.8921 82.9377 39.9562 82.2725 39.8574ZM67.0303 42.8564C67.1018 43.9557 67.1348 45.0576 67.1299 46.1592C66.6438 45.8028 66.5894 45.1062 66.6133 44.5039C66.6311 44.0554 66.6677 43.6076 66.7227 43.1621C66.7417 43.0077 66.8757 42.8744 67.0303 42.8564ZM83.3721 37.9619C83.4621 37.8915 83.5901 37.8987 83.7012 37.9258C84.3103 38.0745 84.6873 38.6726 84.9658 39.2344C85.0395 39.3829 85.1117 39.5564 85.0469 39.709C84.9817 39.8612 84.7085 39.894 84.6729 39.7324C84.5268 39.0643 84.0252 38.4843 83.3848 38.2441C83.2776 38.204 83.282 38.0325 83.3721 37.9619ZM75.5391 34.3428C75.5158 34.8843 75.2426 35.4063 74.8242 35.751C74.5262 35.9965 74.1619 36.1548 73.873 36.4111C73.5843 36.6675 73.3761 37.0825 73.5254 37.4385C73.7101 37.8779 74.3023 37.9606 74.7715 37.876C74.9385 37.8458 75.1117 37.8038 75.2754 37.8486C75.439 37.8935 75.5824 38.0654 75.5264 38.2256C75.487 38.338 75.3697 38.4009 75.2588 38.4443C74.5711 38.7133 73.7124 38.6129 73.2021 38.0791C72.692 37.5452 72.6789 36.5677 73.2617 36.1143C74.0207 35.5238 74.78 34.9333 75.5391 34.3428ZM87.501 30.2969C87.3941 30.4155 87.4703 30.602 87.5449 30.7432C88.6174 32.7722 88.3147 35.2215 87.9883 37.4932C87.9536 37.7346 87.9185 37.979 87.9424 38.2217C88.6392 37.6704 89.3409 37.1146 89.9209 36.4414C90.5009 35.7682 90.958 34.9619 91.082 34.082C91.1025 33.9366 91.1144 33.7884 91.126 33.6406C91.1535 33.2907 91.1813 32.9411 91.3262 32.625C91.4504 32.3541 91.1342 32.0981 90.8672 31.9658L87.501 30.2969ZM93.5781 34.1396C93.1905 33.8277 92.5821 33.937 92.2119 34.2695C91.8418 34.6021 91.6649 35.0989 91.5586 35.585C91.5274 35.7276 91.5011 35.8716 91.4746 36.0156C91.4109 36.3623 91.3473 36.7094 91.2178 37.0361C91.1966 37.0896 91.1736 37.1439 91.1504 37.1982C91.0339 37.4713 90.9131 37.7537 91 38.0293C92.396 37.9396 93.659 36.8148 93.9092 35.4385C93.9931 34.9766 93.9438 34.434 93.5781 34.1396ZM80.5225 31.3828C80.8719 31.1488 81.3224 31.019 81.7178 31.1621C82.2026 31.3377 82.4695 31.8666 82.5615 32.374C82.6932 33.1003 82.5347 33.9151 82 34.4238C81.4652 34.9323 80.5201 35.0137 80.0039 34.4863C79.8285 34.3071 79.7125 34.0753 79.6406 33.835C79.3745 32.944 79.7499 31.9003 80.5225 31.3828ZM67.5664 11.7158C66.2285 11.1367 64.6815 10.9262 63.3047 11.4053C63.9247 11.437 64.4103 12.1432 64.2178 12.7334C64.025 13.3237 63.2156 13.6081 62.6963 13.2676C62.177 12.927 62.1147 12.0713 62.5791 11.6592C61.1712 12.0761 59.9885 13.1902 59.4873 14.5703C59.3885 14.8424 59.3149 15.143 59.4053 15.418C59.4562 15.573 59.5564 15.7106 59.6553 15.8467C59.7949 16.039 59.932 16.2286 59.9258 16.459C59.875 18.3042 61.6819 19.975 63.5176 19.7803C63.8768 19.7424 64.0217 20.1009 64.1719 20.4727C64.2436 20.6501 64.317 20.8307 64.415 20.9727C64.5903 21.2261 64.8829 21.3679 65.1631 21.4961C68.0121 22.7992 70.9605 23.8854 73.9736 24.7432C74.3228 24.8425 74.8001 24.8841 74.9482 24.5527C75.147 24.1079 75.7251 23.8774 76.1758 24.0625C76.6262 24.2478 76.8744 24.8175 76.7031 25.2734C76.6264 25.4778 76.8787 25.6435 77.084 25.7178L87.3486 29.4287C87.1597 28.6691 88.1247 27.9148 88.8164 28.2812C89.5078 28.648 89.425 29.8695 88.6904 30.1396L92.4424 32.0322L93.1152 26.5264C93.1467 26.2692 93.0443 25.8864 92.7959 25.96C92.3356 26.0963 91.7931 25.8359 91.6113 25.3916C91.4296 24.9474 91.6339 24.3818 92.0576 24.1562C92.3839 23.9828 92.5058 23.5548 92.4336 23.1924C92.3614 22.8301 92.1377 22.5184 91.915 22.2236C89.5056 19.0343 86.4536 16.3193 82.9531 14.3896C82.015 13.8725 80.8777 13.4057 79.9082 13.8613C79.347 14.1251 78.9696 14.6448 78.6006 15.1523H78.5996V15.1533C78.5413 15.2336 78.4825 15.314 78.4238 15.3926C77.6857 16.3821 76.7725 17.2405 75.7393 17.916L79.0098 21.2441C78.7393 20.6602 79.1513 19.8736 79.7852 19.7627C80.4192 19.652 81.0733 20.2524 81.0166 20.8936C80.9599 21.5346 80.2112 22.011 79.6064 21.791C80.9723 22.8945 82.4844 24.0537 84.2402 24.0693C84.9328 24.0758 85.4158 25.0017 85.0244 25.5732C84.6329 26.1447 83.5941 26.0293 83.3379 25.3857C83.1225 24.8441 82.6523 24.4876 82.1357 24.1875L81.6113 23.9014C81.5374 23.8622 81.464 23.8232 81.3916 23.7842C79.0435 22.5195 77.2378 20.5113 75.4414 18.5127C74.9701 17.9884 74.4993 17.4645 74.0195 16.9551C73.1082 15.9874 72.1525 15.0616 71.1562 14.1816C70.0636 13.2165 68.9043 12.295 67.5664 11.7158ZM70.8008 28.4561C70.9972 28.442 71.205 28.4612 71.3701 28.5684C71.6074 28.7226 71.7043 29.0197 71.7568 29.2979C71.8886 29.9959 71.8276 30.7759 71.3809 31.3281C70.9341 31.8803 70.0268 32.0794 69.4961 31.6074C69.3307 31.4603 69.2139 31.2638 69.1357 31.0566C68.9252 30.4981 68.9937 29.8417 69.3154 29.3389C69.6373 28.8359 70.2052 28.4987 70.8008 28.4561ZM88.3213 19.7637C88.845 19.7377 89.3471 20.1822 89.3857 20.7051C89.4265 21.2601 88.9305 21.7953 88.374 21.7969C87.8496 21.7981 87.3683 21.3309 87.3545 20.8066C87.3407 20.2822 87.7973 19.7898 88.3213 19.7637ZM71.1504 19.8623C71.696 19.5922 72.4491 19.9421 72.5947 20.5332C72.6693 20.836 72.5952 21.1716 72.4004 21.415C72.02 21.8904 71.1894 21.8922 70.8076 21.418C70.4259 20.9437 70.6048 20.1324 71.1504 19.8623ZM66.5195 16.1992C66.7131 15.7072 67.3412 15.4393 67.8301 15.6406C68.214 15.7988 68.4747 16.2165 68.4473 16.6309C68.406 17.2502 67.6798 17.7187 67.0986 17.501C66.6036 17.3153 66.3261 16.6912 66.5195 16.1992ZM83.7598 15.6357C84.2469 15.4216 84.8876 15.6993 85.0645 16.2012C85.2249 16.657 84.9824 17.2166 84.54 17.4111C84.0977 17.6053 83.5212 17.4058 83.2939 16.9795C83.0437 16.51 83.2728 15.85 83.7598 15.6357Z" fill="#00160A"/>
<defs>
<linearGradient id="paint0_linear_2018_1378" x1="31.8906" y1="10.0967" x2="161.63" y2="64.42" gradientUnits="userSpaceOnUse">
<stop offset="0.149038" stop-color="#320863"/>
<stop offset="0.774038" stop-color="#D8C1F3"/>
</linearGradient>
</defs>
</svg>
