<svg width="150" height="151" viewBox="0 0 150 151" fill="none" xmlns="http://www.w3.org/2000/svg">
<path fill-rule="evenodd" clip-rule="evenodd" d="M85.2175 124.857C99.7034 124.857 112.416 114.082 105.276 99.4459C98.1373 84.8103 124.664 85.283 132.456 75.1678C141.959 62.8319 139.207 10.4678 78.2025 42.3915C68.4303 47.5053 43.3333 37.1306 35.0086 42.2783C25.2095 48.3377 11.4227 60.7454 25.2095 73.4553C32.0006 79.716 7.65289 95.9657 18.3167 110.521C28.7219 124.724 36.0157 111.185 51.8575 114.082C67.6993 116.978 74.4592 124.857 85.2175 124.857Z" fill="url(#paint0_linear_2018_1248)"/>
<path d="M68.4043 99.3952C68.4043 99.3952 71.7397 97.8263 72.9849 96.7347C74.2301 95.6431 75.7782 92.9313 75.7782 92.9313C75.7782 92.9313 92.7828 105.212 103.87 103.46C106.425 103.056 111.403 101.358 111.72 98.3665C112.587 90.1968 100.594 88.109 103.214 83.966C104.813 81.4371 109.78 85.2009 109.78 85.2009L130.384 95.3353C130.384 95.3353 123.266 112.881 105.992 113.584C84.7436 114.449 68.4043 99.3952 68.4043 99.3952Z" fill="white"/>
<path fill-rule="evenodd" clip-rule="evenodd" d="M52.068 30.6812C51.8746 30.6053 50.8361 29.3337 49.5177 29.1022C48.9185 28.9971 49.4623 29.76 48.8029 29.7668C46.8391 29.7873 43.6477 29.4183 43.0565 29.7668C42.6171 30.025 43.5848 30.927 43.0565 30.9684C38.0722 31.3591 30.4683 36.3357 28.8185 38.7502C28.2935 39.5185 32.5398 38.2149 31.8632 38.5947C31.1039 39.0211 30.2617 41.8128 29.7582 43.9689C29.4096 45.4537 29.1901 47.3645 29.1126 49.4432C29.0481 51.2379 29.0739 51.5348 29.3321 52.516C29.6291 53.6135 29.8615 53.9363 30.2617 53.7813C30.4037 53.7297 30.4683 53.536 30.4683 53.1745C30.4683 52.8905 30.6232 52.0383 30.8169 51.2766L31.1526 49.908L31.2946 50.4761C31.4754 51.1346 32.5341 53.1745 33.4895 54.6593C33.541 54.7381 33.7627 54.6378 33.9626 54.1546C34.1448 53.7143 34.0709 53.0108 34.3803 52.2569C35.0853 50.5395 36.4695 48.3067 38.0722 46.5193C40.441 43.8778 41.2269 40.8207 43.4473 38.3668C47.5911 33.7871 52.7919 30.9654 52.068 30.6812Z" fill="white"/>
<path fill-rule="evenodd" clip-rule="evenodd" d="M31.9227 39.2177C31.258 39.7522 30.2713 44.0879 30.2544 44.1604C29.9058 45.6451 29.5698 50.8012 29.9132 51.7774C30.2567 52.7536 31.2185 49.2346 31.2185 49.2346C31.2185 49.2346 32.6722 53.0095 33.9568 54.0445C34.0116 54.0887 32.4299 49.3742 31.9227 46.6219C31.2532 42.9888 32.301 38.9135 31.9227 39.2177Z" fill="#E7EAEE"/>
<path fill-rule="evenodd" clip-rule="evenodd" d="M56.6993 115.15C57.9388 114.879 60.0301 113.935 60.8309 113.612C61.6316 113.289 64.0715 109.844 64.9495 105.958C65.5821 103.091 65.9049 99.0115 65.5434 98.3272C65.49 98.2301 65.2947 96.3748 65.8146 96.9806C66.9702 98.3272 68.3419 100.441 72.6701 96.6531C73.849 95.6214 75.4115 94.2898 75.0001 93.1127C73.849 89.8191 68.8592 83.187 68.0985 82.6847C67.1889 82.084 62.5919 82.5944 55.7505 80.5752C47.9918 78.2852 44.7611 71.5418 41.7249 72.4196C39.2695 73.1295 33.3865 77.492 31.9101 80.2546C24.9398 93.2968 33.3865 102.436 35.3101 105.061L37.1779 105.867L37.2424 107.533L37.3328 108.579C37.5006 110.58 37.5652 110.76 38.469 111.432C40.7284 113.149 45.1827 114.75 49.2109 115.318C51.083 115.576 55.15 115.486 56.6993 115.15Z" fill="white"/>
<path fill-rule="evenodd" clip-rule="evenodd" d="M37.9111 106.923L38.0015 107.969C38.1693 109.97 38.2339 110.151 39.1377 110.823C40.4706 111.836 42.5673 112.808 44.8899 113.552C46.5043 114.069 48.2278 114.476 49.8796 114.709C51.7517 114.967 55.8187 114.877 57.368 114.541C58.1339 114.375 51.8346 109.426 48.1237 110.823C45.2739 111.895 38.557 103.715 41.288 101.578C44.3516 99.1808 38.7377 89.7254 38.557 87.6727C38.3762 85.62 37.6644 85.1295 37.6436 85.2015C37.6228 85.2735 37.6228 85.5191 37.6787 86.1108C37.9196 88.6616 37.9111 106.923 37.9111 106.923Z" fill="#E7EAEE"/>
<path fill-rule="evenodd" clip-rule="evenodd" d="M37.2385 87.0865C37.5096 87.0337 37.7721 87.2107 37.8249 87.4817C38.7993 92.4879 42.921 95.8771 50.2913 97.6493C57.7054 99.4321 62.7555 99.336 65.4165 97.433C65.6411 97.2724 65.4736 98.648 65.3091 98.7535C63.5736 99.8665 57.6729 101.527 50.6314 100.026C41.6281 98.1071 37.4007 90.5366 36.8433 87.6728C36.7905 87.4017 36.9675 87.1392 37.2385 87.0865Z" fill="#AE93CD"/>
<path fill-rule="evenodd" clip-rule="evenodd" d="M33.4842 78.0541C33.7239 77.917 42.6662 88.1656 54.9381 90.4855C67.2101 92.8053 70.1813 91.3299 70.659 88.1656C70.7002 87.8926 70.9549 87.7046 71.228 87.7459C71.501 87.7871 71.689 88.0418 71.6478 88.3149C71.0424 92.3251 65.364 93.279 54.7699 91.4712C44.309 89.6861 37.1369 85.4449 33.2985 78.7364C33.1614 78.4967 33.2445 78.1912 33.4842 78.0541Z" fill="#AE93CD"/>
<path d="M65.0059 27.7007C70.1597 27.6921 72.2966 28.5195 75.5098 29.7632C75.898 29.9134 76.3026 30.0702 76.7295 30.2319C86.1627 33.8054 89.4619 40.8868 90.2822 42.6479L90.3252 42.7397C90.3421 42.776 90.3577 42.8101 90.3721 42.8403C93.0702 48.5209 93.8877 53.8717 92.8291 60.0815C92.6874 60.9191 92.5977 61.6285 92.623 61.6567C92.6508 61.6813 92.9467 61.5526 93.2939 61.3726C93.8103 61.0886 94.0304 61.0502 94.4951 61.1147C95.2953 61.231 95.6445 61.4252 95.9414 61.9028C96.3799 62.6259 96.3925 63.7622 95.9795 65.7368C95.9488 65.8752 95.9304 65.959 95.9629 66.0093C96.0126 66.0852 96.1802 66.0854 96.5996 66.0854C97.4773 66.0855 97.7875 66.3056 98.0586 67.106C98.2133 67.5832 98.2388 67.8938 98.1484 68.4487C98.0421 69.1042 99.2245 69.6284 104.671 72.0425C105.122 72.2425 105.604 72.4559 106.115 72.6831C109.145 74.0238 111.686 74.7339 111.757 74.7358C111.835 74.7351 112.029 74.4513 112.184 74.0903C112.713 72.9155 114.004 72.0764 115.812 71.7407C116.638 71.5873 117.825 71.6188 118.51 71.9604C119.282 72.3461 120.278 73.6772 120.575 74.6323L120.73 75.0972L121.466 74.7622C122.098 74.4653 122.37 74.4136 123.364 74.4136C124.642 74.4136 124.849 74.478 126.27 75.4204C127.225 76.0401 127.845 76.8663 128.142 77.8989L128.348 78.5835L129.02 78.3257C130.453 77.7836 132.183 78.2346 133.461 79.4868C134.184 80.2226 134.713 80.9397 134.713 82.4565C134.713 83.7385 133.706 88.8733 133.293 90.1646C132.35 93.0309 129.524 101.332 126.347 104.909C123.514 108.097 122.479 108.71 120.742 109.739C120.531 109.864 120.309 109.995 120.072 110.138C115.089 113.146 109.6 114.515 102.642 114.515C98.4974 114.515 95.411 114.14 91.0732 113.082C82.3716 110.977 73.9924 106.484 68.3633 100.894C68.1835 100.714 67.9223 100.445 67.6309 100.146L67.6289 100.144C66.6646 99.1541 65.3692 97.8252 65.5869 98.2212C65.9481 98.9064 65.6256 102.985 64.9932 105.851C64.1153 109.737 61.676 113.183 60.875 113.506C60.7177 113.57 60.5102 113.657 60.2695 113.758C59.2852 114.174 57.7391 114.827 56.7432 115.044C55.1939 115.38 51.1271 115.471 49.2549 115.212C45.2268 114.644 40.7722 113.043 38.5127 111.326C37.6091 110.654 37.5448 110.473 37.377 108.472L37.2861 107.426L36.6924 107C35.7499 106.316 33.4903 104.096 32.7412 103.076C32.125 102.26 31.2654 100.456 30.8213 99.5239C30.6616 99.1889 30.5555 98.9663 30.5342 98.9438C30.3018 98.7502 29.4625 96.013 29.2559 94.7476C28.3652 89.4155 29.6299 83.1668 32.4443 78.9321C34.4455 75.911 37.3895 73.5482 40.2041 72.6831C41.0688 72.4122 42.6428 72.2959 42.3994 72.5278C42.3349 72.5795 41.7665 72.7864 41.1211 72.98C37.1704 74.1807 34.4712 76.6594 32.2764 81.1265C29.6942 86.3683 29.0361 92.1931 30.9082 97.3833C30.9764 97.5683 31.0481 97.7798 31.126 98.0083C31.4613 98.9918 31.9101 100.306 32.6641 101.333C33.5551 102.533 36.1119 105.129 36.7832 105.516L37.2217 105.761L37.1445 105.128C36.7959 102.353 36.731 89.1449 37.0537 86.6138C37.1957 85.5041 37.325 85.1941 37.6475 85.1938C37.8021 85.1945 37.8281 85.7119 37.8281 88.0601C37.8281 93.741 38.4737 106.02 38.9385 109.208C38.964 109.373 38.9893 109.531 39.0117 109.677C39.0909 110.191 39.1475 110.561 39.1582 110.577C39.329 110.694 41.8182 111.739 42.7861 112.1C46.4397 113.469 51.2299 114.192 54.4834 113.87C57.0525 113.611 58.909 113.187 60.1484 112.245C60.4846 111.986 61.5979 111.041 62.1787 109.777C63.2374 107.44 64.2834 103.682 64.916 99.8735C65.1097 98.6858 65.3163 97.7565 65.3809 97.8081C65.444 97.8577 65.2637 97.5352 64.9805 97.0718C64.2713 95.8984 63.652 94.712 63.6504 94.5161C63.6504 94.0771 64.193 94.5414 65.1484 95.8325C65.7164 96.6069 66.4518 97.4464 66.7617 97.6919C67.0718 97.9503 67.937 98.6862 68.6855 99.3315C72.9848 103.076 77.0006 105.748 81.5322 107.93C88.6203 111.313 96.7933 113.172 103.442 112.901C113.681 112.488 122.047 108.537 126.347 102.082C126.798 101.397 130.065 95.9937 129.884 95.7808C129.789 95.6752 129.343 95.7735 128.905 95.8696C128.578 95.9415 128.256 96.0119 128.09 95.9956C127.367 95.9182 124.651 95.1491 124.397 93.3149C124.365 93.0831 123.839 92.4097 123.826 92.3931C123.819 92.3948 123.282 92.5171 122.628 92.8247C121.363 93.4183 120.111 93.0947 118.497 91.7524C117.645 91.0425 117.245 90.3325 117.231 89.5581C117.231 89.1069 116.817 88.5486 116.702 88.48C116.588 88.4127 116.031 88.6352 115.863 88.8159C115.205 89.5258 112.817 89.456 111.848 88.938C111.296 88.643 110.441 87.7763 110.26 87.105C110.243 87.0508 110.224 86.9622 110.2 86.854C110.096 86.3696 109.902 85.4767 109.446 85.3491C109.291 85.2717 108.53 84.9097 107.742 84.5483C106.968 84.174 106.025 83.7349 105.663 83.5669C105.057 83.2701 104.953 83.2571 104.411 83.3989C103.817 83.5409 103.417 84.2385 103.417 84.5483C103.417 85.0261 103.624 85.9172 104.179 86.7046C105.057 87.9567 106.386 89.1321 108.542 90.5649C110.478 91.8559 110.905 92.2696 111.551 93.4702C112.209 94.7094 112.48 95.9878 112.506 97.937C112.518 99.3576 108.174 104.908 102.126 104.367C96.0773 103.824 89.4599 102.107 85.3154 100.042C80.913 97.8338 77.0262 94.9807 73.4629 91.3013C71.7845 89.5842 71.6549 89.4157 70.1445 86.8726C68.2474 83.6591 68.1305 83.4379 68.2207 83.0767C68.2853 82.8056 68.2854 82.8056 66.9043 82.896C65.3423 83.0122 62.4763 82.8442 60.7461 82.5474C56.2791 81.7727 52.3017 79.978 48.377 76.9829C48.0413 76.7247 47.7962 76.5954 47.835 76.6987C47.8986 76.8531 47.7043 76.9306 47.0215 77.0337C45.9761 77.2144 45.0331 77.0083 44.5811 76.5181C43.8839 75.7564 42.9807 73.432 42.916 72.2183C42.8902 71.612 42.7989 71.2631 42.6699 71.1724C42.5669 71.0949 42.4768 70.9273 42.4766 70.7983C42.4766 70.6564 42.4119 70.6045 42.2959 70.6431C42.1927 70.6818 42.0119 70.6042 41.8828 70.4624C41.8693 70.4474 41.7862 70.3893 41.6494 70.2935C40.6086 69.564 36.44 66.6418 35.6982 63.6968C34.8592 60.3641 34.4971 58.1972 34.3809 57.3062C34.1614 55.7313 34.1484 55.6663 33.4902 54.6597C32.535 53.1752 31.4769 51.1349 31.2959 50.4761L31.1533 49.9077L30.8184 51.2769C30.6248 52.0383 30.4698 52.8901 30.4697 53.1743C30.4697 53.5355 30.4046 53.73 30.2627 53.7817C29.8626 53.9365 29.6299 53.6131 29.333 52.5161C29.0748 51.5349 29.0487 51.2373 29.1133 49.4429C29.1908 47.3646 29.4103 45.4538 29.7588 43.9692C30.2623 41.8132 31.0631 39.786 31.6699 39.1274C31.941 38.8306 32.2761 38.7401 32.2764 38.9722C32.2762 39.0494 32.186 39.101 32.083 39.1011C31.5794 39.1019 30.4563 42.7166 30.0303 45.647C29.8238 47.1313 29.7335 51.75 29.9268 51.7544C29.9787 51.7529 30.147 51.3657 30.3145 50.9019C30.6631 49.9078 31.1928 49.0435 31.4639 49.0435C31.5922 49.0437 31.6055 49.1079 31.5283 49.2495C31.3864 49.4948 31.5795 50.2306 31.915 50.7212C31.9603 50.7916 32.0642 50.9583 32.2041 51.1821L32.2061 51.1841C32.4265 51.5366 32.7369 52.0328 33.0518 52.5288L33.9678 54.0142L33.8906 52.3354C33.8261 51.2769 33.8518 50.2434 33.9551 49.5591C34.0971 48.4364 34.4327 47.5334 34.665 47.5972C34.8196 47.6365 34.8205 48.0893 34.627 49.8052C34.5366 50.5408 34.4976 51.1737 34.5234 51.2124C34.5626 51.2365 34.6658 51.0947 34.7686 50.8892C34.8847 50.6955 35.2205 50.2311 35.5303 49.8696C35.853 49.5081 36.2663 48.888 36.46 48.4878C36.8215 47.7519 38.3706 45.8797 39.1582 45.2212C39.468 44.963 39.765 44.4982 40.1006 43.7495C42.2825 38.766 46.1819 34.3893 50.9717 31.5747C52.1976 30.8521 52.2885 30.7736 52.0049 30.6704C51.8499 30.6058 51.2684 30.3348 50.7393 30.0767C50.3608 29.8921 50.0081 29.7265 49.8193 29.6382C49.7452 29.6035 49.6957 29.5803 49.6807 29.5728C49.6418 29.5478 49.5642 29.6509 49.5127 29.7925C49.3965 30.1795 49.2029 30.128 49.0352 29.6636C48.9578 29.4443 48.7644 29.2245 48.5967 29.1597C48.1964 29.0047 48.1964 28.6692 48.5967 28.5659C48.9454 28.4889 49.6297 28.799 50.7393 29.5474C51.1264 29.8055 51.656 30.1282 51.9014 30.2573C52.1463 30.3863 52.3916 30.5413 52.4307 30.606C52.4711 30.6567 52.9356 30.5148 53.4639 30.27C57.2723 28.5272 59.2293 27.7103 65.0059 27.7007ZM82.707 77.0728C79.0275 79.8485 74.4698 81.7986 69.7832 82.5991C68.673 82.7799 68.4408 82.8566 68.7119 82.9341C68.97 82.9988 69.1895 83.2451 69.4863 83.7612C70.9068 86.279 74.4961 90.823 77.2588 93.1597C83.8176 98.6854 92.8816 102.262 100.383 102.92C102.771 103.127 105.909 102.611 107.69 101.72C108.736 101.191 109.885 100.287 110.298 99.6802C110.93 98.725 111.406 97.6659 111.422 97.2397C111.551 93.7138 108.146 91.3014 106.167 90.0747C103.649 88.5135 102.332 86.2395 102.332 84.9741C102.332 83.8511 102.861 83.1154 103.146 82.728L103.417 82.3667L103.133 82.186C101.364 81.1017 99.5047 80.0555 97.749 79.1519C96.5744 78.5452 95.2058 77.7828 94.7148 77.4341L93.7979 76.8276L93.4756 77.1245C92.8818 77.6925 91.8097 78.0931 90.9189 78.0933C90.1445 78.0933 90.0662 78.0667 89.6533 77.6538L89.2012 77.2017L88.6465 77.5767C87.8333 78.1317 86.4905 78.7385 86.0898 78.7388C85.0959 78.7387 83.7532 77.8864 83.4043 77.0474L83.25 76.6724L82.707 77.0728ZM98.7939 70.1011C98.0195 69.6493 97.8643 69.61 97.8643 69.9067C97.8643 70.2941 97.0765 72.0888 96.4697 73.0571C96.1469 73.5865 95.5144 74.5417 95.0625 75.1743L94.2627 76.3237L95.1924 76.7368C95.3872 76.8268 97.5126 77.8481 100.065 79.0747C104.172 81.048 109.385 83.5531 109.445 83.5669C109.497 83.5669 109.739 83.0064 109.794 82.353C109.923 80.9459 110.401 79.0353 110.956 77.7056C111.214 77.1117 111.421 76.3688 111.421 76.3042C111.419 76.2745 111.21 76.1894 110.867 76.0513C110.458 75.8863 109.859 75.6452 109.2 75.3296C105.947 73.7674 99.5818 70.5789 98.7939 70.1011ZM96.9346 75.1489C97.3925 75.1877 108.427 80.7792 109.227 81.2427C109.596 81.4573 108.955 81.7721 108.8 81.8237C107.888 81.9011 106.813 81.7299 105.934 81.2173C105.473 80.8908 101.85 78.8775 99.4473 77.5425C98.3489 76.9322 97.5051 76.464 97.335 76.3628C96.7927 76.04 96.2769 75.6907 96.1865 75.5874C95.9155 75.2389 96.1731 75.0845 96.9346 75.1489ZM94.8438 62.186C94.521 61.9666 93.7717 62.0956 93.1133 62.4829C92.5582 62.7927 92.3646 62.9995 92.1064 63.5415C91.9389 63.9153 91.7964 64.2766 91.7959 64.3677C91.7959 64.6388 90.6211 67.4404 90.1562 68.2798C88.7619 70.7974 87.1484 72.9152 85.0439 74.981L83.6758 76.3364L84.0625 76.814C84.2949 77.1109 84.6565 77.3696 84.9922 77.4858C85.9088 77.8215 86.4513 77.7571 87.3809 77.2407C88.3233 76.7114 89.0203 76.0269 90.0918 74.6069C90.492 74.0776 91.0478 73.3156 91.3447 72.9282C93.2426 70.3848 94.1595 68.6159 94.8438 66.1499C95.4634 63.9037 95.4633 62.5993 94.8438 62.186ZM96.3613 67.0298C95.8727 67.0298 95.5099 67.4856 94.8945 69.0933C94.0912 71.192 89.6225 76.8748 89.5889 76.9175L89.8594 77.189C90.0917 77.4213 90.2212 77.4468 90.6729 77.3823C91.3829 77.2661 92.6032 76.7501 93.1455 76.2466C93.3779 76.0142 93.9072 75.3426 94.3203 74.7358C96.1019 72.0892 96.6957 70.8624 97.083 69.0034C97.3153 67.8547 97.1416 67.5186 96.9609 67.2476C96.8577 67.0927 96.6345 67.0298 96.3613 67.0298ZM38.7842 46.9897C38.6915 46.9022 35.6591 50.3853 35.2461 51.4966C35.1552 51.7407 34.9103 52.1673 34.7168 52.4253L34.3809 52.8569C34.3841 52.8756 34.4872 53.472 34.6006 54.2183C34.8726 56.0095 34.8073 56.4931 35.1172 57.9907C35.3237 59.0491 35.5304 59.9662 35.582 60.0308C35.6214 60.111 35.7887 60.7035 35.9561 61.3599C36.3175 62.8186 36.9246 64.265 37.4668 64.9751C38.5126 66.3178 39.8945 67.8415 40.54 68.3579C40.9272 68.6676 41.2632 68.9263 41.2891 68.9263C41.2981 68.9187 41.0153 68.3271 40.6562 67.6089C39.1974 64.704 38.3446 61.8118 37.9443 58.481C37.854 57.7454 37.7125 57.1251 37.5576 56.8667C37.2479 56.3503 37.2476 55.6789 37.5703 55.0464C37.7381 54.7108 37.8281 54.2844 37.8281 53.8198V53.1099L37.209 53.7554C36.6024 54.3877 36.022 54.6459 36.0215 54.2593C36.0215 53.9752 36.9769 52.6062 37.4805 52.1802C37.8803 51.8448 37.9315 51.7277 38.0605 50.7212C38.1509 50.1144 38.3576 49.0426 38.5254 48.3325C38.7055 47.6251 38.809 47.0196 38.7842 46.9897ZM31.7861 44.0464C31.9795 43.853 32.147 43.7627 32.1475 43.8267C32.1468 43.9948 31.5024 44.589 31.1797 44.7183C30.9731 44.8086 31.0375 44.8472 31.541 44.9634C31.8893 45.0408 32.1218 45.1569 32.0703 45.2085C31.9025 45.3762 31.0118 45.2986 30.8047 45.0923C30.4821 44.7825 30.5599 44.5625 31.0117 44.4722C31.2441 44.4333 31.5926 44.2399 31.7861 44.0464ZM36.1758 44.2397C36.3823 43.8268 36.473 43.7497 36.5117 43.9175C36.5373 44.0467 36.4725 44.2918 36.3564 44.4595C36.0725 44.8983 36.0985 44.9497 36.5371 44.8853C36.9757 44.8208 37.0536 44.963 36.6797 45.1694C36.3699 45.3243 36.0592 45.3244 35.6592 45.1567C35.3497 45.0405 35.3756 44.7827 35.6982 44.7827C35.8016 44.7822 36.021 44.5364 36.1758 44.2397ZM39.623 31.2778C40.8754 30.9164 42.2834 30.8647 42.6836 31.1616C42.902 31.3288 42.8237 31.3421 41.8701 31.355C39.8044 31.355 37.4153 32.4134 33.5293 35.0083C31.5152 36.351 29.1777 38.2756 29.1777 38.5854C29.1802 38.6485 29.5543 38.5199 30.0176 38.314C31.0116 37.8622 32.0315 37.6296 32.4834 37.7329C32.9606 37.862 32.8571 38.0302 32.2119 38.1206C31.9016 38.1725 30.9337 38.5591 30.082 38.9849C29.2202 39.3965 28.4862 39.7441 28.4297 39.7339C27.1128 39.5919 28.9456 37.3973 32.2764 35.1509C35.4652 32.9949 37.6219 31.8588 39.623 31.2778ZM39.1846 34.9185C39.8163 34.9056 39.9592 34.9441 39.998 35.1245C40.0366 35.3049 39.9584 35.3313 39.6104 35.2798C39.378 35.2411 39.0421 35.267 38.8613 35.3315L38.5391 35.4478L38.8359 35.5376C39.2227 35.6667 39.1971 35.8871 38.7197 36.1968C38.5002 36.3388 37.8799 36.9454 37.3506 37.5522L36.3828 38.6499L37.4287 38.688C38.0093 38.7138 38.4745 38.7787 38.4746 38.8433C38.4745 38.9721 38.4215 38.9859 37.209 39.231C35.8276 39.5021 35.6076 39.3852 36.0078 38.6235C36.2662 38.1069 38.3455 36.0024 38.5908 36.0024C38.6676 36.0021 38.7319 35.9512 38.7324 35.8999C38.7324 35.8354 38.3962 35.732 37.9961 35.6675C36.5504 35.4351 37.3384 34.9443 39.1846 34.9185ZM45.2656 33.2524C45.3714 33.1499 46.6326 33.2913 46.8145 33.4331C46.8919 33.4974 47.0086 33.4851 47.0859 33.4077C47.2666 33.2272 47.5116 33.369 47.5117 33.6528C47.5117 33.8074 47.4724 33.8204 47.3564 33.7046C47.2533 33.6016 47.1629 33.6017 47.0469 33.6919C46.9438 33.782 46.8662 33.7819 46.8018 33.6792C46.7631 33.6147 46.5178 33.5494 46.2598 33.5493C46.0216 33.5493 45.9087 33.5498 45.8857 33.5952C45.8652 33.636 45.917 33.7135 46.0146 33.8599C46.2201 34.1809 46.2071 34.1829 45.7344 34.2212H45.7305C45.356 34.247 45.2652 34.3119 45.291 34.4927C45.2923 34.5015 45.2937 34.5108 45.2949 34.519C45.3093 34.614 45.3181 34.6694 45.2969 34.686C45.268 34.7085 45.1842 34.6609 44.9893 34.5503C44.9784 34.5442 44.9666 34.5373 44.9551 34.5308C44.7102 34.4018 44.6843 34.3371 44.8262 34.2339C44.9166 34.1564 45.1619 34.0402 45.3555 34.0015L45.7168 33.9116L45.4463 33.6274C45.3043 33.4596 45.2269 33.3041 45.2656 33.2524ZM40.7207 29.8706C40.4754 29.2251 41.7793 28.9789 44.3613 29.1597C46.5172 29.3146 47.6407 29.535 48.5186 29.9868C49.0216 30.2577 49.0735 30.309 48.8027 30.3091C48.6219 30.309 48.1309 30.2316 47.7051 30.1284C47.2787 30.0123 46.0653 29.8959 44.9941 29.8442L43.0576 29.7671L43.4189 30.1284C43.6124 30.322 43.7675 30.6188 43.7676 30.7866C43.7675 31.1607 43.6641 31.1607 43.29 30.7866C42.9414 30.4381 41.908 30.0641 41.2754 30.064C40.9664 30.0639 40.76 29.9991 40.7207 29.8706Z" fill="#00160A"/>
<path d="M125.61 89.8191C127.217 85.4426 126.974 84.5102 126.695 84.419C126.695 84.419 126.082 84.7676 125.81 85.5035C125.307 86.885 123.583 90.5 122.938 91.1456C122.176 91.9073 122.176 91.9073 121.401 91.9073C120.627 91.9073 118.393 90.7407 118.088 89.5908C117.602 87.7509 119.697 81.359 119.749 80.9975L119.4 80.7522C119.168 80.9717 116.145 90.1385 112.17 87.75C111.715 87.4765 110.75 86.1878 110.672 85.5035C110.242 83.5152 112.216 76.5626 112.552 75.1345C112.852 73.8563 114.417 72.6699 116.34 72.6699C119.297 72.6699 118.9 75.2544 120.224 76.1651C120.811 76.5687 121.775 75.837 122.073 75.7815C123.738 75.4716 124.377 75.8324 125.597 76.8014C126.54 77.5494 127.237 79.0299 128.005 79.5515C128.431 79.8413 128.884 79.4451 129.032 79.3707C129.639 79.0658 130.943 79.2933 131.304 79.5515C131.834 79.7826 133.133 81.031 133.338 81.757C134.268 85.0478 131.332 92.3434 130.223 93.7119C128.388 95.9773 124.004 94.1955 125.61 89.8191Z" fill="white"/>
<path fill-rule="evenodd" clip-rule="evenodd" d="M51.3851 77.8272C54.9227 80.0608 58.5705 81.5198 62.7278 81.92C66.0072 82.2299 70.4289 81.8038 73.605 80.7709C76.2776 79.9059 79.8927 77.5095 82.307 75.4825C86.9937 71.5576 89.9503 65.4268 91.2414 58.9196C91.4222 58.0029 91.6979 55.6987 91.6849 53.4134C91.6849 50.7538 90.5144 43.4856 86.9679 39.2949C79.6531 30.6514 67.6292 26.7578 57.524 30.0846C53.8787 31.2847 49.9975 33.4591 47.0667 36.2995C43.3742 39.9017 40.65 44.8079 39.5654 49.8173C38.4293 55.1109 39.9072 61.4373 42.4765 66.6275C44.5294 70.759 47.912 75.6194 51.3851 77.8272ZM85.8575 62.2248C83.4303 69.5196 77.1039 74.968 69.1507 76.6206C67.937 76.8659 67.0978 76.9563 65.3936 76.9821C64.1928 77.0209 62.9921 77.008 62.7468 76.9821C57.1821 76.3108 52.9473 74.2579 49.0482 70.3588C47.344 68.6416 46.6209 67.712 45.5622 65.8787C43.8967 62.9737 43.0058 60.0041 42.7347 56.4278C41.8051 44.1752 50.5717 33.9626 62.9146 32.9039C67.7563 32.4907 73.1273 33.9755 77.2071 36.8676C78.7177 37.9392 81.4549 40.6505 82.307 41.9158C82.6556 42.4193 86.0383 47.3642 86.6322 50.2047C87.3939 53.8972 87.097 58.5194 85.8575 62.2248Z" fill="white"/>
<path fill-rule="evenodd" clip-rule="evenodd" d="M91.6883 53.4135C91.6883 62.0796 87.589 71.5538 82.2987 75.6C79.7747 77.5304 76.4762 79.868 73.6037 80.771C69.3942 82.0945 62.7266 81.9201 62.7266 81.9201C62.7266 81.9201 69.5289 81.0108 72.0498 79.9963C79.2784 77.0872 83.2244 72.6215 85.661 68.3368C90.4708 59.879 91.6883 53.203 91.6883 53.4135Z" fill="#E7EAEE"/>
<path fill-rule="evenodd" clip-rule="evenodd" d="M62.8759 75.4329C59.4287 74.9939 56.0073 73.7674 53.2443 71.9469C51.6046 70.8753 49.1257 68.3577 47.925 66.563C46.2078 63.9808 45.0716 61.2179 44.5165 58.2483C44.1162 56.0922 44.1291 52.7741 44.5294 50.8503C44.9425 48.8878 45.4719 47.3902 46.4144 45.4922C47.5118 43.2974 48.6738 41.6835 50.4168 39.9405C53.3863 36.971 56.8336 35.0859 60.9393 34.1822C62.2691 33.8981 67.0849 33.6657 67.2528 33.8852C67.2915 33.9498 67.5497 34.1176 67.8209 34.2596C68.092 34.4146 68.815 34.9568 69.4089 35.4862C70.2998 36.2609 70.7 36.7515 71.4747 37.9651C72.004 38.7914 72.4301 39.5403 72.4301 39.6048C72.4301 39.7468 72.8432 40.005 73.0756 40.005C73.3984 40.005 73.6179 39.0367 73.6825 37.3325C73.7212 36.39 73.7987 35.6153 73.8503 35.6153C74.0311 35.6153 76.0194 36.7127 76.949 37.3325C78.7694 38.5461 80.5899 40.2504 81.9326 42.0321C82.5394 42.8326 82.6298 43.0391 82.6298 43.5298C82.6298 43.9816 82.7589 44.3302 83.1592 45.0274C84.1662 46.7833 84.9538 48.9911 85.4315 51.4313C85.7414 53.071 85.7414 56.1697 85.4186 57.8868C84.5406 62.6123 81.9326 67.3119 78.537 70.2943C75.6579 72.812 72.5979 74.3613 68.9829 75.123C67.7434 75.3942 64.025 75.5749 62.8759 75.4329ZM53.6446 66.6018C53.7608 66.4727 53.8382 66.279 53.7995 66.1886C53.7879 66.1615 53.6262 66.0855 53.3896 65.9743L53.3896 65.9742C52.8379 65.7149 51.8789 65.264 51.4633 64.7942C49.8107 62.9092 49.2039 61.5019 48.8295 58.5969C48.468 55.7694 48.7717 53.8579 49.4234 50.7858C49.7413 49.2871 50.5863 48.0492 51.112 47.279C51.4695 46.7554 51.6793 46.448 51.4755 46.4218C50.972 46.3444 50.8945 46.3831 50.3652 46.8866C49.229 47.9712 48.7125 48.8362 48.1703 50.5017C47.3311 53.1097 47.1689 60.1579 48.8295 63.3353C50.49 66.5126 53.3476 66.9374 53.6446 66.6018ZM72.004 55.7565C71.7848 57.7622 70.8549 60.6627 69.7704 61.928C69.2669 62.5219 67.4186 63.5418 65.8584 63.3353C64.3514 63.1357 63.1729 62.4315 62.1658 60.9209C61.3008 59.6169 60.854 58.034 60.552 56.0405C60.0303 52.5981 62.3079 48.5909 63.2891 47.5967C64.2832 46.5768 64.9933 46.2152 65.8971 46.2023C66.7751 46.2023 67.3432 46.396 68.234 47.0286C69.8608 48.1648 72.4301 51.8591 72.004 55.7565ZM54.6 45.0791C54.8582 44.7821 54.8969 44.6401 54.8195 44.0849C54.7678 43.5685 54.6645 43.3619 54.3934 43.1424C53.9157 42.7551 53.3218 42.7551 52.8828 43.1682C52.5729 43.4652 52.5342 43.5685 52.5729 44.2786C52.6117 45.0403 52.6375 45.092 53.0636 45.3244C53.6316 45.6343 54.1868 45.5439 54.6 45.0791ZM62.6565 37.113C60.3325 38.7785 59.3254 39.4628 58.2796 40.1083C57.4533 40.6248 57.1951 40.6377 57.1951 40.1729C57.1951 39.9276 57.3758 39.6564 57.8406 39.2304L58.4862 38.6365L57.2338 38.4686C55.8265 38.2879 54.4579 37.9005 54.161 37.6036C53.6704 37.1001 54.0964 36.9839 55.4908 37.2421C56.1106 37.3454 57.3113 37.4745 58.1634 37.5003L59.7127 37.5649L60.836 36.7515C63.302 34.9697 65.8584 33.9627 67.0849 34.2725C67.8467 34.4533 67.7563 34.6599 66.8913 34.7632C65.8971 34.8794 65.2903 35.2151 62.6565 37.113Z" fill="white"/>
<path d="M65.9746 61.5666C65.9746 61.5021 66.0521 61.4375 66.1554 61.4375C66.2587 61.4375 66.3878 61.5021 66.4265 61.5666C66.4652 61.6441 66.3878 61.6957 66.2457 61.6957C66.0908 61.6957 65.9746 61.6441 65.9746 61.5666Z" fill="white"/>
<path d="M66.748 61.4503C66.748 61.3083 67.0708 61.1792 67.4323 61.1792C67.7164 61.1921 67.7164 61.1921 67.4711 61.3729C67.187 61.5924 66.748 61.6311 66.748 61.4503Z" fill="white"/>
<path d="M64.7474 61.1147C64.7087 61.0114 64.657 60.8306 64.6183 60.7274C64.5796 60.5982 64.6441 60.5337 64.812 60.5337C64.954 60.5337 65.0702 60.6112 65.0702 60.7144C65.0702 60.8177 65.1089 60.9856 65.1477 61.1018C65.1993 61.2438 65.1606 61.3084 65.0186 61.3084C64.9024 61.3084 64.7732 61.218 64.7474 61.1147Z" fill="white"/>
<path d="M65.4327 60.7918C65.3681 60.4045 65.5101 60.2754 65.9749 60.2754C66.117 60.2754 66.2332 60.4045 66.2848 60.624C66.3881 60.9984 66.2203 61.1792 65.7684 61.1792C65.5618 61.1792 65.4714 61.0888 65.4327 60.7918Z" fill="white"/>
<path d="M64.1145 60.8563C63.8692 60.6626 63.8692 60.6626 64.1403 60.6626C64.3081 60.6626 64.4243 60.7401 64.4243 60.8563C64.4243 61.0887 64.4243 61.0887 64.1145 60.8563Z" fill="white"/>
<path d="M66.7106 60.8436C66.5428 60.6757 66.6202 60.1722 66.8268 60.0947C67.2012 59.9527 67.3691 60.0173 67.4465 60.3529C67.4982 60.5466 67.524 60.7145 67.4982 60.7274C67.3949 60.8436 66.7881 60.921 66.7106 60.8436Z" fill="white"/>
<path d="M67.8587 60.5723C67.82 60.5336 67.7812 60.3657 67.7812 60.2108C67.7812 59.9913 67.8845 59.9009 68.1944 59.8364C68.4655 59.7847 68.6334 59.8105 68.7108 59.9138C68.84 60.1204 68.84 60.3786 68.7238 60.4432C68.4914 60.5723 67.9491 60.6498 67.8587 60.5723Z" fill="white"/>
<path d="M63.5215 60.172C63.5215 60.0171 63.6377 59.888 63.8055 59.8493C64.1412 59.7589 64.1283 59.746 64.1929 60.0817C64.2187 60.2753 64.1541 60.3528 63.883 60.3786C63.599 60.4174 63.5215 60.3657 63.5215 60.172Z" fill="white"/>
<path d="M64.5021 60.1851C64.3213 59.9914 64.4375 59.6299 64.6828 59.6299C64.8507 59.6299 64.941 59.7203 64.941 59.8752C64.941 60.1205 64.6441 60.3271 64.5021 60.1851Z" fill="white"/>
<path d="M65.2772 59.7976C65.174 59.5523 65.3934 59.3716 65.8195 59.3716C66.0132 59.3716 66.1035 59.449 66.1035 59.6169C66.1035 59.7589 65.9873 59.888 65.8195 59.9397C65.3934 60.043 65.3676 60.043 65.2772 59.7976Z" fill="white"/>
<path d="M69.009 59.759C69.0477 59.6944 69.1122 59.6299 69.151 59.6299C69.1897 59.6299 69.1768 59.6944 69.1381 59.759C69.0993 59.8365 69.0348 59.8881 68.996 59.8881C68.9573 59.8881 68.9702 59.8365 69.009 59.759Z" fill="white"/>
<path d="M66.4382 59.5397C66.3349 59.2814 66.464 59.1523 66.8772 59.0878C67.1096 59.062 67.2128 59.1136 67.2387 59.2944C67.329 59.7204 66.5931 59.9528 66.4382 59.5397Z" fill="white"/>
<path d="M63.34 59.3198C63.2238 58.8937 63.2496 58.855 63.5853 58.855C63.7661 58.855 63.9081 58.9066 63.9081 58.9712C63.9081 59.0357 63.9468 59.1778 63.9856 59.281C64.0243 59.4102 63.9468 59.4876 63.7273 59.5264C63.482 59.578 63.3917 59.5264 63.34 59.3198Z" fill="white"/>
<path d="M67.6523 59.1779C67.6523 58.9455 67.7427 58.8422 67.988 58.7777C68.3495 58.6873 68.5561 58.868 68.5561 59.2812C68.5561 59.449 68.4528 59.5007 68.1042 59.5007C67.704 59.5007 67.6523 59.4619 67.6523 59.1779Z" fill="white"/>
<path d="M62.9537 59.178C62.915 59.0748 62.9408 58.9844 63.0054 58.9844C63.0829 58.9844 63.1345 59.0748 63.1345 59.178C63.1345 59.2813 63.1087 59.3717 63.0829 59.3717C63.057 59.3717 63.0054 59.2813 62.9537 59.178Z" fill="white"/>
<path d="M64.2561 59.2814C64.0754 59.1135 64.1786 58.752 64.411 58.6874C64.5531 58.6487 64.6951 58.6616 64.7338 58.7004C64.8888 58.8424 64.7984 59.2168 64.6047 59.2943C64.3594 59.3846 64.3594 59.3846 64.2561 59.2814Z" fill="white"/>
<path d="M68.8667 59.191C68.7247 58.8166 68.8796 58.5325 69.2411 58.4938C69.5123 58.4551 69.5897 58.5067 69.5897 58.7133C69.5897 59.1394 69.4477 59.3718 69.1895 59.3718C69.0475 59.3718 68.9054 59.2943 68.8667 59.191Z" fill="white"/>
<path d="M65.1616 59.0228C65.0066 58.8808 65.0583 58.6226 65.2778 58.5451C65.5231 58.4547 66.0395 58.713 65.8975 58.855C65.7167 59.0099 65.252 59.1261 65.1616 59.0228Z" fill="white"/>
<path d="M66.2837 58.7001C66.1675 58.5193 66.5806 58.2095 66.9163 58.2095C67.0713 58.2095 67.1358 58.2869 67.11 58.429C67.0584 58.6872 66.3999 58.8938 66.2837 58.7001Z" fill="white"/>
<path d="M62.7471 58.6099C62.7471 58.5454 62.7083 58.4033 62.6696 58.2871C62.6309 58.1709 62.6438 58.0806 62.7212 58.0806C62.8891 58.0806 63.0182 58.5712 62.8633 58.6745C62.7987 58.7132 62.7471 58.6874 62.7471 58.6099Z" fill="white"/>
<path d="M63.094 58.3129C63.0166 58.0288 63.1715 57.8223 63.4684 57.8223C63.6363 57.8223 63.8041 58.3258 63.7008 58.4936C63.5588 58.7131 63.1586 58.584 63.094 58.3129Z" fill="white"/>
<path d="M63.999 58.3774C63.8054 58.1837 63.9216 57.7189 64.1798 57.6544C64.3735 57.6027 64.4767 57.6673 64.58 57.8997C64.6575 58.0675 64.6962 58.2354 64.6704 58.2612C64.5413 58.3774 64.0765 58.4678 63.999 58.3774Z" fill="white"/>
<path d="M67.4841 58.3774C67.3163 58.2095 67.3937 58.1062 67.7811 57.9642C68.1038 57.8609 68.1942 57.8738 68.2588 58.0288C68.375 58.3386 67.7294 58.6356 67.4841 58.3774Z" fill="white"/>
<path d="M68.62 58.0807C68.4909 57.8741 68.6716 57.6934 69.0073 57.6934C69.4076 57.6934 69.5238 58.029 69.1623 58.1323C68.7749 58.2356 68.7104 58.2227 68.62 58.0807Z" fill="white"/>
<path d="M69.7188 57.7708C69.7188 57.5771 69.9511 57.3706 70.0544 57.4738C70.1448 57.5642 69.9641 57.9516 69.8349 57.9516C69.7704 57.9516 69.7188 57.8741 69.7188 57.7708Z" fill="white"/>
<path d="M62.578 57.6027C62.5264 57.564 62.4876 57.3961 62.5005 57.2541C62.5005 57.0088 62.5135 57.0088 62.6297 57.2928C62.7588 57.6027 62.7329 57.7576 62.578 57.6027Z" fill="white"/>
<path d="M62.8241 57.4091C62.7079 56.9572 62.7208 56.9185 63.0565 56.9185C63.4309 56.9185 63.6633 57.3962 63.3793 57.5769C63.0823 57.7577 62.9145 57.706 62.8241 57.4091Z" fill="white"/>
<path d="M67.2656 57.6675C67.2656 57.6288 67.3302 57.4222 67.4076 57.1898C67.5884 56.6734 67.9886 56.6476 68.079 57.1511C68.1178 57.3448 68.1307 57.5126 68.1178 57.5255C68.0532 57.603 67.2656 57.7192 67.2656 57.6675Z" fill="white"/>
<path d="M63.7408 57.3447C63.6891 57.306 63.6504 57.1511 63.6504 57.009C63.6504 56.8025 63.6891 56.7895 63.8441 56.9187C63.9473 57.009 64.0377 57.164 64.0377 57.2543C64.0377 57.448 63.8828 57.4997 63.7408 57.3447Z" fill="white"/>
<path d="M68.3875 57.0863C68.3101 56.6861 68.4779 56.5053 68.8782 56.557C69.0718 56.5828 69.1364 56.699 69.1364 56.983C69.1364 57.3058 69.0847 57.3833 68.8007 57.4091C68.5167 57.4478 68.4521 57.3833 68.3875 57.0863Z" fill="white"/>
<path d="M69.6529 57.1378C69.485 56.6214 69.5367 56.4665 69.8853 56.4277C70.1951 56.389 70.2339 56.4277 70.2339 56.7634C70.2339 57.0474 70.1564 57.1636 69.9627 57.2153C69.8207 57.254 69.6787 57.2153 69.6529 57.1378Z" fill="white"/>
<path d="M62.3848 56.4019C62.3848 56.1566 62.4106 56.0533 62.4493 56.1824C62.4751 56.2986 62.4751 56.5051 62.4493 56.6343C62.4106 56.7505 62.3848 56.6472 62.3848 56.4019Z" fill="white"/>
<path d="M62.7067 56.5698C62.5389 56.4148 62.6163 55.9113 62.8229 55.8338C63.1198 55.7177 63.2619 55.8597 63.2619 56.2857C63.2619 56.5569 63.1973 56.6602 63.0295 56.6602C62.9004 56.6602 62.7454 56.6214 62.7067 56.5698Z" fill="white"/>
<path d="M63.4817 56.2212C63.4301 56.0275 63.4042 55.8209 63.4559 55.7822C63.585 55.6531 63.6625 55.8597 63.6237 56.2341L63.585 56.5956L63.4817 56.2212Z" fill="white"/>
<path d="M67.6523 56.1311C67.6523 55.9891 67.7169 55.9116 67.7815 55.9504C67.8589 55.9891 67.9106 56.1182 67.9106 56.2215C67.9106 56.3248 67.8589 56.4023 67.7815 56.4023C67.7169 56.4023 67.6523 56.2861 67.6523 56.1311Z" fill="white"/>
<path d="M68.2344 56.2989C68.0536 56.1052 68.1956 55.7566 68.4926 55.6791C68.867 55.5888 68.8799 55.5888 68.9961 55.9632C69.0736 56.1956 69.0219 56.2472 68.6863 56.2989C68.4797 56.3376 68.2731 56.3247 68.2344 56.2989Z" fill="white"/>
<path d="M69.4216 56.0533C69.2795 55.9242 69.3183 55.4981 69.4603 55.4981C69.5378 55.4981 69.5894 55.4464 69.5894 55.369C69.5894 55.3044 69.5119 55.2399 69.4087 55.2399C69.1892 55.2399 69.0084 54.6072 69.1892 54.4265C69.4216 54.1941 69.6798 54.4394 69.8347 55.072C69.9251 55.4077 70.0155 55.795 70.0542 55.9242C70.1058 56.092 70.0542 56.1436 69.8089 56.1436C69.6411 56.1436 69.4603 56.1049 69.4216 56.0533Z" fill="white"/>
<path d="M70.1188 55.3694C70.0284 54.9821 69.796 54.2074 69.6282 53.6394C69.3699 52.8131 69.3441 52.6065 69.4861 52.5161C69.5765 52.4515 69.6927 52.3999 69.7315 52.3999C69.8735 52.3999 70.3899 55.0467 70.3383 55.5631L70.2995 56.0795L70.1188 55.3694Z" fill="white"/>
<path d="M62.2559 55.3045C62.2559 55.0979 62.2817 55.0204 62.3204 55.1495C62.3462 55.2657 62.3462 55.4465 62.3204 55.5369C62.2817 55.6143 62.2559 55.524 62.2559 55.3045Z" fill="white"/>
<path d="M62.5143 55.2788C62.5659 54.8269 62.9403 54.7236 63.0436 55.1368C63.134 55.4725 63.1598 55.4338 62.7725 55.5629C62.5014 55.6403 62.4756 55.6145 62.5143 55.2788Z" fill="white"/>
<path d="M67.9628 55.1625C67.8596 54.7881 68.079 54.5686 68.4922 54.6203C68.8021 54.659 68.9183 55.2142 68.66 55.382C68.3373 55.5886 68.0403 55.4982 67.9628 55.1625Z" fill="white"/>
<path d="M63.2637 55.0593C63.2637 54.8398 63.3282 54.7236 63.4702 54.7236C63.5994 54.7236 63.651 54.814 63.6252 55.0077C63.5606 55.4208 63.2637 55.4596 63.2637 55.0593Z" fill="white"/>
<path d="M62.1139 54.5172C62.1139 54.3751 62.1526 54.3364 62.1913 54.4397C62.2301 54.5301 62.2171 54.6463 62.1784 54.685C62.1397 54.7367 62.1009 54.6592 62.1139 54.5172Z" fill="white"/>
<path d="M62.3594 54.4782C62.3594 54.2845 62.4368 54.207 62.6305 54.207C62.8113 54.207 62.8758 54.2716 62.85 54.4265C62.7854 54.7622 62.3594 54.8009 62.3594 54.4782Z" fill="white"/>
<path d="M63.0688 54.3623C62.9784 54.13 62.9784 54.13 63.3658 54.0267C63.5982 53.9492 63.6498 53.9879 63.6498 54.1816C63.6498 54.4915 63.185 54.6464 63.0688 54.3623Z" fill="white"/>
<path d="M67.7423 54.1815C67.652 53.8588 67.8198 53.6909 68.2717 53.6909C68.4912 53.6909 68.5557 53.7684 68.5557 54.0137C68.5557 54.2074 68.4783 54.3365 68.375 54.3365C68.2717 54.3365 68.1038 54.3752 68.0006 54.4139C67.8844 54.4527 67.794 54.3752 67.7423 54.1815Z" fill="white"/>
<path d="M68.866 53.8845C68.7627 53.6263 68.9176 53.4326 69.2146 53.4326C69.3953 53.4326 69.4599 53.523 69.4599 53.7554C69.4599 53.9878 69.3953 54.0782 69.2017 54.0782C69.0596 54.0782 68.9047 53.9878 68.866 53.8845Z" fill="white"/>
<path d="M62.2305 53.7037C62.2305 53.4325 62.5274 53.1227 62.6565 53.2647C62.7082 53.3034 62.7469 53.4842 62.7469 53.652C62.7469 53.8586 62.6694 53.949 62.4887 53.949C62.3208 53.949 62.2305 53.8586 62.2305 53.7037Z" fill="white"/>
<path d="M62.9395 53.5488C62.8362 53.226 62.9524 53.084 63.3914 53.0194C63.7916 52.9678 63.9207 53.3939 63.5721 53.6521C63.2365 53.8974 63.0299 53.8587 62.9395 53.5488Z" fill="white"/>
<path d="M67.6147 53.4715C67.5243 53.394 67.4856 52.9163 67.563 52.9163C67.5759 52.9163 67.7696 52.8646 68.002 52.8001C68.3893 52.6839 68.4151 52.6968 68.4022 53.0454C68.3893 53.3036 68.3119 53.4327 68.1182 53.4844C67.7696 53.5747 67.718 53.5747 67.6147 53.4715Z" fill="white"/>
<path d="M67.1367 53.1742C67.1367 53.0838 67.1755 53.0451 67.2271 53.0838C67.2658 53.1354 67.2658 53.2129 67.2271 53.2646C67.1755 53.3033 67.1367 53.2646 67.1367 53.1742Z" fill="white"/>
<path d="M68.5827 52.9676C68.6214 52.7481 69.0216 52.4253 69.112 52.5286C69.1507 52.5674 69.2153 52.7223 69.254 52.8901C69.3444 53.1484 69.3057 53.1742 68.9442 53.1742C68.6343 53.1742 68.5439 53.1225 68.5827 52.9676Z" fill="white"/>
<path d="M62.3594 52.9547C62.3594 52.8902 62.4239 52.7611 62.4885 52.6578C62.5918 52.5029 62.6176 52.5158 62.6176 52.7611C62.6176 52.916 62.566 53.0451 62.4885 53.0451C62.4239 53.0451 62.3594 53.0064 62.3594 52.9547Z" fill="white"/>
<path d="M62.7461 52.6706C62.7461 52.3091 63.0172 52.1929 63.2238 52.464C63.3529 52.6577 63.3529 52.7223 63.2238 52.8126C62.9527 52.9805 62.7461 52.9288 62.7461 52.6706Z" fill="white"/>
<path d="M66.672 52.5028C66.4396 52.2446 66.4396 52.2317 66.6591 52.3092C66.7882 52.3608 66.9561 52.3996 67.0206 52.3996C67.0852 52.3996 67.1368 52.4899 67.1368 52.5932C67.1368 52.8644 66.9561 52.8385 66.672 52.5028Z" fill="white"/>
<path d="M63.8949 52.4899C63.3397 52.0638 63.2622 51.1084 63.7787 51.1084C64.1273 51.1084 64.45 51.6507 64.3984 52.1542C64.3597 52.619 64.2047 52.7223 63.8949 52.4899Z" fill="white"/>
<path d="M67.4329 52.5676C67.4846 52.5289 67.562 52.5289 67.6137 52.5676C67.6524 52.6193 67.6137 52.658 67.5233 52.658C67.4329 52.658 67.3942 52.6193 67.4329 52.5676Z" fill="white"/>
<path d="M69.3832 52.0638C69.4219 51.9476 69.4606 51.8314 69.4606 51.8056C69.4606 51.7797 69.5252 51.7539 69.5897 51.7539C69.6672 51.7539 69.7189 51.8701 69.7189 52.0121C69.7189 52.1671 69.6285 52.2703 69.5123 52.2703C69.3703 52.2703 69.3315 52.2058 69.3832 52.0638Z" fill="white"/>
<path d="M62.6172 52.0254C62.6172 51.7284 62.8883 51.2378 63.0433 51.2378C63.3144 51.2378 63.1207 52.0641 62.8367 52.1157C62.7205 52.1416 62.6172 52.1028 62.6172 52.0254Z" fill="white"/>
<path d="M65.5221 51.8832L65.1348 51.7928L65.4834 51.7024C65.8449 51.5992 66.1031 51.6766 66.1031 51.8961C66.1031 52.0252 66.0902 52.0252 65.5221 51.8832Z" fill="white"/>
<path d="M65.0703 51.2633C65.0703 50.7339 65.3673 50.6565 65.6384 51.1213C65.8192 51.4311 65.8321 51.4957 65.6642 51.4957C65.5609 51.4957 65.3931 51.5344 65.2769 51.5732C65.122 51.6377 65.0703 51.5602 65.0703 51.2633Z" fill="white"/>
<path d="M67.3167 51.4442C66.7357 51.186 66.3613 50.5017 66.3613 49.6883C66.3613 49.1073 66.413 48.9653 66.7616 48.6425C66.9811 48.4359 67.2005 48.2681 67.2651 48.2681C67.5491 48.2681 68.5949 49.2622 68.9435 49.8819L69.3438 50.5921L68.9177 51.0439C68.4271 51.5604 67.8848 51.7024 67.3167 51.4442Z" fill="white"/>
<path d="M64.6178 51.1086C64.5791 51.044 64.6049 50.9795 64.6695 50.9795C64.7469 50.9795 64.8115 51.044 64.8115 51.1086C64.8115 51.1861 64.7856 51.2377 64.7598 51.2377C64.7211 51.2377 64.6565 51.1861 64.6178 51.1086Z" fill="white"/>
<path d="M62.9273 50.9021C62.966 50.786 63.0048 50.6698 63.0048 50.6439C63.0048 50.6181 63.121 50.5923 63.263 50.5923C63.5858 50.5923 63.5987 50.7989 63.2759 50.9796C62.9273 51.1604 62.8369 51.1475 62.9273 50.9021Z" fill="white"/>
<path d="M63.9464 50.7469C63.6494 50.7082 63.5591 50.5403 63.7527 50.4241C63.8044 50.3854 64.0368 50.3208 64.2692 50.2692C64.6178 50.1917 64.6823 50.2175 64.6823 50.437C64.6823 50.7082 64.4112 50.8244 63.9464 50.7469Z" fill="white"/>
<path d="M64.9414 50.3078C64.9414 50.1529 64.9543 50.0625 64.9801 50.0884C64.9931 50.1142 65.0963 50.2433 65.1867 50.3724C65.3416 50.5532 65.3287 50.5919 65.148 50.5919C65.0189 50.5919 64.9414 50.4886 64.9414 50.3078Z" fill="white"/>
<path d="M63.1328 50.2175C63.1328 50.14 63.1974 50.0496 63.2619 50.0109C63.3394 49.9722 63.391 50.0238 63.391 50.1271C63.391 50.2433 63.3394 50.3337 63.2619 50.3337C63.1974 50.3337 63.1328 50.282 63.1328 50.2175Z" fill="white"/>
<path d="M63.6116 50.0241C63.5083 49.7659 64.425 49.4818 64.5799 49.7272C64.6961 49.9337 64.5799 50.0241 64.0893 50.1274C63.7924 50.192 63.6633 50.1661 63.6116 50.0241Z" fill="white"/>
<path d="M64.8248 49.6109C64.8248 49.4689 64.8635 49.4302 64.9023 49.5335C64.941 49.6238 64.9281 49.74 64.8894 49.7788C64.8506 49.8304 64.8119 49.7529 64.8248 49.6109Z" fill="white"/>
<path d="M63.7275 49.4041C63.8825 49.1201 64.3344 48.6553 64.4506 48.6553C64.5797 48.6553 64.5926 49.2621 64.4635 49.3396C64.3989 49.3654 64.1923 49.4299 63.9987 49.4816C63.7146 49.5461 63.6501 49.5332 63.7275 49.4041Z" fill="white"/>
<path d="M64.7612 49.1073C64.6192 48.7199 64.6837 48.5521 64.9936 48.5004C65.3164 48.4359 65.3164 48.4359 65.1098 48.8361C64.8516 49.3526 64.8645 49.3526 64.7612 49.1073Z" fill="white"/>
<path d="M64.6836 48.3327C64.6836 48.3069 64.9418 48.1261 65.2646 47.9454C65.6519 47.713 65.9231 47.6355 66.1167 47.6872C66.3491 47.7646 66.2846 47.8163 65.7165 48.0874C65.0838 48.3714 64.6836 48.4747 64.6836 48.3327Z" fill="white"/>
<path d="M71.8481 36.8937C71.4995 36.3902 70.7636 35.5768 70.2342 35.0862C69.7048 34.5956 69.3563 34.1953 69.4595 34.1953C69.7436 34.1953 71.9126 34.7892 72.4549 35.0216C72.9068 35.2153 72.9197 35.2411 72.8035 35.6413C72.7389 35.8737 72.6873 36.4547 72.6873 36.9324C72.6873 37.4231 72.6486 37.8104 72.5969 37.8104C72.5324 37.8104 72.2096 37.3972 71.8481 36.8937Z" fill="white"/>
<path d="M45.5748 76.0013C45.0454 75.7301 44.9292 75.5752 44.2579 74.2454C43.2895 72.3603 43.2637 71.9214 44.1804 72.993C44.5419 73.4191 45.3811 74.297 46.0396 74.9426C47.1628 76.0271 47.2145 76.1045 46.8401 76.0529C46.5689 76.0142 46.4656 76.04 46.5302 76.1433C46.6851 76.3757 46.1945 76.3111 45.5748 76.0013Z" fill="white"/>
<path fill-rule="evenodd" clip-rule="evenodd" d="M67.2133 99.5239C67.1061 99.2694 67.2256 98.9762 67.4801 98.8691L67.7582 98.751C70.4627 97.5939 72.015 96.8987 73.0698 95.795C74.1246 94.6912 74.2508 93.0699 74.4489 92.0834C74.5033 91.8127 75.1164 92.2881 75.3871 92.3425C75.6578 92.3969 75.8332 92.6605 75.7788 92.9312C75.5406 94.1173 74.899 95.2481 73.8661 96.3215C72.8366 97.3914 70.8435 98.538 67.8681 99.7907C67.6136 99.8979 67.3204 99.7784 67.2133 99.5239Z" fill="#00160A"/>
<path fill-rule="evenodd" clip-rule="evenodd" d="M79.4432 48.0089C79.6804 47.8677 79.9873 47.9455 80.1285 48.1828C81.5428 50.5586 82.3005 53.2745 82.3005 56.1002C82.3005 64.6606 75.3609 71.6002 66.8005 71.6002C64.5258 71.6002 62.3195 71.1095 60.2992 70.1748C60.0486 70.0588 59.1019 69.1356 60.0554 69.5111C61.0089 69.8866 64.6981 70.7294 66.827 70.7294C74.8352 70.7294 80.5005 64.1083 80.5005 56.1002C80.5005 53.4558 79.4432 51.1087 79.2693 48.6943C79.2491 48.4144 79.2059 48.1502 79.4432 48.0089Z" fill="#00160A"/>
<path fill-rule="evenodd" clip-rule="evenodd" d="M29.9244 85.8511C30.1012 85.6389 30.4164 85.2102 30.6286 85.3869C31.499 86.112 32.4279 86.952 33.4215 87.1141C34.4554 87.2828 35.682 87.2828 37.0996 87.1112C37.3738 87.078 37.6229 87.2733 37.6561 87.5475C37.6893 87.8216 37.494 88.0708 37.2198 88.1039C35.7144 88.2862 34.3951 88.2862 33.2604 88.101C32.0854 87.9093 30.9927 87.3917 29.9886 86.5553C29.7764 86.3786 29.7477 86.0633 29.9244 85.8511Z" fill="#00160A"/>
<path d="M40.5394 68.3578C39.8939 67.8413 38.5124 66.3178 37.4666 64.9751C36.9243 64.265 36.3175 62.8189 35.956 61.36C35.7882 60.7015 35.6203 60.1076 35.5816 60.0301C35.5299 59.9656 35.3234 59.0489 35.1168 57.9902C34.8069 56.4925 34.8725 56.01 34.6003 54.2186C34.4851 53.4601 34.3809 52.8566 34.3809 52.8566L34.7165 52.4255C34.9102 52.1673 35.1552 51.74 35.2459 51.496C35.6591 50.3843 38.6931 46.8996 38.7835 46.99C38.8093 47.0158 38.7061 47.6226 38.5253 48.3328C38.3575 49.0429 38.1509 50.1145 38.0605 50.7213C37.9314 51.7284 37.8797 51.8446 37.4795 52.1802C36.976 52.6063 36.0206 53.9749 36.0206 54.2589C36.0206 54.6462 36.6016 54.388 37.2084 53.7554L37.8281 53.1098V53.8199C37.8281 54.2847 37.7377 54.7108 37.5699 55.0465C37.2471 55.6791 37.2471 56.3505 37.557 56.8669C37.7119 57.1252 37.8539 57.7449 37.9443 58.4808C38.3445 61.8119 39.1967 64.7039 40.6556 67.6089C41.0171 68.3319 41.3012 68.9258 41.2883 68.9258C41.2624 68.9258 40.9267 68.6676 40.5394 68.3578Z" fill="white"/>
<path fill-rule="evenodd" clip-rule="evenodd" d="M94.2617 76.3239L95.1913 76.737C95.3841 76.826 97.5105 77.8477 100.065 79.075C104.183 81.0538 109.413 83.567 109.445 83.567C109.497 83.567 109.739 83.0067 109.794 82.3533C109.923 80.946 110.401 79.0352 110.956 77.7053C111.214 77.1114 111.42 76.3692 111.42 76.3046C111.42 76.2752 111.211 76.1905 110.867 76.0519C110.458 75.8869 109.859 75.6455 109.2 75.3297C105.946 73.7675 99.5811 70.5785 98.7935 70.1008C98.0188 69.6489 97.8639 69.6101 97.8639 69.9071C97.8639 70.2944 97.0763 72.0891 96.4695 73.0574C96.1467 73.5867 95.5141 74.5421 95.0622 75.1748L94.2617 76.3239ZM109.226 81.243C109.596 81.4575 108.954 81.7723 108.8 81.824C107.887 81.9014 106.813 81.7299 105.933 81.2171C105.473 80.8909 101.85 78.8781 99.4471 77.543C98.3484 76.9326 97.5047 76.4639 97.3345 76.3626C96.7923 76.0398 96.2758 75.6912 96.1855 75.5879C95.9143 75.2393 96.1726 75.0844 96.9343 75.149C97.3923 75.1878 108.426 80.7795 109.226 81.243Z" fill="white"/>
<path d="M84.9927 77.4858C84.657 77.3696 84.2955 77.1114 84.0631 76.8144L83.6758 76.3367L85.0444 74.9811C87.1488 72.9153 88.6982 70.6577 90.0926 68.14C90.5574 67.3008 91.9388 63.9163 92.1067 63.5419C92.3649 62.9996 92.5586 62.7931 93.1137 62.4832C93.7722 62.0959 94.521 61.9668 94.8438 62.1862C95.4635 62.5994 95.4635 63.9034 94.8438 66.1499C94.1595 68.6159 93.2429 70.3847 91.3449 72.9282C91.048 73.3155 90.4928 74.0773 90.0926 74.6067C89.0209 76.0269 88.3238 76.7111 87.3812 77.2405C86.4517 77.7569 85.9094 77.8215 84.9927 77.4858Z" fill="white"/>
<path d="M89.859 77.1891L89.5879 76.9179C89.5879 76.9179 94.088 71.2005 94.8943 69.0939C95.5097 67.4862 95.8718 67.0303 96.3605 67.0303C96.6337 67.0303 96.8568 67.0926 96.9601 67.2476C97.1408 67.5187 97.315 67.8544 97.0826 69.0035C96.6953 70.8627 96.1014 72.0892 94.3197 74.736C93.9065 75.3428 93.3772 76.0142 93.1448 76.2466C92.6025 76.7501 91.3825 77.2665 90.6724 77.3827C90.2205 77.4473 90.0914 77.4215 89.859 77.1891Z" fill="white"/>
<path fill-rule="evenodd" clip-rule="evenodd" d="M97.418 71.2104C97.6784 70.6147 97.8639 70.0951 97.8639 69.9071C97.8639 69.6101 98.0189 69.6489 98.7935 70.1008C99.5811 70.5785 105.946 73.7675 109.2 75.3297C110.413 75.9107 111.421 76.2401 111.421 76.3046C111.421 76.3692 97.142 71.8419 97.418 71.2104Z" fill="#E7EAEE"/>
<path fill-rule="evenodd" clip-rule="evenodd" d="M53.2443 71.9471C51.6046 70.8755 49.1257 68.3578 47.925 66.5632C46.2078 63.981 45.0716 61.218 44.5165 58.2485C44.1162 56.0923 44.1291 52.7742 44.5294 50.8505C44.9425 48.888 45.4719 47.3903 46.4144 45.4924C47.5118 43.2975 48.6738 41.6836 50.4168 39.9406C52.126 38.2314 44.5294 45.2998 46.4144 57.9467C47.925 68.5447 54.4169 72.7197 53.2443 71.9471Z" fill="#E7EAEE"/>
<defs>
<linearGradient id="paint0_linear_2018_1248" x1="15.5742" y1="32.2271" x2="135.806" y2="127.359" gradientUnits="userSpaceOnUse">
<stop offset="0.149038" stop-color="#320863"/>
<stop offset="0.774038" stop-color="#D8C1F3"/>
</linearGradient>
</defs>
</svg>
