<svg width="26" height="27" viewBox="0 0 26 27" fill="none" xmlns="http://www.w3.org/2000/svg">
<path d="M22.5667 5.22994L20.7717 4.01094C20.5334 3.85054 20.2413 3.7907 19.9591 3.84444C19.6769 3.89819 19.4274 4.06117 19.2647 4.29794L10.4777 17.2569L6.43868 13.2179C6.23462 13.0161 5.95919 12.9029 5.67218 12.9029C5.38517 12.9029 5.10974 13.0161 4.90568 13.2179L3.37268 14.7539C3.27187 14.8546 3.1919 14.9742 3.13734 15.1058C3.08277 15.2374 3.05469 15.3785 3.05469 15.5209C3.05469 15.6634 3.08277 15.8045 3.13734 15.9361C3.1919 16.0677 3.27187 16.1873 3.37268 16.2879L9.58168 22.4999C9.93068 22.8469 10.4767 23.1149 10.9687 23.1149C11.4607 23.1149 11.9567 22.8049 12.2757 22.3409L22.8557 6.73494C23.0166 6.49693 23.0765 6.20483 23.0223 5.92269C22.9681 5.64056 22.8043 5.39143 22.5667 5.22994Z" fill="#00BD41"/>
</svg>
