<svg width="56" height="56" viewBox="0 0 56 56" fill="none" xmlns="http://www.w3.org/2000/svg">
<path d="M28.0005 12.5439C13.4405 12.5439 2.01645 25.9839 1.56845 26.6559C0.896453 27.5519 0.896453 28.6719 1.56845 29.5679C2.01645 30.2399 13.4405 43.6799 28.0005 43.6799C42.5605 43.6799 53.7605 30.2399 54.4325 29.5679C55.1045 28.6719 55.1045 27.5519 54.4325 26.6559C53.7605 25.9839 42.5605 12.5439 28.0005 12.5439ZM28.0005 38.7519C22.1765 38.7519 17.2485 33.8239 17.2485 27.9999C17.2485 21.9519 22.1765 17.2479 28.0005 17.2479C34.0485 17.2479 38.7525 21.9519 38.7525 27.9999C38.7525 33.8239 34.0485 38.7519 28.0005 38.7519Z" fill="url(#paint0_linear_4079_299)"/>
<path d="M28.0011 22.8481H27.7771C28.0011 23.2961 28.0011 23.9681 28.0011 24.4161C28.0011 27.1041 25.7611 29.3441 23.0731 29.5681C23.7451 31.8081 25.9851 33.1521 28.0011 33.1521C30.9131 33.1521 33.1531 30.9121 33.1531 28.0001C33.1531 25.0881 30.9131 22.8481 28.0011 22.8481ZM3.36109 40.5441C2.01709 40.5441 1.12109 41.4401 1.12109 42.7841V52.6401C1.12109 53.9841 2.01709 54.8801 3.36109 54.8801H13.2171C14.5611 54.8801 15.4571 53.9841 15.4571 52.6401C15.4571 51.2961 14.5611 50.4001 13.2171 50.4001H5.60109V42.7841C5.60109 41.4401 4.70509 40.5441 3.36109 40.5441ZM3.36109 15.4561C4.70509 15.4561 5.60109 14.5601 5.60109 13.2161V5.60012H13.2171C14.5611 5.60012 15.4571 4.70412 15.4571 3.36012C15.4571 2.01612 14.5611 1.12012 13.2171 1.12012H3.36109C2.01709 1.12012 1.12109 2.01612 1.12109 3.36012V13.2161C1.12109 14.5601 2.01709 15.4561 3.36109 15.4561ZM52.6411 15.4561C53.9851 15.4561 54.8811 14.5601 54.8811 13.2161V3.36012C54.8811 2.01612 53.9851 1.12012 52.6411 1.12012H42.7851C41.4411 1.12012 40.5451 2.01612 40.5451 3.36012C40.5451 4.70412 41.4411 5.60012 42.7851 5.60012H50.4011V13.2161C50.4011 14.5601 51.2971 15.4561 52.6411 15.4561ZM52.6411 54.8801C53.9851 54.8801 54.8811 53.9841 54.8811 52.6401V42.7841C54.8811 41.4401 53.9851 40.5441 52.6411 40.5441C51.2971 40.5441 50.4011 41.4401 50.4011 42.7841V50.4001H42.7851C41.4411 50.4001 40.5451 51.2961 40.5451 52.6401C40.5451 53.9841 41.4411 54.8801 42.7851 54.8801H52.6411Z" fill="url(#paint1_linear_4079_299)"/>
<defs>
<linearGradient id="paint0_linear_4079_299" x1="1.06445" y1="12.5439" x2="42.5455" y2="56.0176" gradientUnits="userSpaceOnUse">
<stop offset="0.149038" stop-color="#320863"/>
<stop offset="0.774038" stop-color="#E8D9F9"/>
</linearGradient>
<linearGradient id="paint1_linear_4079_299" x1="1.12109" y1="1.12012" x2="64.6677" y2="39.6119" gradientUnits="userSpaceOnUse">
<stop offset="0.149038" stop-color="#320863"/>
<stop offset="0.774038" stop-color="#E8D9F9"/>
</linearGradient>
</defs>
</svg>
