<svg width="24" height="24" viewBox="0 0 24 24" fill="none" xmlns="http://www.w3.org/2000/svg">
<g clip-path="url(#clip0_4076_289)">
<path d="M23.9991 12.074C23.9991 5.40502 18.6261 -0.000976562 11.9991 -0.000976562C5.36909 0.000523438 -0.00390625 5.40503 -0.00390625 12.0755C-0.00390625 18.101 4.38509 23.096 10.1211 24.002V15.5645H7.07609V12.0755H10.1241V9.41302C10.1241 6.38752 11.9166 4.71652 14.6571 4.71652C15.9711 4.71652 17.3436 4.95202 17.3436 4.95202V7.92202H15.8301C14.3406 7.92202 13.8756 8.85352 13.8756 9.80902V12.074H17.2026L16.6716 15.563H13.8741V24.0005C19.6101 23.0945 23.9991 18.0995 23.9991 12.074Z" fill="url(#paint0_linear_4076_289)"/>
</g>
<defs>
<linearGradient id="paint0_linear_4076_289" x1="-0.00390625" y1="-0.000976563" x2="28.3687" y2="17.185" gradientUnits="userSpaceOnUse">
<stop offset="0.149038" stop-color="#320863"/>
<stop offset="0.774038" stop-color="#E8D9F9"/>
</linearGradient>
<clipPath id="clip0_4076_289">
<rect width="24" height="24" fill="white"/>
</clipPath>
</defs>
</svg>
