<svg width="24" height="25" viewBox="0 0 24 25" fill="none" xmlns="http://www.w3.org/2000/svg">
<g clip-path="url(#clip0_2018_1845)">
<path d="M24 12.5C24 15.6826 22.7357 18.7348 20.4853 20.9853C18.2348 23.2357 15.1826 24.5 12 24.5C8.8174 24.5 5.76516 23.2357 3.51472 20.9853C1.26428 18.7348 0 15.6826 0 12.5C0 9.3174 1.26428 6.26516 3.51472 4.01472C5.76516 1.76428 8.8174 0.5 12 0.5C15.1826 0.5 18.2348 1.76428 20.4853 4.01472C22.7357 6.26516 24 9.3174 24 12.5ZM12.4305 9.359C11.2625 9.845 8.9295 10.85 5.4315 12.374C4.8645 12.599 4.567 12.82 4.539 13.037C4.494 13.4015 4.9515 13.5455 5.574 13.742L5.8365 13.8245C6.4485 14.024 7.2735 14.2565 7.701 14.2655C8.091 14.2755 8.525 14.1155 9.003 13.7855C12.272 11.5795 13.959 10.4645 14.064 10.4405C14.139 10.4225 14.244 10.4015 14.313 10.4645C14.382 10.5275 14.376 10.6445 14.3685 10.676C14.3235 10.8695 12.528 12.5375 11.5995 13.4015C11.31 13.6715 11.1045 13.862 11.0625 13.9055C10.97 14 10.876 14.0931 10.7805 14.1845C10.2105 14.7335 9.7845 15.1445 10.803 15.8165C11.2935 16.1405 11.6865 16.406 12.078 16.673C12.504 16.964 12.93 17.2535 13.482 17.6165C13.622 17.7085 13.757 17.802 13.887 17.897C14.3835 18.251 14.832 18.569 15.3825 18.518C15.7035 18.488 16.035 18.188 16.203 17.288C16.6005 15.1625 17.382 10.559 17.562 8.6615C17.5733 8.50377 17.5668 8.34526 17.5425 8.189C17.528 8.06301 17.467 7.94696 17.3715 7.8635C17.2348 7.76965 17.0723 7.72088 16.9065 7.724C16.4565 7.7315 15.762 7.973 12.4305 9.359Z" fill="url(#paint0_linear_2018_1845)"/>
</g>
<defs>
<linearGradient id="paint0_linear_2018_1845" x1="0" y1="0.5" x2="28.369" y2="17.6838" gradientUnits="userSpaceOnUse">
<stop offset="0.149038" stop-color="#320863"/>
<stop offset="0.774038" stop-color="#D8C1F3"/>
</linearGradient>
<clipPath id="clip0_2018_1845">
<rect width="24" height="24" fill="white" transform="translate(0 0.5)"/>
</clipPath>
</defs>
</svg>
