<svg width="56" height="56" viewBox="0 0 56 56" fill="none" xmlns="http://www.w3.org/2000/svg">
<path d="M52.2381 4.1891C52.1943 3.99223 52.0412 3.8391 51.8553 3.78441C45.4459 2.22035 30.6475 7.79848 22.6303 15.8157C21.1975 17.2375 19.8959 18.7797 18.7365 20.4204C16.2646 20.2016 13.7928 20.3875 11.6818 21.3063C5.73183 23.9204 4.0037 30.7563 3.51151 33.6875C3.41308 34.2563 3.79589 34.8032 4.37558 34.9016C4.47401 34.9125 4.57245 34.9235 4.67089 34.9125L14.2193 33.8625C14.2303 34.5844 14.274 35.3063 14.3506 36.0172C14.3943 36.5094 14.624 36.9797 14.974 37.3297L18.6709 41.0157C19.0209 41.3657 19.4912 41.5954 19.9834 41.6391C20.6943 41.7157 21.4053 41.7594 22.1271 41.7704L21.0771 51.3079C21.0115 51.8875 21.4381 52.4125 22.0178 52.4672C22.1162 52.4782 22.2146 52.4782 22.3021 52.4563C25.2334 51.986 32.0803 50.2579 34.6834 44.3079C35.6021 42.1969 35.7881 39.736 35.5803 37.275C37.2318 36.1157 38.774 34.8032 40.1959 33.3813C48.235 25.386 53.7803 10.9157 52.2381 4.1891ZM39.5834 23.8328C37.5381 25.8782 34.2131 25.8891 32.1678 23.8328C30.1115 21.7875 30.1115 18.4625 32.1678 16.4063C34.2131 14.35 37.5381 14.35 39.5943 16.4063C41.6396 18.4625 41.6396 21.7875 39.5834 23.8328Z" fill="url(#paint0_linear_4079_295)"/>
<path d="M18.4187 43.6842C17.8172 44.2858 16.8547 44.5155 15.6953 44.7233C13.0922 45.1608 10.7953 42.9186 11.2656 40.2936C11.4406 39.2983 11.9766 37.8983 12.3047 37.5702C12.4906 37.3842 12.5016 37.078 12.3156 36.8921C12.2062 36.7827 12.0641 36.728 11.9109 36.7499C10.4563 36.9249 9.1 37.5921 8.07188 38.6202C5.49063 41.2014 5.25 50.7499 5.25 50.7499C5.25 50.7499 14.8094 50.5092 17.3797 47.928C18.4187 46.8889 19.075 45.5436 19.25 44.078C19.2938 43.6296 18.7359 43.3561 18.4187 43.6842Z" fill="url(#paint1_linear_4079_295)"/>
<defs>
<linearGradient id="paint0_linear_4079_295" x1="3.49609" y1="3.521" x2="61.3865" y2="38.62" gradientUnits="userSpaceOnUse">
<stop offset="0.149038" stop-color="#320863"/>
<stop offset="0.774038" stop-color="#E8D9F9"/>
</linearGradient>
<linearGradient id="paint1_linear_4079_295" x1="5.25" y1="36.7451" x2="21.8029" y2="46.77" gradientUnits="userSpaceOnUse">
<stop offset="0.149038" stop-color="#320863"/>
<stop offset="0.774038" stop-color="#E8D9F9"/>
</linearGradient>
</defs>
</svg>
