<svg width="24" height="24" viewBox="0 0 24 24" fill="none" xmlns="http://www.w3.org/2000/svg">
<path d="M0.00682603 16.2808C0.00682603 13.8605 0.00601556 11.4403 0.00439203 9.02002C0.00321508 8.50114 0.209816 8.07821 0.692396 7.78962C1.24312 7.46027 1.81335 7.15669 2.37575 6.84284C2.66468 6.6816 2.95798 6.52639 3.24356 6.36061C3.3986 6.2706 3.53328 6.27709 3.69061 6.36113C4.68315 6.89132 5.67797 7.41811 6.6751 7.94149C6.73483 7.97301 6.80077 7.99525 6.86382 8.02181C6.88295 7.95581 6.89573 7.88849 6.90202 7.82056C6.90437 6.23102 6.90881 4.64146 6.89886 3.05196C6.89746 2.82723 6.96787 2.69346 7.19056 2.57144C8.69597 1.74652 10.1949 0.912234 11.6873 0.0685874C11.8966 -0.0494244 12.0499 0.0011207 12.2293 0.0978322C13.5649 0.817861 14.9017 1.53603 16.2399 2.25235C16.4474 2.36369 16.6509 2.4823 16.866 2.58056C17.0432 2.66148 17.0983 2.77756 17.0972 2.94721C17.0917 3.76991 17.0956 4.59265 17.0958 5.41538C17.0965 7.51613 17.0974 9.61687 17.0985 11.7176C17.0985 11.771 17.1098 11.8243 17.1158 11.8777C17.1736 11.8614 17.2298 11.8409 17.2837 11.8164C18.2321 11.2983 19.1825 10.7831 20.1238 10.2551C20.3094 10.151 20.4481 10.1435 20.6349 10.2481C21.4018 10.6779 22.1772 11.0958 22.9503 11.5169C23.604 11.873 23.9026 12.3818 23.9004 13.0724C23.8894 16.571 23.8982 20.0696 23.9 23.5682C23.9 23.6321 23.8948 23.6963 23.9003 23.7598C23.9111 23.887 23.8436 23.9216 23.708 23.9231C23.0172 23.9305 22.3266 23.9558 21.6359 23.956C14.5609 23.9586 7.48601 23.959 0.411073 23.9574C0.384138 23.9574 0.357203 23.9576 0.330271 23.9573C0.00488885 23.9544 0.00050926 23.9521 0.000451598 23.6614C-3.84411e-05 21.2012 -0.000128273 18.741 0.000175307 16.2808L0.00682603 16.2808ZM7.94666 12.5576L7.92932 12.5577C7.94987 15.9119 7.97046 19.2662 7.9911 22.6204C7.99302 22.9312 7.99376 22.9317 8.35445 22.9318C9.43185 22.9321 10.5092 22.9323 11.5866 22.9322C11.6405 22.9322 11.6944 22.9314 11.7482 22.9314C11.8483 22.9314 11.9057 22.9023 11.8672 22.8011C11.8499 22.7558 11.8385 22.7088 11.8238 22.6627C11.1489 20.5432 10.4796 18.4222 9.79618 16.3049C9.54546 15.5281 9.34817 14.7579 9.37579 13.933C9.42468 12.4726 9.39085 11.0101 9.39318 9.5484C9.3936 9.28637 9.40722 9.2768 9.69392 9.27324C9.7747 9.27224 9.85553 9.27318 9.93633 9.27337C10.3677 9.27439 10.3689 9.2744 10.3692 9.64723C10.3707 11.2927 10.3692 12.9381 10.376 14.5835C10.3782 14.7423 10.406 14.9 10.4585 15.0518C10.8067 16.0757 11.1638 17.0971 11.5188 18.1192C11.6591 18.5234 11.8009 18.9272 11.944 19.3306C11.9581 19.359 11.9757 19.3859 11.9966 19.4108C12.0136 19.3857 12.0291 19.3598 12.0429 19.3332C12.0563 19.3038 12.0637 19.2722 12.0742 19.2417C12.4638 18.1039 12.8328 16.9601 13.2508 15.8306C13.5087 15.1498 13.6221 14.4323 13.5853 13.7147C13.5595 13.2286 13.5792 12.7404 13.5829 12.2532C13.5847 12.0229 13.5989 12.0139 13.8615 12.0095C13.9782 12.0075 14.095 12.0086 14.2117 12.0087C14.5588 12.0092 14.5619 12.0101 14.5625 12.3115C14.5641 13.1821 14.5661 14.0528 14.5618 14.9234C14.5609 15.0429 14.5417 15.1617 14.5046 15.2766C13.7044 17.7462 12.902 20.2152 12.0974 22.6836C12.0214 22.9173 12.0293 22.9307 12.3027 22.9311C13.434 22.9324 14.5652 22.9322 15.6965 22.9303C15.952 22.9298 15.9622 22.9181 15.9651 22.6793C15.9783 21.6102 15.9986 20.541 16.0008 19.4719C16.0074 16.2209 16.0101 12.97 16.009 9.71904C16.0101 7.64227 16.0078 5.56549 16.014 3.48873C16.0145 3.30942 15.9653 3.19695 15.7752 3.10808C15.3465 2.90764 14.93 2.68626 14.5126 2.46718C13.7088 2.04526 12.907 1.62038 12.1072 1.19255C12.0614 1.16169 12.0052 1.14551 11.9478 1.14663C11.8904 1.14775 11.8351 1.16611 11.7908 1.19871C11.5619 1.33917 11.3282 1.4735 11.0898 1.6017C10.1537 2.10693 9.21947 2.61517 8.27501 3.10782C8.02805 3.23664 7.93935 3.38734 7.94022 3.64348C7.9503 6.61483 7.94666 9.58622 7.94666 12.5576ZM1.0496 15.8736H1.05686C1.05686 18.1338 1.05696 20.3941 1.05716 22.6543C1.05723 22.9326 1.05916 22.9333 1.37044 22.9331C2.62726 22.9324 3.88409 22.9314 5.14092 22.9303C5.64365 22.93 6.14649 22.9261 6.64905 22.9345C6.83309 22.9376 6.90897 22.885 6.9003 22.7156C6.88847 22.4845 6.89248 22.2524 6.89918 22.0209C6.90483 21.9655 6.89201 21.9099 6.8623 21.8609C6.83258 21.812 6.78731 21.7719 6.73214 21.7457C6.3197 21.5194 5.9128 21.2851 5.50287 21.0551C4.78168 20.6506 4.05707 20.2508 3.33907 19.8418C2.757 19.5102 2.46574 19.0411 2.48508 18.4145C2.50282 17.8399 2.48922 17.2645 2.48934 16.6894C2.48942 16.33 2.49094 15.9706 2.48848 15.6112C2.48759 15.4809 2.51785 15.4246 2.67017 15.5143C2.9096 15.6552 3.15408 15.7896 3.40026 15.9211C3.45628 15.9462 3.50288 15.9852 3.53438 16.0334C3.56589 16.0816 3.58092 16.1369 3.57765 16.1926C3.57068 16.8634 3.58866 17.535 3.55834 18.2048C3.54132 18.5808 3.67276 18.8547 4.0278 19.0528C4.3547 19.2352 4.67557 19.4262 5.00053 19.6114C5.5673 19.9344 6.13477 20.2564 6.70295 20.5775C6.87764 20.6761 6.88959 20.6692 6.89744 20.4903C6.90059 20.4186 6.89834 20.3466 6.89837 20.2747C6.89897 18.7732 6.89011 17.2716 6.9084 15.7703C6.9119 15.4826 6.8 15.3272 6.53286 15.1832C5.45852 14.6038 4.39503 14.0084 3.33273 13.4115C2.85309 13.1421 2.51722 12.7689 2.50597 12.2454C2.49381 11.6799 2.5094 11.1123 2.5507 10.5478C2.58243 10.1142 2.86893 9.81702 3.30924 9.62959C3.57143 9.51797 3.84486 9.50424 4.12435 9.51858C4.7563 9.55101 5.38366 9.99997 5.46903 10.5546C5.53788 11.002 5.50677 11.4616 5.51861 11.9158C5.52143 12.0241 5.4651 12.0401 5.3677 11.987C5.19168 11.8911 5.02296 11.7805 4.83643 11.7049C4.51904 11.5762 4.3751 11.3835 4.42275 11.066C4.43934 10.9554 4.39398 10.8291 4.34557 10.7211C4.28185 10.5789 4.13699 10.5335 3.96981 10.5411C3.81166 10.5482 3.68988 10.6114 3.63221 10.7415C3.59791 10.8232 3.57985 10.9097 3.57885 10.9969C3.57135 11.3083 3.58786 11.6206 3.5677 11.9311C3.54817 12.2318 3.69336 12.4296 3.96932 12.5822C4.45717 12.8518 4.93815 13.1313 5.42254 13.4059C5.82367 13.6333 6.22433 13.8614 6.62833 14.0847C6.70462 14.1193 6.78426 14.1476 6.86628 14.1695C6.88112 14.1009 6.89198 14.0316 6.89883 13.9621C6.90441 13.8425 6.901 13.7225 6.90107 13.6027C6.90181 12.253 6.89405 10.9031 6.91067 9.55352C6.91381 9.29888 6.80715 9.16442 6.57591 9.04233C5.60356 8.52895 4.63676 8.00731 3.6755 7.47739C3.53425 7.39972 3.43706 7.41479 3.31139 7.48469C2.657 7.84869 2.00251 8.21273 1.34093 8.56618C1.25498 8.60932 1.18338 8.67191 1.13337 8.7476C1.08336 8.82328 1.05673 8.90938 1.05617 8.99718C1.04728 9.12454 1.04983 9.25262 1.04981 9.38038C1.04951 11.5448 1.04944 13.7092 1.0496 15.8736ZM22.8438 17.8174H22.8476C22.8476 16.2441 22.8416 14.6708 22.8524 13.0976C22.8547 12.7572 22.7199 12.5212 22.3893 12.3506C21.7839 12.0382 21.1855 11.7147 20.5897 11.3879C20.455 11.314 20.3575 11.3222 20.2246 11.3941C19.2357 11.9291 18.243 12.4587 17.2466 12.9827C17.1828 13.01 17.13 13.0541 17.0953 13.109C17.0606 13.1639 17.0457 13.227 17.0527 13.2896C17.0604 13.6317 17.0551 13.9741 17.0552 14.3163C17.0558 17.0955 17.0566 19.8747 17.0574 22.6539C17.0539 22.7097 17.0565 22.7656 17.0653 22.8209C17.0736 22.8584 17.0976 22.8917 17.1324 22.9141C17.3336 23.0182 17.6088 22.9084 17.6694 22.705C18.2899 20.6223 18.9104 18.5396 19.5311 16.457C19.7908 15.5853 20.0574 14.7151 20.3044 13.8405C20.36 13.6434 20.464 13.5785 20.6781 13.592C20.8657 13.6038 21.055 13.5915 21.2435 13.5942C21.5021 13.5979 21.5107 13.6081 21.4455 13.8279C21.0957 15.0086 20.7453 16.1891 20.3944 17.3696C19.8762 19.1131 19.3574 20.8564 18.8381 22.5996C18.7383 22.9338 18.7331 22.933 19.1248 22.9322C20.2996 22.9297 21.4743 22.9253 22.6491 22.9262C22.7771 22.9263 22.8273 22.8906 22.8251 22.7759C22.8228 22.6486 22.8428 22.521 22.8429 22.3935C22.8443 20.8681 22.8446 19.3428 22.8438 17.8174Z" fill="url(#paint0_linear_4079_332)"/>
<path d="M11.4816 12.7356C11.4816 12.5522 11.4834 12.3689 11.481 12.1855C11.4794 12.0668 11.5392 12.0091 11.6744 12.0103C11.8805 12.0121 12.0865 12.0108 12.2926 12.0106C12.4156 12.0105 12.4702 12.0672 12.4701 12.1741C12.47 12.5408 12.4696 12.9075 12.4725 13.2741C12.4734 13.3941 12.411 13.4501 12.2784 13.45C12.0813 13.4499 11.8842 13.4502 11.6871 13.451C11.5432 13.4518 11.4746 13.3941 11.4787 13.2617C11.4841 13.0864 11.48 12.9109 11.48 12.7356H11.4816Z" fill="url(#paint1_linear_4079_332)"/>
<path d="M12.4727 15.4203C12.4727 15.5956 12.4686 15.771 12.474 15.9461C12.4783 16.0823 12.4261 16.1564 12.259 16.1512C12.0712 16.1453 11.8828 16.1451 11.6949 16.1508C11.5307 16.1558 11.4745 16.0874 11.4766 15.9487C11.4819 15.5982 11.4813 15.2475 11.4783 14.897C11.4773 14.7715 11.5274 14.6995 11.6786 14.7007C11.8756 14.7022 12.0726 14.7023 12.2696 14.701C12.4185 14.6999 12.4763 14.7667 12.473 14.8945C12.4686 15.0697 12.4719 15.245 12.4719 15.4203H12.4727Z" fill="url(#paint2_linear_4079_332)"/>
<path d="M10.3675 4.61052C10.3675 4.78529 10.3661 4.96008 10.368 5.13483C10.3692 5.253 10.3078 5.31095 10.1739 5.30989C9.97747 5.30832 9.78104 5.30868 9.58461 5.30834C9.46818 5.30813 9.3962 5.2633 9.39582 5.15335C9.39457 4.79588 9.39423 4.43841 9.3948 4.08094C9.39485 3.97564 9.45184 3.91769 9.57385 3.91744C9.77028 3.91704 9.96672 3.9176 10.1631 3.91651C10.3106 3.91569 10.37 3.98272 10.367 4.11003C10.363 4.27679 10.366 4.44368 10.366 4.61051L10.3675 4.61052Z" fill="url(#paint3_linear_4079_332)"/>
<path d="M12.4697 4.61068C12.4697 4.77781 12.4651 4.94507 12.4711 5.11203C12.4762 5.25624 12.401 5.31327 12.2449 5.30981C12.0571 5.30565 11.8692 5.30692 11.6814 5.30749C11.5516 5.30789 11.4816 5.25988 11.4824 5.13696C11.4849 4.78681 11.4852 4.43665 11.4834 4.08647C11.4829 3.96764 11.5428 3.91079 11.6776 3.91213C11.8743 3.9141 12.0711 3.91323 12.2679 3.91266C12.4173 3.91222 12.4724 3.98388 12.4699 4.10931C12.4664 4.27638 12.469 4.44355 12.469 4.61068H12.4697Z" fill="url(#paint4_linear_4079_332)"/>
<path d="M10.3694 7.29434C10.3694 7.4614 10.3659 7.62853 10.3705 7.7955C10.3742 7.93163 10.3187 8.00491 10.1532 8.00014C9.96564 7.99473 9.77769 7.9968 9.58996 7.99917C9.45349 8.00089 9.3953 7.93962 9.39529 7.82395C9.39525 7.47393 9.395 7.12392 9.39453 6.77391C9.39412 6.6431 9.46674 6.58883 9.61119 6.59203C9.78991 6.59599 9.96895 6.59627 10.1476 6.5915C10.3088 6.58721 10.3735 6.65376 10.3695 6.79319C10.3646 6.96013 10.3683 7.12728 10.3683 7.29434H10.3694Z" fill="url(#paint5_linear_4079_332)"/>
<path d="M11.4849 7.272C11.4849 7.10423 11.4868 6.93645 11.4842 6.76872C11.4824 6.64873 11.545 6.59301 11.6795 6.59426C11.877 6.59609 12.0746 6.5961 12.2721 6.59429C12.4054 6.59288 12.4704 6.64492 12.4698 6.76634C12.4679 7.11783 12.4679 7.46933 12.4698 7.82083C12.4703 7.93953 12.4093 7.99754 12.2743 7.99635C12.0768 7.99462 11.8792 7.99342 11.6817 7.99602C11.5271 7.99806 11.4799 7.92355 11.4825 7.79925C11.4862 7.62356 11.4835 7.44775 11.4835 7.272H11.4849Z" fill="url(#paint6_linear_4079_332)"/>
<path d="M14.562 7.31294C14.562 7.48058 14.5614 7.64822 14.5622 7.81586C14.5628 7.93409 14.4993 7.99215 14.3651 7.99098C14.1677 7.98925 13.9703 7.98911 13.7729 7.98948C13.6359 7.98973 13.5832 7.92591 13.584 7.80914C13.5864 7.46585 13.5872 7.12254 13.5841 6.77927C13.5829 6.64701 13.6516 6.59142 13.7962 6.59328C13.9667 6.59546 14.1376 6.59875 14.3076 6.59023C14.4895 6.58112 14.5741 6.64247 14.566 6.81004C14.558 6.97739 14.5643 7.14528 14.5643 7.31294H14.562Z" fill="url(#paint7_linear_4079_332)"/>
<path d="M12.4704 9.98543C12.4701 10.161 12.4685 10.3365 12.4707 10.512C12.4722 10.6327 12.4068 10.686 12.2735 10.6846C12.0762 10.6826 11.8789 10.6824 11.6816 10.6841C11.5503 10.6853 11.4816 10.6369 11.4824 10.5142C11.4848 10.1551 11.4844 9.79606 11.4842 9.43701C11.4841 9.32856 11.5432 9.27593 11.6648 9.27637C11.8711 9.27712 12.0773 9.27801 12.2836 9.27687C12.4234 9.2761 12.4719 9.34498 12.471 9.45879C12.4695 9.63433 12.4706 9.80988 12.4704 9.98543Z" fill="url(#paint8_linear_4079_332)"/>
<path d="M13.5845 9.9874C13.5845 9.81204 13.5865 9.63665 13.5838 9.46132C13.5819 9.3405 13.6485 9.28648 13.7798 9.28662C13.9679 9.28682 14.1561 9.28735 14.3442 9.28669C14.4849 9.28618 14.5636 9.34166 14.5633 9.47232C14.5624 9.81506 14.5609 10.1578 14.5613 10.5005C14.5614 10.6304 14.4925 10.6878 14.3462 10.6844C14.1761 10.6804 14.0054 10.6786 13.8356 10.6861C13.6549 10.6941 13.5703 10.6343 13.581 10.4656C13.591 10.3066 13.5831 10.1468 13.5831 9.9874H13.5845Z" fill="url(#paint9_linear_4079_332)"/>
<path d="M13.5856 4.58972C13.5856 4.43066 13.5902 4.27146 13.5843 4.11257C13.5789 3.96891 13.6534 3.9103 13.8097 3.91425C13.9795 3.91853 14.1494 3.91872 14.3192 3.91796C14.4834 3.91723 14.5665 3.9808 14.5644 4.13347C14.5601 4.44359 14.5613 4.75378 14.5625 5.06394C14.5631 5.1975 14.5079 5.27431 14.3422 5.26917C14.1547 5.26335 13.9668 5.26455 13.7791 5.26599C13.6436 5.26703 13.5847 5.20845 13.5861 5.09074C13.5881 4.92375 13.5866 4.75673 13.5866 4.58972H13.5856Z" fill="url(#paint10_linear_4079_332)"/>
<defs>
<linearGradient id="paint0_linear_4079_332" x1="0" y1="0" x2="28.2885" y2="17.0943" gradientUnits="userSpaceOnUse">
<stop offset="0.149038" stop-color="#320863"/>
<stop offset="1" stop-color="#D6B3FF"/>
</linearGradient>
<linearGradient id="paint1_linear_4079_332" x1="11.4785" y1="12.0103" x2="12.8457" y2="12.5816" gradientUnits="userSpaceOnUse">
<stop offset="0.149038" stop-color="#320863"/>
<stop offset="1" stop-color="#D6B3FF"/>
</linearGradient>
<linearGradient id="paint2_linear_4079_332" x1="11.4766" y1="14.7007" x2="12.8502" y2="15.2729" gradientUnits="userSpaceOnUse">
<stop offset="0.149038" stop-color="#320863"/>
<stop offset="1" stop-color="#D6B3FF"/>
</linearGradient>
<linearGradient id="paint3_linear_4079_332" x1="9.39453" y1="3.9165" x2="10.7285" y2="4.48099" gradientUnits="userSpaceOnUse">
<stop offset="0.149038" stop-color="#320863"/>
<stop offset="1" stop-color="#D6B3FF"/>
</linearGradient>
<linearGradient id="paint4_linear_4079_332" x1="11.4824" y1="3.91211" x2="12.8323" y2="4.49055" gradientUnits="userSpaceOnUse">
<stop offset="0.149038" stop-color="#320863"/>
<stop offset="1" stop-color="#D6B3FF"/>
</linearGradient>
<linearGradient id="paint5_linear_4079_332" x1="9.39453" y1="6.59131" x2="10.7356" y2="7.15405" gradientUnits="userSpaceOnUse">
<stop offset="0.149038" stop-color="#320863"/>
<stop offset="1" stop-color="#D6B3FF"/>
</linearGradient>
<linearGradient id="paint6_linear_4079_332" x1="11.4824" y1="6.59424" x2="12.8322" y2="7.16998" gradientUnits="userSpaceOnUse">
<stop offset="0.149038" stop-color="#320863"/>
<stop offset="1" stop-color="#D6B3FF"/>
</linearGradient>
<linearGradient id="paint7_linear_4079_332" x1="13.584" y1="6.58936" x2="14.929" y2="7.16049" gradientUnits="userSpaceOnUse">
<stop offset="0.149038" stop-color="#320863"/>
<stop offset="1" stop-color="#D6B3FF"/>
</linearGradient>
<linearGradient id="paint8_linear_4079_332" x1="11.4824" y1="9.27637" x2="12.8351" y2="9.85156" gradientUnits="userSpaceOnUse">
<stop offset="0.149038" stop-color="#320863"/>
<stop offset="1" stop-color="#D6B3FF"/>
</linearGradient>
<linearGradient id="paint9_linear_4079_332" x1="13.5801" y1="9.28662" x2="14.9253" y2="9.85879" gradientUnits="userSpaceOnUse">
<stop offset="0.149038" stop-color="#320863"/>
<stop offset="1" stop-color="#D6B3FF"/>
</linearGradient>
<linearGradient id="paint10_linear_4079_332" x1="13.584" y1="3.91406" x2="14.913" y2="4.49641" gradientUnits="userSpaceOnUse">
<stop offset="0.149038" stop-color="#320863"/>
<stop offset="1" stop-color="#D6B3FF"/>
</linearGradient>
</defs>
</svg>
