<svg width="24" height="25" viewBox="0 0 24 25" fill="none" xmlns="http://www.w3.org/2000/svg">
<path d="M19.5 23.0002C20.2956 23.0002 21.0587 22.6841 21.6213 22.1215C22.1839 21.5589 22.5 20.7958 22.5 20.0002V11.8262L15.621 15.8482L19.106 17.7242C19.2812 17.8186 19.4117 17.9787 19.4688 18.1694C19.5259 18.36 19.5049 18.5655 19.4105 18.7407C19.3161 18.9158 19.1559 19.0463 18.9653 19.1034C18.7747 19.1606 18.5692 19.1396 18.394 19.0452L12.711 15.9852C12.4925 15.8675 12.2482 15.806 12 15.806C11.7518 15.806 11.5075 15.8675 11.289 15.9852L5.606 19.0452C5.43131 19.1356 5.2281 19.1537 5.04015 19.0958C4.8522 19.0378 4.69455 18.9083 4.60117 18.7351C4.5078 18.562 4.48616 18.3592 4.54094 18.1702C4.59571 17.9813 4.7225 17.8215 4.894 17.7252L8.379 15.8482L1.5 11.8262V20.0002C1.5 20.7958 1.81607 21.5589 2.37868 22.1215C2.94129 22.6841 3.70435 23.0002 4.5 23.0002H19.5Z" fill="url(#paint0_linear_4029_49)"/>
<path d="M1.5 10.0891V9.34409C1.49992 8.80226 1.64659 8.27052 1.92443 7.80534C2.20227 7.34016 2.6009 6.95892 3.078 6.70209L10.578 2.66409C11.0151 2.42882 11.5036 2.30566 12 2.30566C12.4964 2.30566 12.9849 2.42882 13.422 2.66409L20.922 6.70209C21.3991 6.95892 21.7977 7.34016 22.0756 7.80534C22.3534 8.27052 22.5001 8.80226 22.5 9.34409V10.0891L14.074 15.0151L13.422 14.6641C12.9849 14.4288 12.4964 14.3057 12 14.3057C11.5036 14.3057 11.0151 14.4288 10.578 14.6641L9.926 15.0151L1.5 10.0891Z" fill="url(#paint1_linear_4029_49)"/>
<defs>
<linearGradient id="paint0_linear_4029_49" x1="1.5" y1="11.8262" x2="16.2787" y2="28.6499" gradientUnits="userSpaceOnUse">
<stop offset="0.149038" stop-color="#320863"/>
<stop offset="0.774038" stop-color="#D8C1F3"/>
</linearGradient>
<linearGradient id="paint1_linear_4029_49" x1="1.5" y1="2.30566" x2="18.4508" y2="19.2709" gradientUnits="userSpaceOnUse">
<stop offset="0.149038" stop-color="#320863"/>
<stop offset="0.774038" stop-color="#D8C1F3"/>
</linearGradient>
</defs>
</svg>
