<svg width="662" height="796" viewBox="0 0 662 796" fill="none" xmlns="http://www.w3.org/2000/svg">
<g opacity="0.24">
<path d="M68.2415 165.208C97.4091 173.024 123.616 191.63 136.916 218.271L333.522 612.091C349.53 644.156 341.412 675.297 319.564 695.859C297.688 716.448 261.977 726.475 222.793 715.976L-340.987 564.911C-380.172 554.412 -406.085 527.872 -414.736 499.104C-423.376 470.373 -414.835 439.345 -384.94 419.58L-17.764 176.825C7.07472 160.403 39.074 157.393 68.2415 165.208Z" stroke="white" stroke-width="2"/>
<path d="M282.113 155.222C311.28 163.038 337.487 181.644 350.787 208.285L547.393 602.105C563.401 634.17 555.283 665.311 533.435 685.873C511.559 706.462 475.848 716.489 436.664 705.99L-127.116 554.926C-166.3 544.426 -192.214 517.886 -200.865 489.118C-209.505 460.387 -200.964 429.359 -171.069 409.594L196.107 166.839C220.946 150.417 252.945 147.407 282.113 155.222Z" stroke="white" stroke-width="2"/>
</g>
</svg>
