<svg width="56" height="56" viewBox="0 0 56 56" fill="none" xmlns="http://www.w3.org/2000/svg">
<path d="M35.0013 9.9165C31.4248 9.9165 27.9285 10.9771 24.9548 12.9641C21.981 14.9511 19.6632 17.7753 18.2945 21.0796C16.9258 24.3839 16.5677 28.0199 17.2654 31.5277C17.9632 35.0355 19.6855 38.2577 22.2145 40.7867C24.7435 43.3157 27.9656 45.038 31.4734 45.7357C34.9813 46.4335 38.6172 46.0753 41.9215 44.7067C45.2258 43.338 48.05 41.0202 50.0371 38.0464C52.0241 35.0726 53.0846 31.5764 53.0846 27.9998C53.0785 23.2057 51.1713 18.6098 47.7813 15.2198C44.3914 11.8299 39.7954 9.92268 35.0013 9.9165ZM40.9046 33.9032C40.5765 34.2309 40.1317 34.415 39.668 34.415C39.2042 34.415 38.7594 34.2309 38.4313 33.9032L33.7646 29.2365C33.4364 28.9086 33.2517 28.4638 33.2513 27.9998V18.6665C33.2513 18.2024 33.4357 17.7573 33.7639 17.4291C34.0921 17.1009 34.5372 16.9165 35.0013 16.9165C35.4654 16.9165 35.9106 17.1009 36.2387 17.4291C36.5669 17.7573 36.7513 18.2024 36.7513 18.6665V27.2765L40.9046 31.4298C41.2324 31.758 41.4164 32.2028 41.4164 32.6665C41.4164 33.1303 41.2324 33.575 40.9046 33.9032Z" fill="url(#paint0_linear_4079_303)"/>
<path d="M18.668 15.75H11.668C11.2038 15.75 10.7587 15.5656 10.4305 15.2374C10.1023 14.9092 9.91797 14.4641 9.91797 14C9.91797 13.5359 10.1023 13.0908 10.4305 12.7626C10.7587 12.4344 11.2038 12.25 11.668 12.25H18.668C19.1321 12.25 19.5772 12.4344 19.9054 12.7626C20.2336 13.0908 20.418 13.5359 20.418 14C20.418 14.4641 20.2336 14.9092 19.9054 15.2374C19.5772 15.5656 19.1321 15.75 18.668 15.75ZM14.0013 22.75H7.0013C6.53717 22.75 6.09205 22.5656 5.76386 22.2374C5.43568 21.9092 5.2513 21.4641 5.2513 21C5.2513 20.5359 5.43568 20.0908 5.76386 19.7626C6.09205 19.4344 6.53717 19.25 7.0013 19.25H14.0013C14.4654 19.25 14.9106 19.4344 15.2387 19.7626C15.5669 20.0908 15.7513 20.5359 15.7513 21C15.7513 21.4641 15.5669 21.9092 15.2387 22.2374C14.9106 22.5656 14.4654 22.75 14.0013 22.75ZM14.0013 36.75H7.0013C6.53717 36.75 6.09205 36.5656 5.76386 36.2374C5.43568 35.9092 5.2513 35.4641 5.2513 35C5.2513 34.5359 5.43568 34.0908 5.76386 33.7626C6.09205 33.4344 6.53717 33.25 7.0013 33.25H14.0013C14.4654 33.25 14.9106 33.4344 15.2387 33.7626C15.5669 34.0908 15.7513 34.5359 15.7513 35C15.7513 35.4641 15.5669 35.9092 15.2387 36.2374C14.9106 36.5656 14.4654 36.75 14.0013 36.75ZM14.0013 29.75H4.66797C4.20384 29.75 3.75872 29.5656 3.43053 29.2374C3.10234 28.9092 2.91797 28.4641 2.91797 28C2.91797 27.5359 3.10234 27.0908 3.43053 26.7626C3.75872 26.4344 4.20384 26.25 4.66797 26.25H14.0013C14.4654 26.25 14.9106 26.4344 15.2387 26.7626C15.5669 27.0908 15.7513 27.5359 15.7513 28C15.7513 28.4641 15.5669 28.9092 15.2387 29.2374C14.9106 29.5656 14.4654 29.75 14.0013 29.75ZM18.668 43.75H11.668C11.2038 43.75 10.7587 43.5656 10.4305 43.2374C10.1023 42.9092 9.91797 42.4641 9.91797 42C9.91797 41.5359 10.1023 41.0907 10.4305 40.7626C10.7587 40.4344 11.2038 40.25 11.668 40.25H18.668C19.1321 40.25 19.5772 40.4344 19.9054 40.7626C20.2336 41.0907 20.418 41.5359 20.418 42C20.418 42.4641 20.2336 42.9092 19.9054 43.2374C19.5772 43.5656 19.1321 43.75 18.668 43.75Z" fill="url(#paint1_linear_4079_303)"/>
<defs>
<linearGradient id="paint0_linear_4079_303" x1="16.918" y1="9.9165" x2="59.6685" y2="35.8116" gradientUnits="userSpaceOnUse">
<stop offset="0.149038" stop-color="#320863"/>
<stop offset="0.774038" stop-color="#E8D9F9"/>
</linearGradient>
<linearGradient id="paint1_linear_4079_303" x1="2.91797" y1="12.25" x2="28.3171" y2="20.7972" gradientUnits="userSpaceOnUse">
<stop offset="0.149038" stop-color="#320863"/>
<stop offset="0.774038" stop-color="#E8D9F9"/>
</linearGradient>
</defs>
</svg>
